<svg width="500" height="150" viewBox="0 0 500 150" fill="none" xmlns="http://www.w3.org/2000/svg">
<rect width="500" height="150" fill="white"/>
<path d="M146 88H172V62H198V88H224V62H250V88H302V62H328V88H354" stroke="black" stroke-width="4"/>
<path d="M158.497 81.3341C157.387 81.3301 156.429 81.0736 155.621 80.5645C154.814 80.0554 154.192 79.3216 153.754 78.3631C153.317 77.4045 153.1 76.2551 153.104 74.9148C153.108 73.5705 153.327 72.429 153.76 71.4903C154.198 70.5517 154.818 69.8378 155.621 69.3486C156.429 68.8594 157.387 68.6148 158.497 68.6148C159.607 68.6148 160.565 68.8614 161.373 69.3545C162.18 69.8438 162.802 70.5577 163.24 71.4963C163.677 72.4349 163.894 73.5744 163.89 74.9148C163.89 76.2631 163.671 77.4165 163.234 78.375C162.796 79.3335 162.174 80.0673 161.367 80.5764C160.563 81.0815 159.607 81.3341 158.497 81.3341ZM158.497 78.6375C159.07 78.6375 159.539 78.3392 159.905 77.7426C160.275 77.142 160.458 76.1994 160.454 74.9148C160.454 74.0756 160.37 73.3895 160.203 72.8565C160.036 72.3236 159.806 71.9298 159.511 71.6753C159.217 71.4168 158.879 71.2875 158.497 71.2875C157.924 71.2875 157.457 71.5778 157.095 72.1585C156.733 72.7392 156.548 73.658 156.54 74.9148C156.536 75.7699 156.618 76.4739 156.785 77.0267C156.952 77.5756 157.183 77.9813 157.477 78.2438C157.775 78.5063 158.115 78.6375 158.497 78.6375Z" fill="black"/>
<path d="M187.052 68.7818V81H183.735V71.8364H183.663L180.991 73.4352V70.6193L183.997 68.7818H187.052Z" fill="black"/>
<path d="M239.052 68.7818V81H235.735V71.8364H235.663L232.991 73.4352V70.6193L235.997 68.7818H239.052Z" fill="black"/>
<path d="M211.497 81.3341C210.387 81.3301 209.429 81.0736 208.621 80.5645C207.814 80.0554 207.192 79.3216 206.754 78.3631C206.317 77.4045 206.1 76.2551 206.104 74.9148C206.108 73.5705 206.327 72.429 206.76 71.4903C207.198 70.5517 207.818 69.8378 208.621 69.3486C209.429 68.8594 210.387 68.6148 211.497 68.6148C212.607 68.6148 213.565 68.8614 214.373 69.3545C215.18 69.8438 215.802 70.5577 216.24 71.4963C216.677 72.4349 216.894 73.5744 216.89 74.9148C216.89 76.2631 216.671 77.4165 216.234 78.375C215.796 79.3335 215.174 80.0673 214.367 80.5764C213.563 81.0815 212.607 81.3341 211.497 81.3341ZM211.497 78.6375C212.07 78.6375 212.539 78.3392 212.905 77.7426C213.275 77.142 213.458 76.1994 213.454 74.9148C213.454 74.0756 213.37 73.3895 213.203 72.8565C213.036 72.3236 212.806 71.9298 212.511 71.6753C212.217 71.4168 211.879 71.2875 211.497 71.2875C210.924 71.2875 210.457 71.5778 210.095 72.1585C209.733 72.7392 209.548 73.658 209.54 74.9148C209.536 75.7699 209.618 76.4739 209.785 77.0267C209.952 77.5756 210.183 77.9813 210.477 78.2438C210.775 78.5063 211.115 78.6375 211.497 78.6375Z" fill="black"/>
<path d="M265.497 81.3341C264.387 81.3301 263.429 81.0736 262.621 80.5645C261.814 80.0554 261.192 79.3216 260.754 78.3631C260.317 77.4045 260.1 76.2551 260.104 74.9148C260.108 73.5705 260.327 72.429 260.76 71.4903C261.198 70.5517 261.818 69.8378 262.621 69.3486C263.429 68.8594 264.387 68.6148 265.497 68.6148C266.607 68.6148 267.565 68.8614 268.373 69.3545C269.18 69.8438 269.802 70.5577 270.24 71.4963C270.677 72.4349 270.894 73.5744 270.89 74.9148C270.89 76.2631 270.671 77.4165 270.234 78.375C269.796 79.3335 269.174 80.0673 268.367 80.5764C267.563 81.0815 266.607 81.3341 265.497 81.3341ZM265.497 78.6375C266.07 78.6375 266.539 78.3392 266.905 77.7426C267.275 77.142 267.458 76.1994 267.454 74.9148C267.454 74.0756 267.37 73.3895 267.203 72.8565C267.036 72.3236 266.806 71.9298 266.511 71.6753C266.217 71.4168 265.879 71.2875 265.497 71.2875C264.924 71.2875 264.457 71.5778 264.095 72.1585C263.733 72.7392 263.548 73.658 263.54 74.9148C263.536 75.7699 263.618 76.4739 263.785 77.0267C263.952 77.5756 264.183 77.9813 264.477 78.2438C264.775 78.5063 265.115 78.6375 265.497 78.6375Z" fill="black"/>
<path d="M317.052 68.7818V81H313.735V71.8364H313.663L310.991 73.4352V70.6193L313.997 68.7818H317.052Z" fill="black"/>
<path d="M342.497 81.3341C341.387 81.3301 340.429 81.0736 339.621 80.5645C338.814 80.0554 338.192 79.3216 337.754 78.3631C337.317 77.4045 337.1 76.2551 337.104 74.9148C337.108 73.5705 337.327 72.429 337.76 71.4903C338.198 70.5517 338.818 69.8378 339.621 69.3486C340.429 68.8594 341.387 68.6148 342.497 68.6148C343.607 68.6148 344.565 68.8614 345.373 69.3545C346.18 69.8438 346.802 70.5577 347.24 71.4963C347.677 72.4349 347.894 73.5744 347.89 74.9148C347.89 76.2631 347.671 77.4165 347.234 78.375C346.796 79.3335 346.174 80.0673 345.367 80.5764C344.563 81.0815 343.607 81.3341 342.497 81.3341ZM342.497 78.6375C343.07 78.6375 343.539 78.3392 343.905 77.7426C344.275 77.142 344.458 76.1994 344.454 74.9148C344.454 74.0756 344.37 73.3895 344.203 72.8565C344.036 72.3236 343.806 71.9298 343.511 71.6753C343.217 71.4168 342.879 71.2875 342.497 71.2875C341.924 71.2875 341.457 71.5778 341.095 72.1585C340.733 72.7392 340.548 73.658 340.54 74.9148C340.536 75.7699 340.618 76.4739 340.785 77.0267C340.952 77.5756 341.183 77.9813 341.477 78.2438C341.775 78.5063 342.115 78.6375 342.497 78.6375Z" fill="black"/>
<path d="M287.497 81.3341C286.387 81.3301 285.429 81.0736 284.621 80.5645C283.814 80.0554 283.192 79.3216 282.754 78.3631C282.317 77.4045 282.1 76.2551 282.104 74.9148C282.108 73.5705 282.327 72.429 282.76 71.4903C283.198 70.5517 283.818 69.8378 284.621 69.3486C285.429 68.8594 286.387 68.6148 287.497 68.6148C288.607 68.6148 289.565 68.8614 290.373 69.3545C291.18 69.8438 291.802 70.5577 292.24 71.4963C292.677 72.4349 292.894 73.5744 292.89 74.9148C292.89 76.2631 292.671 77.4165 292.234 78.375C291.796 79.3335 291.174 80.0673 290.367 80.5764C289.563 81.0815 288.607 81.3341 287.497 81.3341ZM287.497 78.6375C288.07 78.6375 288.539 78.3392 288.905 77.7426C289.275 77.142 289.458 76.1994 289.454 74.9148C289.454 74.0756 289.37 73.3895 289.203 72.8565C289.036 72.3236 288.806 71.9298 288.511 71.6753C288.217 71.4168 287.879 71.2875 287.497 71.2875C286.924 71.2875 286.457 71.5778 286.095 72.1585C285.733 72.7392 285.548 73.658 285.54 74.9148C285.536 75.7699 285.618 76.4739 285.785 77.0267C285.952 77.5756 286.183 77.9813 286.477 78.2438C286.775 78.5063 287.115 78.6375 287.497 78.6375Z" fill="black"/>
</svg>
