<svg width="500" height="250" viewBox="0 0 500 250" fill="none" xmlns="http://www.w3.org/2000/svg">
<rect width="500" height="250" fill="white"/>
<rect x="297.4" y="73" width="75.6" height="18.2" fill="#EBACAC"/>
<rect x="128" y="71.6001" width="163.8" height="18.2" fill="#ACEBB5"/>
<path d="M138.579 79.0888L137.315 79.4468C137.235 79.236 137.118 79.0312 136.963 78.8323C136.811 78.6295 136.605 78.4624 136.342 78.3312C136.08 78.1999 135.744 78.1343 135.334 78.1343C134.773 78.1343 134.306 78.2635 133.932 78.5221C133.562 78.7766 133.377 79.1008 133.377 79.4945C133.377 79.8445 133.504 80.1209 133.759 80.3238C134.013 80.5266 134.411 80.6956 134.952 80.8309L136.312 81.165C137.132 81.3638 137.742 81.6681 138.144 82.0778C138.546 82.4834 138.746 83.0064 138.746 83.6468C138.746 84.1718 138.595 84.6411 138.293 85.0547C137.995 85.4684 137.577 85.7945 137.04 86.0331C136.503 86.2718 135.879 86.3911 135.167 86.3911C134.232 86.3911 133.459 86.1883 132.846 85.7826C132.234 85.3769 131.846 84.7843 131.683 84.0047L133.019 83.6706C133.146 84.1638 133.387 84.5337 133.741 84.7803C134.099 85.0269 134.566 85.1502 135.143 85.1502C135.799 85.1502 136.32 85.011 136.706 84.7326C137.096 84.4502 137.291 84.1121 137.291 83.7184C137.291 83.4002 137.179 83.1337 136.957 82.9189C136.734 82.7002 136.392 82.5371 135.93 82.4297L134.403 82.0718C133.564 81.8729 132.948 81.5647 132.554 81.1471C132.164 80.7255 131.969 80.1985 131.969 79.5661C131.969 79.0491 132.114 78.5917 132.405 78.1939C132.699 77.7962 133.099 77.484 133.604 77.2573C134.113 77.0306 134.69 76.9172 135.334 76.9172C136.241 76.9172 136.953 77.1161 137.47 77.5138C137.991 77.9116 138.361 78.4366 138.579 79.0888ZM140.866 86.2002V77.0366H142.274V86.2002H140.866ZM141.582 75.5093C141.307 75.5093 141.071 75.4158 140.872 75.2289C140.677 75.042 140.579 74.8172 140.579 74.5547C140.579 74.2922 140.677 74.0675 140.872 73.8806C141.071 73.6937 141.307 73.6002 141.582 73.6002C141.856 73.6002 142.091 73.6937 142.286 73.8806C142.485 74.0675 142.584 74.2922 142.584 74.5547C142.584 74.8172 142.485 75.042 142.286 75.2289C142.091 75.4158 141.856 75.5093 141.582 75.5093ZM145.903 77.0366L148.098 80.7832L150.293 77.0366H151.916L148.957 81.6184L151.916 86.2002H150.293L148.098 82.6445L145.903 86.2002H144.28L147.191 81.6184L144.28 77.0366H145.903ZM160.058 80.6877V86.2002H158.65V73.982H160.058V78.4684H160.177C160.392 77.9951 160.714 77.6192 161.144 77.3408C161.577 77.0584 162.154 76.9172 162.874 76.9172C163.498 76.9172 164.045 77.0425 164.515 77.2931C164.984 77.5397 165.348 77.9195 165.606 78.4326C165.869 78.9417 166 79.59 166 80.3775V86.2002H164.592V80.4729C164.592 79.7451 164.403 79.1823 164.025 78.7846C163.652 78.3829 163.133 78.182 162.468 78.182C162.007 78.182 161.593 78.2795 161.227 78.4743C160.865 78.6692 160.579 78.9536 160.368 79.3275C160.162 79.7013 160.058 80.1547 160.058 80.6877ZM174.351 82.4536V77.0366H175.759V86.2002H174.351V84.6491H174.255C174.041 85.1144 173.707 85.5101 173.253 85.8363C172.8 86.1584 172.227 86.3195 171.535 86.3195C170.962 86.3195 170.453 86.1942 170.008 85.9437C169.562 85.6891 169.212 85.3073 168.958 84.7982C168.703 84.2851 168.576 83.6388 168.576 82.8593V77.0366H169.984V82.7638C169.984 83.432 170.171 83.965 170.545 84.3627C170.923 84.7604 171.404 84.9593 171.988 84.9593C172.338 84.9593 172.694 84.8698 173.056 84.6908C173.422 84.5118 173.728 84.2374 173.975 83.8675C174.226 83.4976 174.351 83.0263 174.351 82.4536ZM179.746 80.6877V86.2002H178.338V77.0366H179.698V78.4684H179.817C180.032 78.003 180.358 77.6292 180.796 77.3468C181.233 77.0604 181.798 76.9172 182.49 76.9172C183.11 76.9172 183.653 77.0445 184.119 77.2991C184.584 77.5496 184.946 77.9314 185.204 78.4445C185.463 78.9536 185.592 79.5979 185.592 80.3775V86.2002H184.184V80.4729C184.184 79.753 183.997 79.1922 183.623 78.7905C183.25 78.3849 182.737 78.182 182.084 78.182C181.635 78.182 181.233 78.2795 180.879 78.4743C180.529 78.6692 180.253 78.9536 180.05 79.3275C179.847 79.7013 179.746 80.1547 179.746 80.6877ZM191.625 86.3911C190.862 86.3911 190.187 86.1982 189.603 85.8124C189.018 85.4226 188.561 84.8738 188.231 84.1658C187.901 83.4539 187.735 82.6127 187.735 81.6422C187.735 80.6797 187.901 79.8445 188.231 79.1366C188.561 78.4286 189.02 77.8817 189.609 77.4959C190.197 77.1101 190.878 76.9172 191.649 76.9172C192.246 76.9172 192.717 77.0167 193.063 77.2155C193.413 77.4104 193.679 77.6332 193.862 77.8837C194.049 78.1303 194.195 78.3331 194.298 78.4922H194.417V73.982H195.825V86.2002H194.465V84.7922H194.298C194.195 84.9593 194.047 85.1701 193.856 85.4246C193.666 85.6752 193.393 85.8999 193.039 86.0988C192.685 86.2937 192.214 86.3911 191.625 86.3911ZM191.816 85.1263C192.381 85.1263 192.858 84.9792 193.248 84.6849C193.638 84.3866 193.934 83.9749 194.137 83.4499C194.34 82.9209 194.441 82.3104 194.441 81.6184C194.441 80.9343 194.342 80.3357 194.143 79.8226C193.944 79.3056 193.65 78.9039 193.26 78.6175C192.87 78.3272 192.389 78.182 191.816 78.182C191.22 78.182 190.722 78.3351 190.325 78.6414C189.931 78.9437 189.635 79.3553 189.436 79.8763C189.241 80.3934 189.143 80.9741 189.143 81.6184C189.143 82.2706 189.243 82.8633 189.442 83.3962C189.645 83.9252 189.943 84.3468 190.337 84.661C190.734 84.9712 191.228 85.1263 191.816 85.1263ZM198.599 86.2002V77.0366H199.96V78.4207H200.055C200.222 77.9672 200.524 77.5993 200.962 77.317C201.399 77.0346 201.893 76.8934 202.441 76.8934C202.545 76.8934 202.674 76.8954 202.829 76.8993C202.984 76.9033 203.102 76.9093 203.181 76.9172V78.3491C203.133 78.3371 203.024 78.3192 202.853 78.2954C202.686 78.2675 202.509 78.2536 202.322 78.2536C201.877 78.2536 201.479 78.3471 201.129 78.534C200.783 78.717 200.508 78.9715 200.306 79.2976C200.107 79.6198 200.007 79.9877 200.007 80.4013V86.2002H198.599ZM208.413 86.3911C207.53 86.3911 206.769 86.1962 206.128 85.8064C205.492 85.4127 205.001 84.8638 204.655 84.1599C204.313 83.4519 204.142 82.6286 204.142 81.69C204.142 80.7513 204.313 79.9241 204.655 79.2082C205.001 78.4883 205.482 77.9275 206.099 77.5258C206.719 77.1201 207.443 76.9172 208.27 76.9172C208.747 76.9172 209.219 76.9968 209.684 77.1559C210.149 77.315 210.573 77.5735 210.955 77.9314C211.337 78.2854 211.641 78.7547 211.868 79.3394C212.094 79.9241 212.208 80.6439 212.208 81.4991V82.0956H205.144V80.8786H210.776C210.776 80.3616 210.672 79.9002 210.466 79.4945C210.263 79.0888 209.972 78.7687 209.595 78.534C209.221 78.2993 208.779 78.182 208.27 78.182C207.709 78.182 207.224 78.3212 206.814 78.5996C206.409 78.8741 206.097 79.232 205.878 79.6735C205.659 80.115 205.55 80.5883 205.55 81.0934V81.9047C205.55 82.5968 205.669 83.1834 205.908 83.6647C206.15 84.142 206.486 84.5059 206.916 84.7564C207.345 85.003 207.845 85.1263 208.413 85.1263C208.783 85.1263 209.117 85.0746 209.416 84.9712C209.718 84.8638 209.978 84.7047 210.197 84.4939C210.416 84.2792 210.585 84.0127 210.704 83.6945L212.064 84.0763C211.921 84.5377 211.681 84.9434 211.343 85.2934C211.004 85.6394 210.587 85.9099 210.09 86.1047C209.593 86.2956 209.034 86.3911 208.413 86.3911ZM217.81 86.3911C217.046 86.3911 216.372 86.1982 215.787 85.8124C215.202 85.4226 214.745 84.8738 214.415 84.1658C214.085 83.4539 213.92 82.6127 213.92 81.6422C213.92 80.6797 214.085 79.8445 214.415 79.1366C214.745 78.4286 215.204 77.8817 215.793 77.4959C216.382 77.1101 217.062 76.9172 217.833 76.9172C218.43 76.9172 218.901 77.0167 219.247 77.2155C219.597 77.4104 219.864 77.6332 220.047 77.8837C220.234 78.1303 220.379 78.3331 220.482 78.4922H220.602V73.982H222.01V86.2002H220.649V84.7922H220.482C220.379 84.9593 220.232 85.1701 220.041 85.4246C219.85 85.6752 219.577 85.8999 219.224 86.0988C218.87 86.2937 218.398 86.3911 217.81 86.3911ZM218.001 85.1263C218.565 85.1263 219.043 84.9792 219.432 84.6849C219.822 84.3866 220.118 83.9749 220.321 83.4499C220.524 82.9209 220.626 82.3104 220.626 81.6184C220.626 80.9343 220.526 80.3357 220.327 79.8226C220.128 79.3056 219.834 78.9039 219.444 78.6175C219.054 78.3272 218.573 78.182 218.001 78.182C217.404 78.182 216.907 78.3351 216.509 78.6414C216.115 78.9437 215.819 79.3553 215.62 79.8763C215.425 80.3934 215.328 80.9741 215.328 81.6184C215.328 82.2706 215.427 82.8633 215.626 83.3962C215.829 83.9252 216.127 84.3468 216.521 84.661C216.919 84.9712 217.412 85.1263 218.001 85.1263ZM232.205 86.415C231.625 86.415 231.098 86.3056 230.624 86.0868C230.151 85.8641 229.775 85.5439 229.497 85.1263C229.218 84.7047 229.079 84.1956 229.079 83.5991C229.079 83.0741 229.183 82.6485 229.389 82.3224C229.596 81.9922 229.873 81.7337 230.219 81.5468C230.565 81.3599 230.947 81.2206 231.364 81.1292C231.786 81.0337 232.209 80.9582 232.635 80.9025C233.192 80.8309 233.643 80.7772 233.989 80.7414C234.339 80.7016 234.594 80.636 234.753 80.5445C234.916 80.453 234.997 80.2939 234.997 80.0672V80.0195C234.997 79.4309 234.836 78.9735 234.514 78.6474C234.196 78.3212 233.713 78.1582 233.064 78.1582C232.392 78.1582 231.865 78.3053 231.483 78.5996C231.102 78.8939 230.833 79.2081 230.678 79.5422L229.342 79.065C229.58 78.5081 229.899 78.0746 230.296 77.7644C230.698 77.4502 231.135 77.2314 231.609 77.1082C232.086 76.9809 232.555 76.9172 233.017 76.9172C233.311 76.9172 233.649 76.953 234.031 77.0246C234.417 77.0922 234.789 77.2334 235.147 77.4482C235.508 77.663 235.809 77.9871 236.047 78.4207C236.286 78.8542 236.405 79.4349 236.405 80.1627V86.2002H234.997V84.9593H234.926C234.83 85.1581 234.671 85.3709 234.449 85.5976C234.226 85.8243 233.929 86.0172 233.56 86.1763C233.19 86.3354 232.738 86.415 232.205 86.415ZM232.42 85.1502C232.977 85.1502 233.446 85.0408 233.828 84.8221C234.214 84.6033 234.504 84.3209 234.699 83.9749C234.898 83.6289 234.997 83.265 234.997 82.8831V81.5945C234.938 81.6661 234.806 81.7317 234.604 81.7914C234.405 81.8471 234.174 81.8968 233.912 81.9405C233.653 81.9803 233.401 82.0161 233.154 82.0479C232.911 82.0758 232.714 82.0996 232.563 82.1195C232.197 82.1672 231.855 82.2448 231.537 82.3522C231.223 82.4556 230.968 82.6127 230.774 82.8235C230.583 83.0303 230.487 83.3127 230.487 83.6706C230.487 84.1599 230.668 84.5297 231.03 84.7803C231.396 85.0269 231.859 85.1502 232.42 85.1502ZM240.383 80.6877V86.2002H238.975V77.0366H240.335V78.4684H240.455C240.669 78.003 240.996 77.6292 241.433 77.3468C241.871 77.0604 242.435 76.9172 243.127 76.9172C243.748 76.9172 244.291 77.0445 244.756 77.2991C245.221 77.5496 245.583 77.9314 245.842 78.4445C246.1 78.9536 246.23 79.5979 246.23 80.3775V86.2002H244.822V80.4729C244.822 79.753 244.635 79.1922 244.261 78.7905C243.887 78.3849 243.374 78.182 242.722 78.182C242.272 78.182 241.871 78.2795 241.517 78.4743C241.167 78.6692 240.89 78.9536 240.687 79.3275C240.485 79.7013 240.383 80.1547 240.383 80.6877ZM252.263 86.3911C251.499 86.3911 250.825 86.1982 250.24 85.8124C249.656 85.4226 249.198 84.8738 248.868 84.1658C248.538 83.4539 248.373 82.6127 248.373 81.6422C248.373 80.6797 248.538 79.8445 248.868 79.1366C249.198 78.4286 249.658 77.8817 250.246 77.4959C250.835 77.1101 251.515 76.9172 252.287 76.9172C252.883 76.9172 253.354 77.0167 253.701 77.2155C254.051 77.4104 254.317 77.6332 254.5 77.8837C254.687 78.1303 254.832 78.3331 254.935 78.4922H255.055V73.982H256.463V86.2002H255.102V84.7922H254.935C254.832 84.9593 254.685 85.1701 254.494 85.4246C254.303 85.6752 254.031 85.8999 253.677 86.0988C253.323 86.2937 252.851 86.3911 252.263 86.3911ZM252.454 85.1263C253.018 85.1263 253.496 84.9792 253.885 84.6849C254.275 84.3866 254.572 83.9749 254.774 83.4499C254.977 82.9209 255.079 82.3104 255.079 81.6184C255.079 80.9343 254.979 80.3357 254.78 79.8226C254.581 79.3056 254.287 78.9039 253.897 78.6175C253.508 78.3272 253.026 78.182 252.454 78.182C251.857 78.182 251.36 78.3351 250.962 78.6414C250.568 78.9437 250.272 79.3553 250.073 79.8763C249.878 80.3934 249.781 80.9741 249.781 81.6184C249.781 82.2706 249.88 82.8633 250.079 83.3962C250.282 83.9252 250.58 84.3468 250.974 84.661C251.372 84.9712 251.865 85.1263 252.454 85.1263ZM267.947 77.0366V78.2297H263.198V77.0366H267.947ZM264.582 74.8411H265.99V83.5752C265.99 83.9729 266.048 84.2712 266.163 84.4701C266.283 84.665 266.434 84.7962 266.617 84.8638C266.804 84.9275 267.001 84.9593 267.207 84.9593C267.362 84.9593 267.49 84.9513 267.589 84.9354C267.689 84.9155 267.768 84.8996 267.828 84.8877L268.114 86.1525C268.019 86.1883 267.885 86.2241 267.714 86.2599C267.543 86.2996 267.327 86.3195 267.064 86.3195C266.666 86.3195 266.277 86.234 265.895 86.063C265.517 85.892 265.203 85.6314 264.952 85.2814C264.706 84.9314 264.582 84.49 264.582 83.957V74.8411ZM272.141 86.2002L269.349 77.0366H270.829L272.809 84.0525H272.905L274.862 77.0366H276.365L278.298 84.0286H278.393L280.374 77.0366H281.854L279.062 86.2002H277.678L275.673 79.1604H275.53L273.525 86.2002H272.141ZM287.126 86.3911C286.299 86.3911 285.573 86.1942 284.948 85.8005C284.328 85.4067 283.843 84.8559 283.493 84.1479C283.147 83.44 282.974 82.6127 282.974 81.6661C282.974 80.7116 283.147 79.8783 283.493 79.1664C283.843 78.4545 284.328 77.9016 284.948 77.5079C285.573 77.1141 286.299 76.9172 287.126 76.9172C287.953 76.9172 288.677 77.1141 289.298 77.5079C289.922 77.9016 290.407 78.4545 290.753 79.1664C291.103 79.8783 291.278 80.7116 291.278 81.6661C291.278 82.6127 291.103 83.44 290.753 84.1479C290.407 84.8559 289.922 85.4067 289.298 85.8005C288.677 86.1942 287.953 86.3911 287.126 86.3911ZM287.126 85.1263C287.754 85.1263 288.271 84.9653 288.677 84.6431C289.083 84.3209 289.383 83.8974 289.578 83.3724C289.773 82.8474 289.87 82.2786 289.87 81.6661C289.87 81.0536 289.773 80.4829 289.578 79.9539C289.383 79.4249 289.083 78.9974 288.677 78.6712C288.271 78.3451 287.754 78.182 287.126 78.182C286.498 78.182 285.981 78.3451 285.575 78.6712C285.169 78.9974 284.869 79.4249 284.674 79.9539C284.479 80.4829 284.382 81.0536 284.382 81.6661C284.382 82.2786 284.479 82.8474 284.674 83.3724C284.869 83.8974 285.169 84.3209 285.575 84.6431C285.981 84.9653 286.498 85.1263 287.126 85.1263ZM302.138 77.0366V78.2297H297.389V77.0366H302.138ZM298.773 74.8411H300.181V83.5752C300.181 83.9729 300.239 84.2712 300.354 84.4701C300.473 84.665 300.624 84.7962 300.807 84.8638C300.994 84.9275 301.191 84.9593 301.398 84.9593C301.553 84.9593 301.68 84.9513 301.78 84.9354C301.879 84.9155 301.959 84.8996 302.018 84.8877L302.305 86.1525C302.209 86.1883 302.076 86.2241 301.905 86.2599C301.734 86.2996 301.517 86.3195 301.255 86.3195C300.857 86.3195 300.467 86.234 300.085 86.063C299.708 85.892 299.393 85.6314 299.143 85.2814C298.896 84.9314 298.773 84.49 298.773 83.957V74.8411ZM305.86 80.6877V86.2002H304.453V73.982H305.86V78.4684H305.98C306.195 77.9951 306.517 77.6192 306.946 77.3408C307.38 77.0584 307.956 76.9172 308.676 76.9172C309.301 76.9172 309.848 77.0425 310.317 77.2931C310.786 77.5397 311.15 77.9195 311.409 78.4326C311.671 78.9417 311.803 79.59 311.803 80.3775V86.2002H310.395V80.4729C310.395 79.7451 310.206 79.1823 309.828 78.7846C309.454 78.3829 308.935 78.182 308.271 78.182C307.809 78.182 307.396 78.2795 307.03 78.4743C306.668 78.6692 306.381 78.9536 306.171 79.3275C305.964 79.7013 305.86 80.1547 305.86 80.6877ZM318.101 86.3911C317.274 86.3911 316.548 86.1942 315.923 85.8005C315.303 85.4067 314.818 84.8559 314.468 84.1479C314.122 83.44 313.949 82.6127 313.949 81.6661C313.949 80.7116 314.122 79.8783 314.468 79.1664C314.818 78.4545 315.303 77.9016 315.923 77.5079C316.548 77.1141 317.274 76.9172 318.101 76.9172C318.928 76.9172 319.652 77.1141 320.273 77.5079C320.897 77.9016 321.382 78.4545 321.728 79.1664C322.078 79.8783 322.253 80.7116 322.253 81.6661C322.253 82.6127 322.078 83.44 321.728 84.1479C321.382 84.8559 320.897 85.4067 320.273 85.8005C319.652 86.1942 318.928 86.3911 318.101 86.3911ZM318.101 85.1263C318.729 85.1263 319.246 84.9653 319.652 84.6431C320.058 84.3209 320.358 83.8974 320.553 83.3724C320.748 82.8474 320.845 82.2786 320.845 81.6661C320.845 81.0536 320.748 80.4829 320.553 79.9539C320.358 79.4249 320.058 78.9974 319.652 78.6712C319.246 78.3451 318.729 78.182 318.101 78.182C317.473 78.182 316.956 78.3451 316.55 78.6712C316.144 78.9974 315.844 79.4249 315.649 79.9539C315.454 80.4829 315.357 81.0536 315.357 81.6661C315.357 82.2786 315.454 82.8474 315.649 83.3724C315.844 83.8974 316.144 84.3209 316.55 84.6431C316.956 84.9653 317.473 85.1263 318.101 85.1263ZM330.177 82.4536V77.0366H331.585V86.2002H330.177V84.6491H330.082C329.867 85.1144 329.533 85.5101 329.08 85.8363C328.626 86.1584 328.054 86.3195 327.362 86.3195C326.789 86.3195 326.28 86.1942 325.834 85.9437C325.389 85.6891 325.039 85.3073 324.784 84.7982C324.53 84.2851 324.402 83.6388 324.402 82.8593V77.0366H325.81V82.7638C325.81 83.432 325.997 83.965 326.371 84.3627C326.749 84.7604 327.23 84.9593 327.815 84.9593C328.165 84.9593 328.521 84.8698 328.883 84.6908C329.249 84.5118 329.555 84.2374 329.802 83.8675C330.052 83.4976 330.177 83.0263 330.177 82.4536ZM340.655 79.0888L339.39 79.4468C339.311 79.236 339.193 79.0312 339.038 78.8323C338.887 78.6295 338.68 78.4624 338.418 78.3312C338.155 78.1999 337.819 78.1343 337.41 78.1343C336.849 78.1343 336.382 78.2635 336.008 78.5221C335.638 78.7766 335.453 79.1008 335.453 79.4945C335.453 79.8445 335.58 80.1209 335.835 80.3238C336.089 80.5266 336.487 80.6956 337.028 80.8309L338.388 81.165C339.207 81.3638 339.818 81.6681 340.22 82.0778C340.621 82.4834 340.822 83.0064 340.822 83.6468C340.822 84.1718 340.671 84.6411 340.369 85.0547C340.07 85.4684 339.653 85.7945 339.116 86.0331C338.579 86.2718 337.955 86.3911 337.243 86.3911C336.308 86.3911 335.534 86.1883 334.922 85.7826C334.309 85.3769 333.922 84.7843 333.759 84.0047L335.095 83.6706C335.222 84.1638 335.463 84.5337 335.817 84.7803C336.175 85.0269 336.642 85.1502 337.219 85.1502C337.875 85.1502 338.396 85.011 338.782 84.7326C339.172 84.4502 339.366 84.1121 339.366 83.7184C339.366 83.4002 339.255 83.1337 339.032 82.9189C338.81 82.7002 338.468 82.5371 338.006 82.4297L336.479 82.0718C335.64 81.8729 335.023 81.5647 334.63 81.1471C334.24 80.7255 334.045 80.1985 334.045 79.5661C334.045 79.0491 334.19 78.5917 334.48 78.1939C334.775 77.7962 335.174 77.484 335.68 77.2573C336.189 77.0306 336.765 76.9172 337.41 76.9172C338.316 76.9172 339.028 77.1161 339.545 77.5138C340.066 77.9116 340.436 78.4366 340.655 79.0888ZM345.638 86.415C345.057 86.415 344.53 86.3056 344.057 86.0868C343.584 85.8641 343.208 85.5439 342.93 85.1263C342.651 84.7047 342.512 84.1956 342.512 83.5991C342.512 83.0741 342.615 82.6485 342.822 82.3224C343.029 81.9922 343.305 81.7337 343.652 81.5468C343.998 81.3599 344.379 81.2206 344.797 81.1292C345.219 81.0337 345.642 80.9582 346.068 80.9025C346.625 80.8309 347.076 80.7772 347.422 80.7414C347.772 80.7016 348.027 80.636 348.186 80.5445C348.349 80.453 348.43 80.2939 348.43 80.0672V80.0195C348.43 79.4309 348.269 78.9735 347.947 78.6474C347.629 78.3212 347.146 78.1582 346.497 78.1582C345.825 78.1582 345.298 78.3053 344.916 78.5996C344.534 78.8939 344.266 79.2081 344.111 79.5422L342.775 79.065C343.013 78.5081 343.331 78.0746 343.729 77.7644C344.131 77.4502 344.568 77.2314 345.042 77.1082C345.519 76.9809 345.988 76.9172 346.45 76.9172C346.744 76.9172 347.082 76.953 347.464 77.0246C347.85 77.0922 348.221 77.2334 348.579 77.4482C348.941 77.663 349.242 77.9871 349.48 78.4207C349.719 78.8542 349.838 79.4349 349.838 80.1627V86.2002H348.43V84.9593H348.359C348.263 85.1581 348.104 85.3709 347.881 85.5976C347.659 85.8243 347.362 86.0172 346.992 86.1763C346.623 86.3354 346.171 86.415 345.638 86.415ZM345.853 85.1502C346.41 85.1502 346.879 85.0408 347.261 84.8221C347.647 84.6033 347.937 84.3209 348.132 83.9749C348.331 83.6289 348.43 83.265 348.43 82.8831V81.5945C348.371 81.6661 348.239 81.7317 348.036 81.7914C347.838 81.8471 347.607 81.8968 347.344 81.9405C347.086 81.9803 346.833 82.0161 346.587 82.0479C346.344 82.0758 346.147 82.0996 345.996 82.1195C345.63 82.1672 345.288 82.2448 344.97 82.3522C344.656 82.4556 344.401 82.6127 344.206 82.8235C344.015 83.0303 343.92 83.3127 343.92 83.6706C343.92 84.1599 344.101 84.5297 344.463 84.7803C344.829 85.0269 345.292 85.1502 345.853 85.1502ZM353.816 80.6877V86.2002H352.408V77.0366H353.768V78.4684H353.888C354.102 78.003 354.428 77.6292 354.866 77.3468C355.303 77.0604 355.868 76.9172 356.56 76.9172C357.181 76.9172 357.724 77.0445 358.189 77.2991C358.654 77.5496 359.016 77.9314 359.275 78.4445C359.533 78.9536 359.663 79.5979 359.663 80.3775V86.2002H358.255V80.4729C358.255 79.753 358.068 79.1922 357.694 78.7905C357.32 78.3849 356.807 78.182 356.155 78.182C355.705 78.182 355.303 78.2795 354.949 78.4743C354.599 78.6692 354.323 78.9536 354.12 79.3275C353.917 79.7013 353.816 80.1547 353.816 80.6877ZM365.696 86.3911C364.932 86.3911 364.258 86.1982 363.673 85.8124C363.088 85.4226 362.631 84.8738 362.301 84.1658C361.971 83.4539 361.806 82.6127 361.806 81.6422C361.806 80.6797 361.971 79.8445 362.301 79.1366C362.631 78.4286 363.09 77.8817 363.679 77.4959C364.268 77.1101 364.948 76.9172 365.719 76.9172C366.316 76.9172 366.787 77.0167 367.133 77.2155C367.483 77.4104 367.75 77.6332 367.933 77.8837C368.12 78.1303 368.265 78.3331 368.368 78.4922H368.488V73.982H369.896V86.2002H368.535V84.7922H368.368C368.265 84.9593 368.118 85.1701 367.927 85.4246C367.736 85.6752 367.463 85.8999 367.109 86.0988C366.755 86.2937 366.284 86.3911 365.696 86.3911ZM365.886 85.1263C366.451 85.1263 366.928 84.9792 367.318 84.6849C367.708 84.3866 368.004 83.9749 368.207 83.4499C368.41 82.9209 368.511 82.3104 368.511 81.6184C368.511 80.9343 368.412 80.3357 368.213 79.8226C368.014 79.3056 367.72 78.9039 367.33 78.6175C366.94 78.3272 366.459 78.182 365.886 78.182C365.29 78.182 364.793 78.3351 364.395 78.6414C364.001 78.9437 363.705 79.3553 363.506 79.8763C363.311 80.3934 363.214 80.9741 363.214 81.6184C363.214 82.2706 363.313 82.8633 363.512 83.3962C363.715 83.9252 364.013 84.3468 364.407 84.661C364.805 84.9712 365.298 85.1263 365.886 85.1263Z" fill="black"/>
<rect x="128" y="96.7998" width="98" height="18.2" fill="#AFACEB"/>
<rect x="261" y="96.7998" width="32.2" height="18.2" fill="#EBD5AC"/>
<path d="M138.579 104.289L137.315 104.646C137.235 104.436 137.118 104.231 136.963 104.032C136.811 103.829 136.605 103.662 136.342 103.531C136.08 103.4 135.744 103.334 135.334 103.334C134.773 103.334 134.306 103.463 133.932 103.722C133.562 103.976 133.377 104.3 133.377 104.694C133.377 105.044 133.504 105.321 133.759 105.523C134.013 105.726 134.411 105.895 134.952 106.031L136.312 106.365C137.132 106.564 137.742 106.868 138.144 107.277C138.546 107.683 138.746 108.206 138.746 108.846C138.746 109.371 138.595 109.841 138.293 110.254C137.995 110.668 137.577 110.994 137.04 111.233C136.503 111.471 135.879 111.591 135.167 111.591C134.232 111.591 133.459 111.388 132.846 110.982C132.234 110.577 131.846 109.984 131.683 109.204L133.019 108.87C133.146 109.364 133.387 109.733 133.741 109.98C134.099 110.227 134.566 110.35 135.143 110.35C135.799 110.35 136.32 110.211 136.706 109.932C137.096 109.65 137.291 109.312 137.291 108.918C137.291 108.6 137.179 108.333 136.957 108.119C136.734 107.9 136.392 107.737 135.93 107.629L134.403 107.271C133.564 107.073 132.948 106.764 132.554 106.347C132.164 105.925 131.969 105.398 131.969 104.766C131.969 104.249 132.114 103.791 132.405 103.394C132.699 102.996 133.099 102.684 133.604 102.457C134.113 102.23 134.69 102.117 135.334 102.117C136.241 102.117 136.953 102.316 137.47 102.714C137.991 103.111 138.361 103.636 138.579 104.289ZM140.866 111.4V102.236H142.274V111.4H140.866ZM141.582 100.709C141.307 100.709 141.071 100.616 140.872 100.429C140.677 100.242 140.579 100.017 140.579 99.7544C140.579 99.4919 140.677 99.2672 140.872 99.0803C141.071 98.8934 141.307 98.7999 141.582 98.7999C141.856 98.7999 142.091 98.8934 142.286 99.0803C142.485 99.2672 142.584 99.4919 142.584 99.7544C142.584 100.017 142.485 100.242 142.286 100.429C142.091 100.616 141.856 100.709 141.582 100.709ZM145.903 102.236L148.098 105.983L150.293 102.236H151.916L148.957 106.818L151.916 111.4H150.293L148.098 107.844L145.903 111.4H144.28L147.191 106.818L144.28 102.236H145.903ZM160.058 105.887V111.4H158.65V99.1817H160.058V103.668H160.177C160.392 103.195 160.714 102.819 161.144 102.541C161.577 102.258 162.154 102.117 162.874 102.117C163.498 102.117 164.045 102.242 164.515 102.493C164.984 102.739 165.348 103.119 165.606 103.632C165.869 104.141 166 104.79 166 105.577V111.4H164.592V105.673C164.592 104.945 164.403 104.382 164.025 103.984C163.652 103.583 163.133 103.382 162.468 103.382C162.007 103.382 161.593 103.479 161.227 103.674C160.865 103.869 160.579 104.153 160.368 104.527C160.162 104.901 160.058 105.354 160.058 105.887ZM174.351 107.653V102.236H175.759V111.4H174.351V109.849H174.255C174.041 110.314 173.707 110.71 173.253 111.036C172.8 111.358 172.227 111.519 171.535 111.519C170.962 111.519 170.453 111.394 170.008 111.143C169.562 110.889 169.212 110.507 168.958 109.998C168.703 109.485 168.576 108.839 168.576 108.059V102.236H169.984V107.964C169.984 108.632 170.171 109.165 170.545 109.562C170.923 109.96 171.404 110.159 171.988 110.159C172.338 110.159 172.694 110.07 173.056 109.891C173.422 109.712 173.728 109.437 173.975 109.067C174.226 108.697 174.351 108.226 174.351 107.653ZM179.746 105.887V111.4H178.338V102.236H179.698V103.668H179.817C180.032 103.203 180.358 102.829 180.796 102.546C181.233 102.26 181.798 102.117 182.49 102.117C183.11 102.117 183.653 102.244 184.119 102.499C184.584 102.749 184.946 103.131 185.204 103.644C185.463 104.153 185.592 104.798 185.592 105.577V111.4H184.184V105.673C184.184 104.953 183.997 104.392 183.623 103.99C183.25 103.585 182.737 103.382 182.084 103.382C181.635 103.382 181.233 103.479 180.879 103.674C180.529 103.869 180.253 104.153 180.05 104.527C179.847 104.901 179.746 105.354 179.746 105.887ZM191.625 111.591C190.862 111.591 190.187 111.398 189.603 111.012C189.018 110.622 188.561 110.073 188.231 109.366C187.901 108.654 187.735 107.812 187.735 106.842C187.735 105.879 187.901 105.044 188.231 104.336C188.561 103.628 189.02 103.081 189.609 102.696C190.197 102.31 190.878 102.117 191.649 102.117C192.246 102.117 192.717 102.216 193.063 102.415C193.413 102.61 193.679 102.833 193.862 103.083C194.049 103.33 194.195 103.533 194.298 103.692H194.417V99.1817H195.825V111.4H194.465V109.992H194.298C194.195 110.159 194.047 110.37 193.856 110.624C193.666 110.875 193.393 111.1 193.039 111.298C192.685 111.493 192.214 111.591 191.625 111.591ZM191.816 110.326C192.381 110.326 192.858 110.179 193.248 109.885C193.638 109.586 193.934 109.175 194.137 108.65C194.34 108.121 194.441 107.51 194.441 106.818C194.441 106.134 194.342 105.535 194.143 105.022C193.944 104.505 193.65 104.104 193.26 103.817C192.87 103.527 192.389 103.382 191.816 103.382C191.22 103.382 190.722 103.535 190.325 103.841C189.931 104.143 189.635 104.555 189.436 105.076C189.241 105.593 189.143 106.174 189.143 106.818C189.143 107.47 189.243 108.063 189.442 108.596C189.645 109.125 189.943 109.546 190.337 109.861C190.734 110.171 191.228 110.326 191.816 110.326ZM198.599 111.4V102.236H199.96V103.62H200.055C200.222 103.167 200.524 102.799 200.962 102.517C201.399 102.234 201.893 102.093 202.441 102.093C202.545 102.093 202.674 102.095 202.829 102.099C202.984 102.103 203.102 102.109 203.181 102.117V103.549C203.133 103.537 203.024 103.519 202.853 103.495C202.686 103.467 202.509 103.453 202.322 103.453C201.877 103.453 201.479 103.547 201.129 103.734C200.783 103.917 200.508 104.171 200.306 104.497C200.107 104.82 200.007 105.187 200.007 105.601V111.4H198.599ZM208.413 111.591C207.53 111.591 206.769 111.396 206.128 111.006C205.492 110.612 205.001 110.064 204.655 109.36C204.313 108.652 204.142 107.828 204.142 106.89C204.142 105.951 204.313 105.124 204.655 104.408C205.001 103.688 205.482 103.127 206.099 102.725C206.719 102.32 207.443 102.117 208.27 102.117C208.747 102.117 209.219 102.196 209.684 102.356C210.149 102.515 210.573 102.773 210.955 103.131C211.337 103.485 211.641 103.954 211.868 104.539C212.094 105.124 212.208 105.844 212.208 106.699V107.295H205.144V106.078H210.776C210.776 105.561 210.672 105.1 210.466 104.694C210.263 104.289 209.972 103.968 209.595 103.734C209.221 103.499 208.779 103.382 208.27 103.382C207.709 103.382 207.224 103.521 206.814 103.799C206.409 104.074 206.097 104.432 205.878 104.873C205.659 105.315 205.55 105.788 205.55 106.293V107.104C205.55 107.796 205.669 108.383 205.908 108.864C206.15 109.342 206.486 109.706 206.916 109.956C207.345 110.203 207.845 110.326 208.413 110.326C208.783 110.326 209.117 110.274 209.416 110.171C209.718 110.064 209.978 109.904 210.197 109.694C210.416 109.479 210.585 109.212 210.704 108.894L212.064 109.276C211.921 109.737 211.681 110.143 211.343 110.493C211.004 110.839 210.587 111.11 210.09 111.304C209.593 111.495 209.034 111.591 208.413 111.591ZM217.81 111.591C217.046 111.591 216.372 111.398 215.787 111.012C215.202 110.622 214.745 110.073 214.415 109.366C214.085 108.654 213.92 107.812 213.92 106.842C213.92 105.879 214.085 105.044 214.415 104.336C214.745 103.628 215.204 103.081 215.793 102.696C216.382 102.31 217.062 102.117 217.833 102.117C218.43 102.117 218.901 102.216 219.247 102.415C219.597 102.61 219.864 102.833 220.047 103.083C220.234 103.33 220.379 103.533 220.482 103.692H220.602V99.1817H222.01V111.4H220.649V109.992H220.482C220.379 110.159 220.232 110.37 220.041 110.624C219.85 110.875 219.577 111.1 219.224 111.298C218.87 111.493 218.398 111.591 217.81 111.591ZM218.001 110.326C218.565 110.326 219.043 110.179 219.432 109.885C219.822 109.586 220.118 109.175 220.321 108.65C220.524 108.121 220.626 107.51 220.626 106.818C220.626 106.134 220.526 105.535 220.327 105.022C220.128 104.505 219.834 104.104 219.444 103.817C219.054 103.527 218.573 103.382 218.001 103.382C217.404 103.382 216.907 103.535 216.509 103.841C216.115 104.143 215.819 104.555 215.62 105.076C215.425 105.593 215.328 106.174 215.328 106.818C215.328 107.47 215.427 108.063 215.626 108.596C215.829 109.125 216.127 109.546 216.521 109.861C216.919 110.171 217.412 110.326 218.001 110.326ZM232.205 111.615C231.625 111.615 231.098 111.505 230.624 111.287C230.151 111.064 229.775 110.744 229.497 110.326C229.218 109.904 229.079 109.395 229.079 108.799C229.079 108.274 229.183 107.848 229.389 107.522C229.596 107.192 229.873 106.933 230.219 106.746C230.565 106.56 230.947 106.42 231.364 106.329C231.786 106.233 232.209 106.158 232.635 106.102C233.192 106.031 233.643 105.977 233.989 105.941C234.339 105.901 234.594 105.836 234.753 105.744C234.916 105.653 234.997 105.494 234.997 105.267V105.219C234.997 104.631 234.836 104.173 234.514 103.847C234.196 103.521 233.713 103.358 233.064 103.358C232.392 103.358 231.865 103.505 231.483 103.799C231.102 104.094 230.833 104.408 230.678 104.742L229.342 104.265C229.58 103.708 229.899 103.274 230.296 102.964C230.698 102.65 231.135 102.431 231.609 102.308C232.086 102.181 232.555 102.117 233.017 102.117C233.311 102.117 233.649 102.153 234.031 102.224C234.417 102.292 234.789 102.433 235.147 102.648C235.508 102.863 235.809 103.187 236.047 103.62C236.286 104.054 236.405 104.635 236.405 105.362V111.4H234.997V110.159H234.926C234.83 110.358 234.671 110.571 234.449 110.797C234.226 111.024 233.929 111.217 233.56 111.376C233.19 111.535 232.738 111.615 232.205 111.615ZM232.42 110.35C232.977 110.35 233.446 110.241 233.828 110.022C234.214 109.803 234.504 109.521 234.699 109.175C234.898 108.829 234.997 108.465 234.997 108.083V106.794C234.938 106.866 234.806 106.931 234.604 106.991C234.405 107.047 234.174 107.096 233.912 107.14C233.653 107.18 233.401 107.216 233.154 107.248C232.911 107.275 232.714 107.299 232.563 107.319C232.197 107.367 231.855 107.445 231.537 107.552C231.223 107.655 230.968 107.812 230.774 108.023C230.583 108.23 230.487 108.512 230.487 108.87C230.487 109.36 230.668 109.729 231.03 109.98C231.396 110.227 231.859 110.35 232.42 110.35ZM240.383 105.887V111.4H238.975V102.236H240.335V103.668H240.455C240.669 103.203 240.996 102.829 241.433 102.546C241.871 102.26 242.435 102.117 243.127 102.117C243.748 102.117 244.291 102.244 244.756 102.499C245.221 102.749 245.583 103.131 245.842 103.644C246.1 104.153 246.23 104.798 246.23 105.577V111.4H244.822V105.673C244.822 104.953 244.635 104.392 244.261 103.99C243.887 103.585 243.374 103.382 242.722 103.382C242.272 103.382 241.871 103.479 241.517 103.674C241.167 103.869 240.89 104.153 240.687 104.527C240.485 104.901 240.383 105.354 240.383 105.887ZM252.263 111.591C251.499 111.591 250.825 111.398 250.24 111.012C249.656 110.622 249.198 110.073 248.868 109.366C248.538 108.654 248.373 107.812 248.373 106.842C248.373 105.879 248.538 105.044 248.868 104.336C249.198 103.628 249.658 103.081 250.246 102.696C250.835 102.31 251.515 102.117 252.287 102.117C252.883 102.117 253.354 102.216 253.701 102.415C254.051 102.61 254.317 102.833 254.5 103.083C254.687 103.33 254.832 103.533 254.935 103.692H255.055V99.1817H256.463V111.4H255.102V109.992H254.935C254.832 110.159 254.685 110.37 254.494 110.624C254.303 110.875 254.031 111.1 253.677 111.298C253.323 111.493 252.851 111.591 252.263 111.591ZM252.454 110.326C253.018 110.326 253.496 110.179 253.885 109.885C254.275 109.586 254.572 109.175 254.774 108.65C254.977 108.121 255.079 107.51 255.079 106.818C255.079 106.134 254.979 105.535 254.78 105.022C254.581 104.505 254.287 104.104 253.897 103.817C253.508 103.527 253.026 103.382 252.454 103.382C251.857 103.382 251.36 103.535 250.962 103.841C250.568 104.143 250.272 104.555 250.073 105.076C249.878 105.593 249.781 106.174 249.781 106.818C249.781 107.47 249.88 108.063 250.079 108.596C250.282 109.125 250.58 109.546 250.974 109.861C251.372 110.171 251.865 110.326 252.454 110.326ZM267.947 102.236V103.429H263.198V102.236H267.947ZM264.582 100.041H265.99V108.775C265.99 109.173 266.048 109.471 266.163 109.67C266.283 109.865 266.434 109.996 266.617 110.064C266.804 110.127 267.001 110.159 267.207 110.159C267.362 110.159 267.49 110.151 267.589 110.135C267.689 110.115 267.768 110.099 267.828 110.087L268.114 111.352C268.019 111.388 267.885 111.424 267.714 111.46C267.543 111.499 267.327 111.519 267.064 111.519C266.666 111.519 266.277 111.434 265.895 111.263C265.517 111.092 265.203 110.831 264.952 110.481C264.706 110.131 264.582 109.69 264.582 109.157V100.041ZM272.141 111.4L269.349 102.236H270.829L272.809 109.252H272.905L274.862 102.236H276.365L278.298 109.228H278.393L280.374 102.236H281.854L279.062 111.4H277.678L275.673 104.36H275.53L273.525 111.4H272.141ZM287.126 111.591C286.299 111.591 285.573 111.394 284.948 111C284.328 110.606 283.843 110.056 283.493 109.348C283.147 108.64 282.974 107.812 282.974 106.866C282.974 105.911 283.147 105.078 283.493 104.366C283.843 103.654 284.328 103.101 284.948 102.708C285.573 102.314 286.299 102.117 287.126 102.117C287.953 102.117 288.677 102.314 289.298 102.708C289.922 103.101 290.407 103.654 290.753 104.366C291.103 105.078 291.278 105.911 291.278 106.866C291.278 107.812 291.103 108.64 290.753 109.348C290.407 110.056 289.922 110.606 289.298 111C288.677 111.394 287.953 111.591 287.126 111.591ZM287.126 110.326C287.754 110.326 288.271 110.165 288.677 109.843C289.083 109.521 289.383 109.097 289.578 108.572C289.773 108.047 289.87 107.478 289.87 106.866C289.87 106.253 289.773 105.683 289.578 105.154C289.383 104.625 289.083 104.197 288.677 103.871C288.271 103.545 287.754 103.382 287.126 103.382C286.498 103.382 285.981 103.545 285.575 103.871C285.169 104.197 284.869 104.625 284.674 105.154C284.479 105.683 284.382 106.253 284.382 106.866C284.382 107.478 284.479 108.047 284.674 108.572C284.869 109.097 285.169 109.521 285.575 109.843C285.981 110.165 286.498 110.326 287.126 110.326Z" fill="black"/>
<rect x="156" y="122" width="70" height="18.2" fill="#EBACAC"/>
<rect x="128" y="122" width="25.2" height="18.2" fill="#EBD5AC"/>
<path d="M138.579 129.489L137.315 129.847C137.235 129.636 137.118 129.431 136.963 129.232C136.811 129.029 136.605 128.862 136.342 128.731C136.08 128.6 135.744 128.534 135.334 128.534C134.773 128.534 134.306 128.663 133.932 128.922C133.562 129.177 133.377 129.501 133.377 129.894C133.377 130.244 133.504 130.521 133.759 130.724C134.013 130.927 134.411 131.096 134.952 131.231L136.312 131.565C137.132 131.764 137.742 132.068 138.144 132.478C138.546 132.883 138.746 133.406 138.746 134.047C138.746 134.572 138.595 135.041 138.293 135.455C137.995 135.868 137.577 136.194 137.04 136.433C136.503 136.672 135.879 136.791 135.167 136.791C134.232 136.791 133.459 136.588 132.846 136.182C132.234 135.777 131.846 135.184 131.683 134.405L133.019 134.071C133.146 134.564 133.387 134.934 133.741 135.18C134.099 135.427 134.566 135.55 135.143 135.55C135.799 135.55 136.32 135.411 136.706 135.132C137.096 134.85 137.291 134.512 137.291 134.118C137.291 133.8 137.179 133.534 136.957 133.319C136.734 133.1 136.392 132.937 135.93 132.83L134.403 132.472C133.564 132.273 132.948 131.965 132.554 131.547C132.164 131.125 131.969 130.598 131.969 129.966C131.969 129.449 132.114 128.992 132.405 128.594C132.699 128.196 133.099 127.884 133.604 127.657C134.113 127.43 134.69 127.317 135.334 127.317C136.241 127.317 136.953 127.516 137.47 127.914C137.991 128.311 138.361 128.836 138.579 129.489ZM140.866 136.6V127.436H142.274V136.6H140.866ZM141.582 125.909C141.307 125.909 141.071 125.816 140.872 125.629C140.677 125.442 140.579 125.217 140.579 124.955C140.579 124.692 140.677 124.467 140.872 124.28C141.071 124.094 141.307 124 141.582 124C141.856 124 142.091 124.094 142.286 124.28C142.485 124.467 142.584 124.692 142.584 124.955C142.584 125.217 142.485 125.442 142.286 125.629C142.091 125.816 141.856 125.909 141.582 125.909ZM145.903 127.436L148.098 131.183L150.293 127.436H151.916L148.957 132.018L151.916 136.6H150.293L148.098 133.044L145.903 136.6H144.28L147.191 132.018L144.28 127.436H145.903ZM160.058 131.088V136.6H158.65V124.382H160.058V128.868H160.177C160.392 128.395 160.714 128.019 161.144 127.741C161.577 127.458 162.154 127.317 162.874 127.317C163.498 127.317 164.045 127.442 164.515 127.693C164.984 127.94 165.348 128.319 165.606 128.832C165.869 129.342 166 129.99 166 130.777V136.6H164.592V130.873C164.592 130.145 164.403 129.582 164.025 129.184C163.652 128.783 163.133 128.582 162.468 128.582C162.007 128.582 161.593 128.679 161.227 128.874C160.865 129.069 160.579 129.354 160.368 129.727C160.162 130.101 160.058 130.555 160.058 131.088ZM174.351 132.854V127.436H175.759V136.6H174.351V135.049H174.255C174.041 135.514 173.707 135.91 173.253 136.236C172.8 136.558 172.227 136.719 171.535 136.719C170.962 136.719 170.453 136.594 170.008 136.344C169.562 136.089 169.212 135.707 168.958 135.198C168.703 134.685 168.576 134.039 168.576 133.259V127.436H169.984V133.164C169.984 133.832 170.171 134.365 170.545 134.763C170.923 135.16 171.404 135.359 171.988 135.359C172.338 135.359 172.694 135.27 173.056 135.091C173.422 134.912 173.728 134.637 173.975 134.267C174.226 133.898 174.351 133.426 174.351 132.854ZM179.746 131.088V136.6H178.338V127.436H179.698V128.868H179.817C180.032 128.403 180.358 128.029 180.796 127.747C181.233 127.46 181.798 127.317 182.49 127.317C183.11 127.317 183.653 127.444 184.119 127.699C184.584 127.95 184.946 128.331 185.204 128.844C185.463 129.354 185.592 129.998 185.592 130.777V136.6H184.184V130.873C184.184 130.153 183.997 129.592 183.623 129.19C183.25 128.785 182.737 128.582 182.084 128.582C181.635 128.582 181.233 128.679 180.879 128.874C180.529 129.069 180.253 129.354 180.05 129.727C179.847 130.101 179.746 130.555 179.746 131.088ZM191.625 136.791C190.862 136.791 190.187 136.598 189.603 136.212C189.018 135.823 188.561 135.274 188.231 134.566C187.901 133.854 187.735 133.013 187.735 132.042C187.735 131.08 187.901 130.244 188.231 129.536C188.561 128.829 189.02 128.282 189.609 127.896C190.197 127.51 190.878 127.317 191.649 127.317C192.246 127.317 192.717 127.417 193.063 127.615C193.413 127.81 193.679 128.033 193.862 128.284C194.049 128.53 194.195 128.733 194.298 128.892H194.417V124.382H195.825V136.6H194.465V135.192H194.298C194.195 135.359 194.047 135.57 193.856 135.825C193.666 136.075 193.393 136.3 193.039 136.499C192.685 136.694 192.214 136.791 191.625 136.791ZM191.816 135.526C192.381 135.526 192.858 135.379 193.248 135.085C193.638 134.786 193.934 134.375 194.137 133.85C194.34 133.321 194.441 132.71 194.441 132.018C194.441 131.334 194.342 130.736 194.143 130.223C193.944 129.705 193.65 129.304 193.26 129.017C192.87 128.727 192.389 128.582 191.816 128.582C191.22 128.582 190.722 128.735 190.325 129.041C189.931 129.344 189.635 129.755 189.436 130.276C189.241 130.793 189.143 131.374 189.143 132.018C189.143 132.671 189.243 133.263 189.442 133.796C189.645 134.325 189.943 134.747 190.337 135.061C190.734 135.371 191.228 135.526 191.816 135.526ZM198.599 136.6V127.436H199.96V128.821H200.055C200.222 128.367 200.524 127.999 200.962 127.717C201.399 127.434 201.893 127.293 202.441 127.293C202.545 127.293 202.674 127.295 202.829 127.299C202.984 127.303 203.102 127.309 203.181 127.317V128.749C203.133 128.737 203.024 128.719 202.853 128.695C202.686 128.667 202.509 128.654 202.322 128.654C201.877 128.654 201.479 128.747 201.129 128.934C200.783 129.117 200.508 129.371 200.306 129.698C200.107 130.02 200.007 130.388 200.007 130.801V136.6H198.599ZM208.413 136.791C207.53 136.791 206.769 136.596 206.128 136.206C205.492 135.813 205.001 135.264 204.655 134.56C204.313 133.852 204.142 133.029 204.142 132.09C204.142 131.151 204.313 130.324 204.655 129.608C205.001 128.888 205.482 128.327 206.099 127.926C206.719 127.52 207.443 127.317 208.27 127.317C208.747 127.317 209.219 127.397 209.684 127.556C210.149 127.715 210.573 127.973 210.955 128.331C211.337 128.685 211.641 129.155 211.868 129.739C212.094 130.324 212.208 131.044 212.208 131.899V132.496H205.144V131.279H210.776C210.776 130.761 210.672 130.3 210.466 129.894C210.263 129.489 209.972 129.169 209.595 128.934C209.221 128.699 208.779 128.582 208.27 128.582C207.709 128.582 207.224 128.721 206.814 129C206.409 129.274 206.097 129.632 205.878 130.073C205.659 130.515 205.55 130.988 205.55 131.493V132.305C205.55 132.997 205.669 133.583 205.908 134.065C206.15 134.542 206.486 134.906 206.916 135.156C207.345 135.403 207.845 135.526 208.413 135.526C208.783 135.526 209.117 135.475 209.416 135.371C209.718 135.264 209.978 135.105 210.197 134.894C210.416 134.679 210.585 134.413 210.704 134.094L212.064 134.476C211.921 134.938 211.681 135.343 211.343 135.693C211.004 136.039 210.587 136.31 210.09 136.505C209.593 136.696 209.034 136.791 208.413 136.791ZM217.81 136.791C217.046 136.791 216.372 136.598 215.787 136.212C215.202 135.823 214.745 135.274 214.415 134.566C214.085 133.854 213.92 133.013 213.92 132.042C213.92 131.08 214.085 130.244 214.415 129.536C214.745 128.829 215.204 128.282 215.793 127.896C216.382 127.51 217.062 127.317 217.833 127.317C218.43 127.317 218.901 127.417 219.247 127.615C219.597 127.81 219.864 128.033 220.047 128.284C220.234 128.53 220.379 128.733 220.482 128.892H220.602V124.382H222.01V136.6H220.649V135.192H220.482C220.379 135.359 220.232 135.57 220.041 135.825C219.85 136.075 219.577 136.3 219.224 136.499C218.87 136.694 218.398 136.791 217.81 136.791ZM218.001 135.526C218.565 135.526 219.043 135.379 219.432 135.085C219.822 134.786 220.118 134.375 220.321 133.85C220.524 133.321 220.626 132.71 220.626 132.018C220.626 131.334 220.526 130.736 220.327 130.223C220.128 129.705 219.834 129.304 219.444 129.017C219.054 128.727 218.573 128.582 218.001 128.582C217.404 128.582 216.907 128.735 216.509 129.041C216.115 129.344 215.819 129.755 215.62 130.276C215.425 130.793 215.328 131.374 215.328 132.018C215.328 132.671 215.427 133.263 215.626 133.796C215.829 134.325 216.127 134.747 216.521 135.061C216.919 135.371 217.412 135.526 218.001 135.526Z" fill="black"/>
<rect x="164.4" y="161.2" width="36.4" height="18.2" fill="#EBACAC"/>
<rect x="319.8" y="161.2" width="42" height="18.2" fill="#EBACAC"/>
<rect x="136.4" y="161.2" width="16.8" height="18.2" fill="#EBD5AC"/>
<rect x="275" y="161.2" width="16.8" height="18.2" fill="#EBD5AC"/>
<path d="M129.79 169.691C129.79 168.187 129.985 166.805 130.374 165.544C130.768 164.28 131.329 163.116 132.057 162.054H133.298C133.011 162.448 132.743 162.933 132.492 163.51C132.246 164.083 132.029 164.713 131.842 165.401C131.655 166.085 131.508 166.793 131.401 167.525C131.297 168.257 131.245 168.979 131.245 169.691C131.245 170.637 131.337 171.598 131.52 172.572C131.703 173.547 131.949 174.452 132.26 175.287C132.57 176.122 132.916 176.802 133.298 177.327H132.057C131.329 176.265 130.768 175.104 130.374 173.843C129.985 172.578 129.79 171.194 129.79 169.691ZM144.133 175.967C143.632 175.959 143.131 175.863 142.63 175.68C142.129 175.498 141.671 175.189 141.258 174.756C140.844 174.318 140.512 173.728 140.261 172.984C140.011 172.236 139.886 171.298 139.886 170.168C139.886 169.086 139.987 168.128 140.19 167.292C140.393 166.453 140.687 165.747 141.073 165.175C141.459 164.598 141.924 164.16 142.469 163.862C143.018 163.564 143.636 163.415 144.324 163.415C145.008 163.415 145.617 163.552 146.15 163.826C146.687 164.097 147.124 164.475 147.462 164.96C147.8 165.445 148.019 166.004 148.119 166.636H146.663C146.528 166.087 146.265 165.632 145.875 165.27C145.486 164.908 144.969 164.727 144.324 164.727C143.378 164.727 142.632 165.139 142.087 165.962C141.546 166.785 141.274 167.941 141.27 169.428H141.365C141.588 169.09 141.852 168.802 142.159 168.563C142.469 168.321 142.811 168.134 143.185 168.002C143.559 167.871 143.954 167.805 144.372 167.805C145.072 167.805 145.712 167.98 146.293 168.33C146.874 168.677 147.339 169.156 147.689 169.768C148.039 170.377 148.214 171.075 148.214 171.862C148.214 172.618 148.045 173.31 147.707 173.938C147.369 174.563 146.894 175.06 146.281 175.43C145.673 175.796 144.957 175.975 144.133 175.967ZM144.133 174.654C144.634 174.654 145.084 174.529 145.482 174.278C145.883 174.028 146.2 173.692 146.43 173.27C146.665 172.849 146.782 172.379 146.782 171.862C146.782 171.357 146.669 170.898 146.442 170.484C146.219 170.067 145.911 169.734 145.517 169.488C145.128 169.241 144.682 169.118 144.181 169.118C143.803 169.118 143.451 169.194 143.125 169.345C142.799 169.492 142.513 169.695 142.266 169.953C142.023 170.212 141.832 170.508 141.693 170.842C141.554 171.172 141.484 171.52 141.484 171.886C141.484 172.371 141.598 172.825 141.825 173.246C142.055 173.668 142.369 174.008 142.767 174.267C143.169 174.525 143.624 174.654 144.133 174.654ZM157.648 173.127L157.743 170.502L155.524 171.91L154.951 170.908L157.29 169.691L154.951 168.474L155.524 167.471L157.743 168.879L157.648 166.254H158.793L158.698 168.879L160.917 167.471L161.49 168.474L159.151 169.691L161.49 170.908L160.917 171.91L158.698 170.502L158.793 173.127H157.648ZM172.706 163.582V175.8H171.226V165.133H171.154L168.171 167.113V165.61L171.226 163.582H172.706ZM180.205 175.967C179.306 175.967 178.54 175.722 177.908 175.233C177.275 174.74 176.792 174.026 176.458 173.091C176.124 172.153 175.957 171.019 175.957 169.691C175.957 168.37 176.124 167.243 176.458 166.308C176.796 165.369 177.281 164.653 177.914 164.16C178.55 163.663 179.314 163.415 180.205 163.415C181.096 163.415 181.857 163.663 182.49 164.16C183.126 164.653 183.611 165.369 183.945 166.308C184.283 167.243 184.452 168.37 184.452 169.691C184.452 171.019 184.285 172.153 183.951 173.091C183.617 174.026 183.134 174.74 182.502 175.233C181.869 175.722 181.104 175.967 180.205 175.967ZM180.205 174.654C181.096 174.654 181.788 174.225 182.281 173.366C182.774 172.507 183.021 171.282 183.021 169.691C183.021 168.633 182.907 167.732 182.681 166.988C182.458 166.244 182.136 165.678 181.714 165.288C181.296 164.898 180.793 164.703 180.205 164.703C179.322 164.703 178.632 165.139 178.135 166.01C177.637 166.877 177.389 168.104 177.389 169.691C177.389 170.749 177.5 171.648 177.723 172.387C177.946 173.127 178.266 173.69 178.683 174.076C179.105 174.461 179.612 174.654 180.205 174.654ZM190.705 175.967C189.806 175.967 189.04 175.722 188.408 175.233C187.775 174.74 187.292 174.026 186.958 173.091C186.624 172.153 186.457 171.019 186.457 169.691C186.457 168.37 186.624 167.243 186.958 166.308C187.296 165.369 187.781 164.653 188.414 164.16C189.05 163.663 189.814 163.415 190.705 163.415C191.596 163.415 192.357 163.663 192.99 164.16C193.626 164.653 194.111 165.369 194.445 166.308C194.783 167.243 194.952 168.37 194.952 169.691C194.952 171.019 194.785 172.153 194.451 173.091C194.117 174.026 193.634 174.74 193.002 175.233C192.369 175.722 191.604 175.967 190.705 175.967ZM190.705 174.654C191.596 174.654 192.288 174.225 192.781 173.366C193.274 172.507 193.521 171.282 193.521 169.691C193.521 168.633 193.407 167.732 193.181 166.988C192.958 166.244 192.636 165.678 192.214 165.288C191.796 164.898 191.293 164.703 190.705 164.703C189.822 164.703 189.132 165.139 188.635 166.01C188.137 166.877 187.889 168.104 187.889 169.691C187.889 170.749 188 171.648 188.223 172.387C188.446 173.127 188.766 173.69 189.183 174.076C189.605 174.461 190.112 174.654 190.705 174.654ZM248.073 174.965V167.09H249.409V174.965H248.073ZM244.804 171.695V170.359H252.679V171.695H244.804ZM279.169 175.8V174.726L283.202 170.311C283.675 169.794 284.065 169.345 284.371 168.963C284.677 168.577 284.904 168.215 285.051 167.877C285.202 167.535 285.278 167.177 285.278 166.803C285.278 166.374 285.174 166.002 284.968 165.688C284.765 165.373 284.486 165.131 284.132 164.96C283.778 164.789 283.381 164.703 282.939 164.703C282.47 164.703 282.06 164.801 281.71 164.996C281.364 165.186 281.096 165.455 280.905 165.801C280.718 166.147 280.624 166.553 280.624 167.018H279.216C279.216 166.302 279.381 165.674 279.712 165.133C280.042 164.592 280.491 164.17 281.06 163.868C281.633 163.566 282.275 163.415 282.987 163.415C283.703 163.415 284.337 163.566 284.89 163.868C285.443 164.17 285.876 164.578 286.191 165.091C286.505 165.604 286.662 166.175 286.662 166.803C286.662 167.253 286.58 167.692 286.417 168.122C286.258 168.547 285.98 169.023 285.582 169.548C285.188 170.069 284.641 170.705 283.941 171.457L281.197 174.392V174.487H286.877V175.8H279.169ZM301.821 169.691C301.821 171.194 301.624 172.578 301.231 173.843C300.841 175.104 300.282 176.265 299.554 177.327H298.313C298.6 176.933 298.866 176.448 299.113 175.871C299.363 175.299 299.582 174.67 299.769 173.986C299.956 173.298 300.101 172.588 300.204 171.856C300.312 171.121 300.366 170.399 300.366 169.691C300.366 168.744 300.274 167.784 300.091 166.809C299.908 165.835 299.662 164.93 299.351 164.095C299.041 163.259 298.695 162.579 298.313 162.054H299.554C300.282 163.116 300.841 164.28 301.231 165.544C301.624 166.805 301.821 168.187 301.821 169.691ZM311.965 170.454L312.06 167.829L309.841 169.237L309.268 168.235L311.607 167.018L309.268 165.801L309.841 164.799L312.06 166.207L311.965 163.582H313.11L313.015 166.207L315.234 164.799L315.807 165.801L313.468 167.018L315.807 168.235L315.234 169.237L313.015 167.829L313.11 170.454H311.965ZM327.023 163.582V175.8H325.543V165.133H325.472L322.489 167.113V165.61L325.543 163.582H327.023ZM334.522 175.967C333.623 175.967 332.857 175.722 332.225 175.233C331.593 174.74 331.109 174.026 330.775 173.091C330.441 172.153 330.274 171.019 330.274 169.691C330.274 168.37 330.441 167.243 330.775 166.308C331.113 165.369 331.599 164.653 332.231 164.16C332.867 163.663 333.631 163.415 334.522 163.415C335.413 163.415 336.174 163.663 336.807 164.16C337.443 164.653 337.928 165.369 338.262 166.308C338.601 167.243 338.77 168.37 338.77 169.691C338.77 171.019 338.603 172.153 338.268 173.091C337.934 174.026 337.451 174.74 336.819 175.233C336.186 175.722 335.421 175.967 334.522 175.967ZM334.522 174.654C335.413 174.654 336.105 174.225 336.598 173.366C337.091 172.507 337.338 171.282 337.338 169.691C337.338 168.633 337.224 167.732 336.998 166.988C336.775 166.244 336.453 165.678 336.031 165.288C335.614 164.898 335.111 164.703 334.522 164.703C333.639 164.703 332.949 165.139 332.452 166.01C331.955 166.877 331.706 168.104 331.706 169.691C331.706 170.749 331.817 171.648 332.04 172.387C332.263 173.127 332.583 173.69 333.001 174.076C333.422 174.461 333.929 174.654 334.522 174.654ZM345.022 175.967C344.123 175.967 343.357 175.722 342.725 175.233C342.093 174.74 341.609 174.026 341.275 173.091C340.941 172.153 340.774 171.019 340.774 169.691C340.774 168.37 340.941 167.243 341.275 166.308C341.613 165.369 342.099 164.653 342.731 164.16C343.367 163.663 344.131 163.415 345.022 163.415C345.913 163.415 346.674 163.663 347.307 164.16C347.943 164.653 348.428 165.369 348.762 166.308C349.101 167.243 349.27 168.37 349.27 169.691C349.27 171.019 349.103 172.153 348.768 173.091C348.434 174.026 347.951 174.74 347.319 175.233C346.686 175.722 345.921 175.967 345.022 175.967ZM345.022 174.654C345.913 174.654 346.605 174.225 347.098 173.366C347.591 172.507 347.838 171.282 347.838 169.691C347.838 168.633 347.724 167.732 347.498 166.988C347.275 166.244 346.953 165.678 346.531 165.288C346.114 164.898 345.611 164.703 345.022 164.703C344.139 164.703 343.449 165.139 342.952 166.01C342.455 166.877 342.206 168.104 342.206 169.691C342.206 170.749 342.317 171.648 342.54 172.387C342.763 173.127 343.083 173.69 343.501 174.076C343.922 174.461 344.429 174.654 345.022 174.654ZM355.522 175.967C354.623 175.967 353.857 175.722 353.225 175.233C352.593 174.74 352.109 174.026 351.775 173.091C351.441 172.153 351.274 171.019 351.274 169.691C351.274 168.37 351.441 167.243 351.775 166.308C352.113 165.369 352.599 164.653 353.231 164.16C353.867 163.663 354.631 163.415 355.522 163.415C356.413 163.415 357.174 163.663 357.807 164.16C358.443 164.653 358.928 165.369 359.262 166.308C359.601 167.243 359.77 168.37 359.77 169.691C359.77 171.019 359.603 172.153 359.268 173.091C358.934 174.026 358.451 174.74 357.819 175.233C357.186 175.722 356.421 175.967 355.522 175.967ZM355.522 174.654C356.413 174.654 357.105 174.225 357.598 173.366C358.091 172.507 358.338 171.282 358.338 169.691C358.338 168.633 358.224 167.732 357.998 166.988C357.775 166.244 357.453 165.678 357.031 165.288C356.614 164.898 356.111 164.703 355.522 164.703C354.639 164.703 353.949 165.139 353.452 166.01C352.955 166.877 352.706 168.104 352.706 169.691C352.706 170.749 352.817 171.648 353.04 172.387C353.263 173.127 353.583 173.69 354.001 174.076C354.422 174.461 354.929 174.654 355.522 174.654Z" fill="black"/>
</svg>
