<svg width="500" height="150" viewBox="0 0 500 150" fill="none" xmlns="http://www.w3.org/2000/svg">
<rect width="500" height="150" fill="white"/>
<path d="M237.493 31.5455V49H233.803V35.0483H233.7L229.703 37.554V34.2812L234.024 31.5455H237.493ZM248.093 49.2386C246.82 49.2386 245.687 49.0199 244.692 48.5824C243.704 48.1392 242.923 47.5312 242.349 46.7585C241.781 45.9801 241.488 45.0824 241.471 44.0653H245.187C245.21 44.4915 245.349 44.8665 245.604 45.1903C245.866 45.5085 246.212 45.7557 246.644 45.9318C247.076 46.108 247.562 46.196 248.102 46.196C248.664 46.196 249.161 46.0966 249.593 45.8977C250.025 45.6989 250.363 45.4233 250.607 45.071C250.852 44.7187 250.974 44.3125 250.974 43.8523C250.974 43.3864 250.843 42.9744 250.582 42.6165C250.326 42.2528 249.957 41.9687 249.474 41.7642C248.996 41.5597 248.428 41.4574 247.769 41.4574H246.141V38.7472H247.769C248.326 38.7472 248.817 38.6506 249.244 38.4574C249.675 38.2642 250.011 37.9972 250.249 37.6562C250.488 37.3097 250.607 36.9062 250.607 36.446C250.607 36.0085 250.502 35.625 250.292 35.2955C250.087 34.9602 249.798 34.6989 249.423 34.5114C249.053 34.3239 248.621 34.2301 248.127 34.2301C247.627 34.2301 247.17 34.321 246.755 34.5028C246.34 34.679 246.008 34.9318 245.758 35.2614C245.508 35.5909 245.374 35.9773 245.357 36.4205H241.82C241.837 35.4148 242.124 34.5284 242.681 33.7614C243.238 32.9943 243.988 32.3949 244.931 31.9631C245.88 31.5256 246.951 31.3068 248.144 31.3068C249.349 31.3068 250.403 31.5256 251.306 31.9631C252.21 32.4006 252.911 32.9915 253.411 33.7358C253.917 34.4744 254.167 35.304 254.161 36.2244C254.167 37.2017 253.863 38.017 253.249 38.6705C252.641 39.3239 251.849 39.7386 250.871 39.9148V40.0511C252.156 40.2159 253.133 40.6619 253.803 41.3892C254.479 42.1108 254.815 43.0142 254.809 44.0994C254.815 45.0938 254.528 45.9773 253.948 46.75C253.374 47.5227 252.582 48.1307 251.57 48.5739C250.559 49.017 249.4 49.2386 248.093 49.2386ZM263.837 49.2386C262.632 49.2386 261.558 49.017 260.615 48.5739C259.678 48.1307 258.933 47.5199 258.382 46.7415C257.831 45.9631 257.544 45.071 257.521 44.0653H261.101C261.141 44.7415 261.425 45.2898 261.953 45.7102C262.482 46.1307 263.109 46.3409 263.837 46.3409C264.416 46.3409 264.928 46.2131 265.371 45.9574C265.82 45.696 266.169 45.3352 266.419 44.875C266.675 44.4091 266.803 43.875 266.803 43.2727C266.803 42.6591 266.672 42.1193 266.411 41.6534C266.155 41.1875 265.8 40.8239 265.345 40.5625C264.891 40.3011 264.371 40.1676 263.786 40.1619C263.274 40.1619 262.777 40.267 262.294 40.4773C261.817 40.6875 261.445 40.9744 261.178 41.3381L257.896 40.75L258.723 31.5455H269.393V34.5625H261.766L261.314 38.9347H261.416C261.723 38.5028 262.186 38.1449 262.805 37.8608C263.425 37.5767 264.118 37.4347 264.885 37.4347C265.936 37.4347 266.874 37.6818 267.697 38.1761C268.521 38.6705 269.172 39.3494 269.649 40.2131C270.126 41.071 270.362 42.0597 270.357 43.179C270.362 44.3551 270.089 45.4006 269.538 46.3153C268.993 47.2244 268.229 47.9403 267.246 48.4631C266.268 48.9801 265.132 49.2386 263.837 49.2386Z" fill="black"/>
<path d="M192.416 86.1909C191.589 86.1909 190.863 85.994 190.238 85.6003C189.618 85.2065 189.133 84.6557 188.783 83.9477C188.437 83.2398 188.264 82.4125 188.264 81.4659C188.264 80.5114 188.437 79.6781 188.783 78.9662C189.133 78.2543 189.618 77.7014 190.238 77.3077C190.863 76.9139 191.589 76.717 192.416 76.717C193.243 76.717 193.967 76.9139 194.588 77.3077C195.212 77.7014 195.697 78.2543 196.043 78.9662C196.393 79.6781 196.568 80.5114 196.568 81.4659C196.568 82.4125 196.393 83.2398 196.043 83.9477C195.697 84.6557 195.212 85.2065 194.588 85.6003C193.967 85.994 193.243 86.1909 192.416 86.1909ZM192.416 84.9261C193.044 84.9261 193.562 84.7651 193.967 84.4429C194.373 84.1207 194.673 83.6972 194.868 83.1722C195.063 82.6472 195.16 82.0784 195.16 81.4659C195.16 80.8534 195.063 80.2827 194.868 79.7537C194.673 79.2247 194.373 78.7972 193.967 78.471C193.562 78.1449 193.044 77.9818 192.416 77.9818C191.788 77.9818 191.271 78.1449 190.865 78.471C190.459 78.7972 190.159 79.2247 189.964 79.7537C189.769 80.2827 189.672 80.8534 189.672 81.4659C189.672 82.0784 189.769 82.6472 189.964 83.1722C190.159 83.6972 190.459 84.1207 190.865 84.4429C191.271 84.7651 191.788 84.9261 192.416 84.9261ZM200.125 80.4875V86H198.718V76.8364H200.078V78.2682H200.197C200.412 77.8028 200.738 77.429 201.175 77.1466C201.613 76.8602 202.178 76.717 202.87 76.717C203.49 76.717 204.033 76.8443 204.499 77.0989C204.964 77.3494 205.326 77.7313 205.584 78.2443C205.843 78.7534 205.972 79.3977 205.972 80.1773V86H204.564V80.2727C204.564 79.5528 204.377 78.992 204.003 78.5903C203.629 78.1847 203.116 77.9818 202.464 77.9818C202.015 77.9818 201.613 78.0793 201.259 78.2741C200.909 78.469 200.633 78.7534 200.43 79.1273C200.227 79.5011 200.125 79.9545 200.125 80.4875ZM212.387 86.1909C211.504 86.1909 210.742 85.996 210.102 85.6063C209.466 85.2125 208.974 84.6636 208.628 83.9597C208.286 83.2517 208.115 82.4284 208.115 81.4898C208.115 80.5511 208.286 79.7239 208.628 79.008C208.974 78.2881 209.456 77.7273 210.072 77.3256C210.693 76.9199 211.416 76.717 212.244 76.717C212.721 76.717 213.192 76.7966 213.658 76.9557C214.123 77.1148 214.547 77.3733 214.928 77.7313C215.31 78.0852 215.614 78.5545 215.841 79.1392C216.068 79.7239 216.181 80.4437 216.181 81.2989V81.8955H209.118V80.6784H214.749C214.749 80.1614 214.646 79.7 214.439 79.2943C214.236 78.8886 213.946 78.5685 213.568 78.3338C213.194 78.0991 212.753 77.9818 212.244 77.9818C211.683 77.9818 211.198 78.121 210.788 78.3994C210.382 78.6739 210.07 79.0318 209.851 79.4733C209.633 79.9148 209.523 80.3881 209.523 80.8932V81.7045C209.523 82.3966 209.643 82.9832 209.881 83.4645C210.124 83.9418 210.46 84.3057 210.889 84.5563C211.319 84.8028 211.818 84.9261 212.387 84.9261C212.757 84.9261 213.091 84.8744 213.389 84.771C213.691 84.6636 213.952 84.5045 214.171 84.2938C214.389 84.079 214.559 83.8125 214.678 83.4943L216.038 83.8761C215.895 84.3375 215.654 84.7432 215.316 85.0932C214.978 85.4392 214.561 85.7097 214.063 85.9045C213.566 86.0955 213.007 86.1909 212.387 86.1909ZM227.033 76.8364V78.0295H222.284V76.8364H227.033ZM223.668 74.6409H225.076V83.375C225.076 83.7727 225.134 84.071 225.249 84.2699C225.369 84.4648 225.52 84.596 225.703 84.6636C225.89 84.7273 226.087 84.7591 226.293 84.7591C226.449 84.7591 226.576 84.7511 226.675 84.7352C226.775 84.7153 226.854 84.6994 226.914 84.6875L227.2 85.9523C227.105 85.9881 226.972 86.0239 226.801 86.0597C226.63 86.0994 226.413 86.1193 226.15 86.1193C225.753 86.1193 225.363 86.0338 224.981 85.8628C224.603 85.6918 224.289 85.4313 224.038 85.0813C223.792 84.7313 223.668 84.2898 223.668 83.7568V74.6409ZM230.756 80.4875V86H229.348V73.7818H230.756V78.2682H230.875C231.09 77.7949 231.412 77.419 231.842 77.1406C232.275 76.8582 232.852 76.717 233.572 76.717C234.196 76.717 234.743 76.8423 235.213 77.0929C235.682 77.3395 236.046 77.7193 236.304 78.2324C236.567 78.7415 236.698 79.3898 236.698 80.1773V86H235.29V80.2727C235.29 79.5449 235.101 78.9821 234.723 78.5844C234.349 78.1827 233.83 77.9818 233.166 77.9818C232.705 77.9818 232.291 78.0793 231.925 78.2741C231.563 78.469 231.277 78.7534 231.066 79.1273C230.859 79.5011 230.756 79.9545 230.756 80.4875ZM239.274 86V76.8364H240.634V78.2205H240.729C240.897 77.767 241.199 77.3991 241.636 77.1168C242.074 76.8344 242.567 76.6932 243.116 76.6932C243.219 76.6932 243.349 76.6952 243.504 76.6991C243.659 76.7031 243.776 76.7091 243.856 76.717V78.1489C243.808 78.1369 243.699 78.119 243.527 78.0952C243.36 78.0673 243.183 78.0534 242.997 78.0534C242.551 78.0534 242.153 78.1469 241.803 78.3338C241.457 78.5168 241.183 78.7713 240.98 79.0974C240.781 79.4196 240.682 79.7875 240.682 80.2011V86H239.274ZM249.088 86.1909C248.205 86.1909 247.443 85.996 246.803 85.6063C246.166 85.2125 245.675 84.6636 245.329 83.9597C244.987 83.2517 244.816 82.4284 244.816 81.4898C244.816 80.5511 244.987 79.7239 245.329 79.008C245.675 78.2881 246.156 77.7273 246.773 77.3256C247.393 76.9199 248.117 76.717 248.945 76.717C249.422 76.717 249.893 76.7966 250.358 76.9557C250.824 77.1148 251.247 77.3733 251.629 77.7313C252.011 78.0852 252.315 78.5545 252.542 79.1392C252.769 79.7239 252.882 80.4437 252.882 81.2989V81.8955H245.818V80.6784H251.45C251.45 80.1614 251.347 79.7 251.14 79.2943C250.937 78.8886 250.647 78.5685 250.269 78.3338C249.895 78.0991 249.454 77.9818 248.945 77.9818C248.384 77.9818 247.899 78.121 247.489 78.3994C247.083 78.6739 246.771 79.0318 246.552 79.4733C246.333 79.9148 246.224 80.3881 246.224 80.8932V81.7045C246.224 82.3966 246.343 82.9832 246.582 83.4645C246.825 83.9418 247.161 84.3057 247.59 84.5563C248.02 84.8028 248.519 84.9261 249.088 84.9261C249.458 84.9261 249.792 84.8744 250.09 84.771C250.392 84.6636 250.653 84.5045 250.872 84.2938C251.09 84.079 251.259 83.8125 251.379 83.4943L252.739 83.8761C252.596 84.3375 252.355 84.7432 252.017 85.0932C251.679 85.4392 251.261 85.7097 250.764 85.9045C250.267 86.0955 249.708 86.1909 249.088 86.1909ZM258.866 86.1909C257.983 86.1909 257.221 85.996 256.581 85.6063C255.945 85.2125 255.453 84.6636 255.107 83.9597C254.765 83.2517 254.594 82.4284 254.594 81.4898C254.594 80.5511 254.765 79.7239 255.107 79.008C255.453 78.2881 255.935 77.7273 256.551 77.3256C257.172 76.9199 257.895 76.717 258.723 76.717C259.2 76.717 259.671 76.7966 260.137 76.9557C260.602 77.1148 261.025 77.3733 261.407 77.7313C261.789 78.0852 262.093 78.5545 262.32 79.1392C262.547 79.7239 262.66 80.4437 262.66 81.2989V81.8955H255.597V80.6784H261.228C261.228 80.1614 261.125 79.7 260.918 79.2943C260.715 78.8886 260.425 78.5685 260.047 78.3338C259.673 78.0991 259.232 77.9818 258.723 77.9818C258.162 77.9818 257.677 78.121 257.267 78.3994C256.861 78.6739 256.549 79.0318 256.33 79.4733C256.112 79.9148 256.002 80.3881 256.002 80.8932V81.7045C256.002 82.3966 256.122 82.9832 256.36 83.4645C256.603 83.9418 256.939 84.3057 257.368 84.5563C257.798 84.8028 258.297 84.9261 258.866 84.9261C259.236 84.9261 259.57 84.8744 259.868 84.771C260.17 84.6636 260.431 84.5045 260.65 84.2938C260.868 84.079 261.037 83.8125 261.157 83.4943L262.517 83.8761C262.374 84.3375 262.133 84.7432 261.795 85.0932C261.457 85.4392 261.039 85.7097 260.542 85.9045C260.045 86.0955 259.486 86.1909 258.866 86.1909ZM273.608 76.8364V78.0295H268.668V76.8364H273.608ZM270.147 86V75.5716C270.147 75.0466 270.271 74.6091 270.517 74.2591C270.764 73.9091 271.084 73.6466 271.478 73.4716C271.872 73.2966 272.287 73.2091 272.725 73.2091C273.071 73.2091 273.353 73.2369 273.572 73.2926C273.791 73.3483 273.954 73.4 274.061 73.4477L273.655 74.6648C273.584 74.6409 273.484 74.6111 273.357 74.5753C273.234 74.5395 273.071 74.5216 272.868 74.5216C272.402 74.5216 272.066 74.6389 271.86 74.8736C271.657 75.1082 271.555 75.4523 271.555 75.9057V86H270.147ZM275.581 86V76.8364H276.989V86H275.581ZM276.297 75.3091C276.022 75.3091 275.786 75.2156 275.587 75.0287C275.392 74.8418 275.294 74.617 275.294 74.3545C275.294 74.092 275.392 73.8673 275.587 73.6804C275.786 73.4935 276.022 73.4 276.297 73.4C276.571 73.4 276.806 73.4935 277.001 73.6804C277.2 73.8673 277.299 74.092 277.299 74.3545C277.299 74.617 277.2 74.8418 277.001 75.0287C276.806 75.2156 276.571 75.3091 276.297 75.3091ZM287.061 76.8364L283.672 86H282.24L278.852 76.8364H280.379L282.908 84.1386H283.004L285.533 76.8364H287.061ZM292.433 86.1909C291.55 86.1909 290.788 85.996 290.148 85.6063C289.512 85.2125 289.021 84.6636 288.674 83.9597C288.332 83.2517 288.161 82.4284 288.161 81.4898C288.161 80.5511 288.332 79.7239 288.674 79.008C289.021 78.2881 289.502 77.7273 290.118 77.3256C290.739 76.9199 291.463 76.717 292.29 76.717C292.767 76.717 293.238 76.7966 293.704 76.9557C294.169 77.1148 294.593 77.3733 294.974 77.7313C295.356 78.0852 295.661 78.5545 295.887 79.1392C296.114 79.7239 296.227 80.4437 296.227 81.2989V81.8955H289.164V80.6784H294.796C294.796 80.1614 294.692 79.7 294.485 79.2943C294.282 78.8886 293.992 78.5685 293.614 78.3338C293.24 78.0991 292.799 77.9818 292.29 77.9818C291.729 77.9818 291.244 78.121 290.834 78.3994C290.428 78.6739 290.116 79.0318 289.898 79.4733C289.679 79.9148 289.569 80.3881 289.569 80.8932V81.7045C289.569 82.3966 289.689 82.9832 289.927 83.4645C290.17 83.9418 290.506 84.3057 290.936 84.5563C291.365 84.8028 291.864 84.9261 292.433 84.9261C292.803 84.9261 293.137 84.8744 293.435 84.771C293.738 84.6636 293.998 84.5045 294.217 84.2938C294.436 84.079 294.605 83.8125 294.724 83.4943L296.084 83.8761C295.941 84.3375 295.7 84.7432 295.362 85.0932C295.024 85.4392 294.607 85.7097 294.109 85.9045C293.612 86.0955 293.053 86.1909 292.433 86.1909ZM300.207 82.5636V82.492C300.215 81.7324 300.294 81.1278 300.445 80.6784C300.596 80.229 300.811 79.8651 301.09 79.5866C301.368 79.3082 301.702 79.0517 302.092 78.817C302.326 78.6739 302.537 78.5048 302.724 78.3099C302.911 78.1111 303.058 77.8824 303.166 77.6239C303.277 77.3653 303.333 77.079 303.333 76.7648C303.333 76.375 303.241 76.0369 303.058 75.7506C302.875 75.4642 302.631 75.2435 302.325 75.0884C302.018 74.9332 301.678 74.8557 301.304 74.8557C300.978 74.8557 300.664 74.9233 300.362 75.0585C300.059 75.1938 299.807 75.4065 299.604 75.6969C299.401 75.9872 299.284 76.367 299.252 76.8364H297.749C297.78 76.1602 297.955 75.5815 298.274 75.1003C298.596 74.619 299.019 74.2511 299.544 73.9966C300.073 73.742 300.66 73.6148 301.304 73.6148C302.004 73.6148 302.613 73.754 303.13 74.0324C303.651 74.3108 304.053 74.6926 304.335 75.1778C304.621 75.6631 304.765 76.2159 304.765 76.8364C304.765 77.2739 304.697 77.6696 304.562 78.0236C304.43 78.3776 304.24 78.6937 303.989 78.9722C303.742 79.2506 303.444 79.4972 303.094 79.7119C302.744 79.9307 302.464 80.1614 302.253 80.404C302.042 80.6426 301.889 80.927 301.794 81.2571C301.698 81.5872 301.646 81.9989 301.638 82.492V82.5636H300.207ZM300.97 86.0955C300.676 86.0955 300.423 85.9901 300.213 85.7793C300.002 85.5685 299.896 85.3159 299.896 85.0216C299.896 84.7273 300.002 84.4747 300.213 84.2639C300.423 84.0531 300.676 83.9477 300.97 83.9477C301.265 83.9477 301.517 84.0531 301.728 84.2639C301.939 84.4747 302.044 84.7273 302.044 85.0216C302.044 85.2165 301.994 85.3955 301.895 85.5585C301.8 85.7216 301.67 85.8528 301.507 85.9523C301.348 86.0477 301.169 86.0955 300.97 86.0955Z" fill="black"/>
<path d="M147.148 121.191C146.321 121.191 145.595 120.994 144.971 120.6C144.35 120.207 143.865 119.656 143.515 118.948C143.169 118.24 142.996 117.412 142.996 116.466C142.996 115.511 143.169 114.678 143.515 113.966C143.865 113.254 144.35 112.701 144.971 112.308C145.595 111.914 146.321 111.717 147.148 111.717C147.976 111.717 148.7 111.914 149.32 112.308C149.945 112.701 150.43 113.254 150.776 113.966C151.126 114.678 151.301 115.511 151.301 116.466C151.301 117.412 151.126 118.24 150.776 118.948C150.43 119.656 149.945 120.207 149.32 120.6C148.7 120.994 147.976 121.191 147.148 121.191ZM147.148 119.926C147.777 119.926 148.294 119.765 148.7 119.443C149.105 119.121 149.406 118.697 149.6 118.172C149.795 117.647 149.893 117.078 149.893 116.466C149.893 115.853 149.795 115.283 149.6 114.754C149.406 114.225 149.105 113.797 148.7 113.471C148.294 113.145 147.777 112.982 147.148 112.982C146.52 112.982 146.003 113.145 145.597 113.471C145.192 113.797 144.891 114.225 144.696 114.754C144.502 115.283 144.404 115.853 144.404 116.466C144.404 117.078 144.502 117.647 144.696 118.172C144.891 118.697 145.192 119.121 145.597 119.443C146.003 119.765 146.52 119.926 147.148 119.926ZM154.858 115.488V121H153.45V111.836H154.81V113.268H154.93C155.144 112.803 155.47 112.429 155.908 112.147C156.345 111.86 156.91 111.717 157.602 111.717C158.223 111.717 158.766 111.844 159.231 112.099C159.696 112.349 160.058 112.731 160.317 113.244C160.575 113.753 160.705 114.398 160.705 115.177V121H159.297V115.273C159.297 114.553 159.11 113.992 158.736 113.59C158.362 113.185 157.849 112.982 157.197 112.982C156.747 112.982 156.345 113.079 155.991 113.274C155.641 113.469 155.365 113.753 155.162 114.127C154.959 114.501 154.858 114.955 154.858 115.488ZM167.119 121.191C166.236 121.191 165.475 120.996 164.834 120.606C164.198 120.213 163.707 119.664 163.361 118.96C163.019 118.252 162.848 117.428 162.848 116.49C162.848 115.551 163.019 114.724 163.361 114.008C163.707 113.288 164.188 112.727 164.805 112.326C165.425 111.92 166.149 111.717 166.976 111.717C167.453 111.717 167.925 111.797 168.39 111.956C168.855 112.115 169.279 112.373 169.661 112.731C170.043 113.085 170.347 113.555 170.574 114.139C170.8 114.724 170.914 115.444 170.914 116.299V116.895H163.85V115.678H169.482C169.482 115.161 169.378 114.7 169.172 114.294C168.969 113.889 168.678 113.568 168.301 113.334C167.927 113.099 167.485 112.982 166.976 112.982C166.415 112.982 165.93 113.121 165.52 113.399C165.115 113.674 164.803 114.032 164.584 114.473C164.365 114.915 164.256 115.388 164.256 115.893V116.705C164.256 117.397 164.375 117.983 164.614 118.464C164.856 118.942 165.192 119.306 165.622 119.556C166.051 119.803 166.551 119.926 167.119 119.926C167.489 119.926 167.823 119.874 168.122 119.771C168.424 119.664 168.684 119.505 168.903 119.294C169.122 119.079 169.291 118.813 169.41 118.494L170.77 118.876C170.627 119.338 170.387 119.743 170.049 120.093C169.711 120.439 169.293 120.71 168.796 120.905C168.299 121.095 167.74 121.191 167.119 121.191ZM179.188 115.488V121H177.78V108.782H179.188V113.268H179.308C179.522 112.795 179.845 112.419 180.274 112.141C180.708 111.858 181.284 111.717 182.004 111.717C182.629 111.717 183.176 111.842 183.645 112.093C184.114 112.339 184.478 112.719 184.737 113.232C184.999 113.741 185.13 114.39 185.13 115.177V121H183.722V115.273C183.722 114.545 183.534 113.982 183.156 113.584C182.782 113.183 182.263 112.982 181.599 112.982C181.137 112.982 180.724 113.079 180.358 113.274C179.996 113.469 179.709 113.753 179.499 114.127C179.292 114.501 179.188 114.955 179.188 115.488ZM193.481 117.253V111.836H194.889V121H193.481V119.449H193.386C193.171 119.914 192.837 120.31 192.383 120.636C191.93 120.958 191.357 121.119 190.665 121.119C190.093 121.119 189.583 120.994 189.138 120.743C188.693 120.489 188.343 120.107 188.088 119.598C187.833 119.085 187.706 118.439 187.706 117.659V111.836H189.114V117.564C189.114 118.232 189.301 118.765 189.675 119.163C190.053 119.56 190.534 119.759 191.119 119.759C191.469 119.759 191.825 119.67 192.187 119.491C192.553 119.312 192.859 119.037 193.105 118.667C193.356 118.297 193.481 117.826 193.481 117.253ZM198.876 115.488V121H197.468V111.836H198.828V113.268H198.947C199.162 112.803 199.488 112.429 199.926 112.147C200.363 111.86 200.928 111.717 201.62 111.717C202.241 111.717 202.784 111.844 203.249 112.099C203.714 112.349 204.076 112.731 204.335 113.244C204.593 113.753 204.722 114.398 204.722 115.177V121H203.315V115.273C203.315 114.553 203.128 113.992 202.754 113.59C202.38 113.185 201.867 112.982 201.215 112.982C200.765 112.982 200.363 113.079 200.009 113.274C199.659 113.469 199.383 113.753 199.18 114.127C198.977 114.501 198.876 114.955 198.876 115.488ZM210.756 121.191C209.992 121.191 209.318 120.998 208.733 120.612C208.148 120.222 207.691 119.674 207.361 118.966C207.031 118.254 206.866 117.413 206.866 116.442C206.866 115.48 207.031 114.644 207.361 113.936C207.691 113.228 208.15 112.682 208.739 112.296C209.328 111.91 210.008 111.717 210.779 111.717C211.376 111.717 211.847 111.816 212.193 112.015C212.543 112.21 212.81 112.433 212.993 112.684C213.18 112.93 213.325 113.133 213.428 113.292H213.548V108.782H214.956V121H213.595V119.592H213.428C213.325 119.759 213.178 119.97 212.987 120.224C212.796 120.475 212.523 120.7 212.169 120.899C211.815 121.093 211.344 121.191 210.756 121.191ZM210.946 119.926C211.511 119.926 211.988 119.779 212.378 119.485C212.768 119.186 213.064 118.775 213.267 118.25C213.47 117.721 213.571 117.11 213.571 116.418C213.571 115.734 213.472 115.136 213.273 114.622C213.074 114.105 212.78 113.704 212.39 113.417C212 113.127 211.519 112.982 210.946 112.982C210.35 112.982 209.853 113.135 209.455 113.441C209.061 113.743 208.765 114.155 208.566 114.676C208.371 115.193 208.274 115.774 208.274 116.418C208.274 117.07 208.373 117.663 208.572 118.196C208.775 118.725 209.073 119.147 209.467 119.461C209.865 119.771 210.358 119.926 210.946 119.926ZM217.73 121V111.836H219.09V113.22H219.185C219.352 112.767 219.655 112.399 220.092 112.117C220.53 111.834 221.023 111.693 221.572 111.693C221.675 111.693 221.804 111.695 221.959 111.699C222.115 111.703 222.232 111.709 222.311 111.717V113.149C222.264 113.137 222.154 113.119 221.983 113.095C221.816 113.067 221.639 113.053 221.452 113.053C221.007 113.053 220.609 113.147 220.259 113.334C219.913 113.517 219.639 113.771 219.436 114.097C219.237 114.42 219.138 114.788 219.138 115.201V121H217.73ZM227.544 121.191C226.661 121.191 225.899 120.996 225.259 120.606C224.622 120.213 224.131 119.664 223.785 118.96C223.443 118.252 223.272 117.428 223.272 116.49C223.272 115.551 223.443 114.724 223.785 114.008C224.131 113.288 224.612 112.727 225.229 112.326C225.849 111.92 226.573 111.717 227.4 111.717C227.878 111.717 228.349 111.797 228.814 111.956C229.28 112.115 229.703 112.373 230.085 112.731C230.467 113.085 230.771 113.555 230.998 114.139C231.225 114.724 231.338 115.444 231.338 116.299V116.895H224.274V115.678H229.906C229.906 115.161 229.803 114.7 229.596 114.294C229.393 113.889 229.103 113.568 228.725 113.334C228.351 113.099 227.909 112.982 227.4 112.982C226.84 112.982 226.354 113.121 225.945 113.399C225.539 113.674 225.227 114.032 225.008 114.473C224.789 114.915 224.68 115.388 224.68 115.893V116.705C224.68 117.397 224.799 117.983 225.038 118.464C225.281 118.942 225.617 119.306 226.046 119.556C226.476 119.803 226.975 119.926 227.544 119.926C227.913 119.926 228.248 119.874 228.546 119.771C228.848 119.664 229.109 119.505 229.327 119.294C229.546 119.079 229.715 118.813 229.834 118.494L231.195 118.876C231.052 119.338 230.811 119.743 230.473 120.093C230.135 120.439 229.717 120.71 229.22 120.905C228.723 121.095 228.164 121.191 227.544 121.191ZM236.94 121.191C236.176 121.191 235.502 120.998 234.917 120.612C234.333 120.222 233.875 119.674 233.545 118.966C233.215 118.254 233.05 117.413 233.05 116.442C233.05 115.48 233.215 114.644 233.545 113.936C233.875 113.228 234.335 112.682 234.923 112.296C235.512 111.91 236.192 111.717 236.964 111.717C237.56 111.717 238.032 111.816 238.378 112.015C238.728 112.21 238.994 112.433 239.177 112.684C239.364 112.93 239.509 113.133 239.613 113.292H239.732V108.782H241.14V121H239.78V119.592H239.613C239.509 119.759 239.362 119.97 239.171 120.224C238.98 120.475 238.708 120.7 238.354 120.899C238 121.093 237.529 121.191 236.94 121.191ZM237.131 119.926C237.696 119.926 238.173 119.779 238.563 119.485C238.952 119.186 239.249 118.775 239.452 118.25C239.654 117.721 239.756 117.11 239.756 116.418C239.756 115.734 239.656 115.136 239.457 114.622C239.259 114.105 238.964 113.704 238.575 113.417C238.185 113.127 237.704 112.982 237.131 112.982C236.534 112.982 236.037 113.135 235.639 113.441C235.246 113.743 234.949 114.155 234.75 114.676C234.556 115.193 234.458 115.774 234.458 116.418C234.458 117.07 234.557 117.663 234.756 118.196C234.959 118.725 235.257 119.147 235.651 119.461C236.049 119.771 236.542 119.926 237.131 119.926ZM251.336 121.215C250.755 121.215 250.228 121.105 249.755 120.887C249.281 120.664 248.906 120.344 248.627 119.926C248.349 119.505 248.209 118.995 248.209 118.399C248.209 117.874 248.313 117.448 248.52 117.122C248.727 116.792 249.003 116.534 249.349 116.347C249.695 116.16 250.077 116.02 250.494 115.929C250.916 115.834 251.34 115.758 251.765 115.702C252.322 115.631 252.773 115.577 253.119 115.541C253.469 115.501 253.724 115.436 253.883 115.344C254.046 115.253 254.128 115.094 254.128 114.867V114.819C254.128 114.231 253.967 113.773 253.644 113.447C253.326 113.121 252.843 112.958 252.195 112.958C251.523 112.958 250.996 113.105 250.614 113.399C250.232 113.694 249.963 114.008 249.808 114.342L248.472 113.865C248.711 113.308 249.029 112.874 249.427 112.564C249.828 112.25 250.266 112.031 250.739 111.908C251.216 111.781 251.686 111.717 252.147 111.717C252.441 111.717 252.779 111.753 253.161 111.824C253.547 111.892 253.919 112.033 254.277 112.248C254.639 112.463 254.939 112.787 255.178 113.22C255.416 113.654 255.536 114.235 255.536 114.963V121H254.128V119.759H254.056C253.961 119.958 253.802 120.171 253.579 120.397C253.356 120.624 253.06 120.817 252.69 120.976C252.32 121.135 251.869 121.215 251.336 121.215ZM251.55 119.95C252.107 119.95 252.577 119.841 252.958 119.622C253.344 119.403 253.634 119.121 253.829 118.775C254.028 118.429 254.128 118.065 254.128 117.683V116.394C254.068 116.466 253.937 116.532 253.734 116.591C253.535 116.647 253.304 116.697 253.042 116.74C252.783 116.78 252.531 116.816 252.284 116.848C252.042 116.876 251.845 116.899 251.694 116.919C251.328 116.967 250.986 117.045 250.667 117.152C250.353 117.255 250.099 117.413 249.904 117.623C249.713 117.83 249.617 118.112 249.617 118.47C249.617 118.96 249.798 119.33 250.16 119.58C250.526 119.827 250.99 119.95 251.55 119.95ZM259.513 115.488V121H258.105V111.836H259.466V113.268H259.585C259.8 112.803 260.126 112.429 260.563 112.147C261.001 111.86 261.566 111.717 262.258 111.717C262.878 111.717 263.421 111.844 263.886 112.099C264.352 112.349 264.714 112.731 264.972 113.244C265.231 113.753 265.36 114.398 265.36 115.177V121H263.952V115.273C263.952 114.553 263.765 113.992 263.391 113.59C263.017 113.185 262.504 112.982 261.852 112.982C261.403 112.982 261.001 113.079 260.647 113.274C260.297 113.469 260.02 113.753 259.818 114.127C259.615 114.501 259.513 114.955 259.513 115.488ZM271.393 121.191C270.629 121.191 269.955 120.998 269.371 120.612C268.786 120.222 268.329 119.674 267.998 118.966C267.668 118.254 267.503 117.413 267.503 116.442C267.503 115.48 267.668 114.644 267.998 113.936C268.329 113.228 268.788 112.682 269.377 112.296C269.965 111.91 270.645 111.717 271.417 111.717C272.013 111.717 272.485 111.816 272.831 112.015C273.181 112.21 273.447 112.433 273.63 112.684C273.817 112.93 273.962 113.133 274.066 113.292H274.185V108.782H275.593V121H274.233V119.592H274.066C273.962 119.759 273.815 119.97 273.624 120.224C273.433 120.475 273.161 120.7 272.807 120.899C272.453 121.093 271.982 121.191 271.393 121.191ZM271.584 119.926C272.149 119.926 272.626 119.779 273.016 119.485C273.406 119.186 273.702 118.775 273.905 118.25C274.107 117.721 274.209 117.11 274.209 116.418C274.209 115.734 274.109 115.136 273.911 114.622C273.712 114.105 273.417 113.704 273.028 113.417C272.638 113.127 272.157 112.982 271.584 112.982C270.987 112.982 270.49 113.135 270.092 113.441C269.699 113.743 269.402 114.155 269.204 114.676C269.009 115.193 268.911 115.774 268.911 116.418C268.911 117.07 269.011 117.663 269.209 118.196C269.412 118.725 269.711 119.147 270.104 119.461C270.502 119.771 270.995 119.926 271.584 119.926ZM287.077 111.836V113.03H282.329V111.836H287.077ZM283.713 109.641H285.121V118.375C285.121 118.773 285.178 119.071 285.294 119.27C285.413 119.465 285.564 119.596 285.747 119.664C285.934 119.727 286.131 119.759 286.338 119.759C286.493 119.759 286.62 119.751 286.719 119.735C286.819 119.715 286.898 119.699 286.958 119.688L287.244 120.952C287.149 120.988 287.016 121.024 286.845 121.06C286.674 121.099 286.457 121.119 286.194 121.119C285.797 121.119 285.407 121.034 285.025 120.863C284.647 120.692 284.333 120.431 284.082 120.081C283.836 119.731 283.713 119.29 283.713 118.757V109.641ZM290.8 115.488V121H289.392V108.782H290.8V113.268H290.919C291.134 112.795 291.456 112.419 291.886 112.141C292.319 111.858 292.896 111.717 293.616 111.717C294.24 111.717 294.787 111.842 295.257 112.093C295.726 112.339 296.09 112.719 296.348 113.232C296.611 113.741 296.742 114.39 296.742 115.177V121H295.334V115.273C295.334 114.545 295.145 113.982 294.767 113.584C294.394 113.183 293.875 112.982 293.21 112.982C292.749 112.982 292.335 113.079 291.969 113.274C291.607 113.469 291.321 113.753 291.11 114.127C290.904 114.501 290.8 114.955 290.8 115.488ZM299.318 121V111.836H300.726V121H299.318ZM300.034 110.309C299.759 110.309 299.523 110.216 299.324 110.029C299.129 109.842 299.032 109.617 299.032 109.355C299.032 109.092 299.129 108.867 299.324 108.68C299.523 108.493 299.759 108.4 300.034 108.4C300.308 108.4 300.543 108.493 300.738 108.68C300.937 108.867 301.036 109.092 301.036 109.355C301.036 109.617 300.937 109.842 300.738 110.029C300.543 110.216 300.308 110.309 300.034 110.309ZM303.305 121V111.836H304.665V113.22H304.76C304.927 112.767 305.23 112.399 305.667 112.117C306.105 111.834 306.598 111.693 307.147 111.693C307.25 111.693 307.379 111.695 307.534 111.699C307.69 111.703 307.807 111.709 307.886 111.717V113.149C307.839 113.137 307.729 113.119 307.558 113.095C307.391 113.067 307.214 113.053 307.027 113.053C306.582 113.053 306.184 113.147 305.834 113.334C305.488 113.517 305.214 113.771 305.011 114.097C304.812 114.42 304.713 114.788 304.713 115.201V121H303.305ZM314.115 111.836V113.03H309.366V111.836H314.115ZM310.75 109.641H312.158V118.375C312.158 118.773 312.216 119.071 312.331 119.27C312.45 119.465 312.602 119.596 312.784 119.664C312.971 119.727 313.168 119.759 313.375 119.759C313.53 119.759 313.657 119.751 313.757 119.735C313.856 119.715 313.936 119.699 313.996 119.688L314.282 120.952C314.186 120.988 314.053 121.024 313.882 121.06C313.711 121.099 313.494 121.119 313.232 121.119C312.834 121.119 312.444 121.034 312.063 120.863C311.685 120.692 311.371 120.431 311.12 120.081C310.873 119.731 310.75 119.29 310.75 118.757V109.641ZM317.14 124.436C316.901 124.436 316.688 124.416 316.501 124.377C316.314 124.341 316.185 124.305 316.113 124.269L316.471 123.028C316.813 123.116 317.116 123.148 317.378 123.124C317.641 123.1 317.873 122.983 318.076 122.772C318.283 122.565 318.472 122.229 318.643 121.764L318.906 121.048L315.517 111.836H317.044L319.574 119.139H319.669L322.199 111.836H323.726L319.836 122.336C319.661 122.81 319.444 123.201 319.186 123.512C318.927 123.826 318.627 124.059 318.285 124.21C317.947 124.361 317.565 124.436 317.14 124.436ZM334.39 111.836V113.03H329.45V111.836H334.39ZM330.93 121V110.572C330.93 110.047 331.053 109.609 331.3 109.259C331.546 108.909 331.866 108.647 332.26 108.472C332.654 108.297 333.07 108.209 333.507 108.209C333.853 108.209 334.135 108.237 334.354 108.293C334.573 108.348 334.736 108.4 334.843 108.448L334.438 109.665C334.366 109.641 334.267 109.611 334.139 109.575C334.016 109.539 333.853 109.522 333.65 109.522C333.185 109.522 332.849 109.639 332.642 109.874C332.439 110.108 332.338 110.452 332.338 110.906V121H330.93ZM336.363 121V111.836H337.771V121H336.363ZM337.079 110.309C336.805 110.309 336.568 110.216 336.369 110.029C336.174 109.842 336.077 109.617 336.077 109.355C336.077 109.092 336.174 108.867 336.369 108.68C336.568 108.493 336.805 108.4 337.079 108.4C337.354 108.4 337.588 108.493 337.783 108.68C337.982 108.867 338.081 109.092 338.081 109.355C338.081 109.617 337.982 109.842 337.783 110.029C337.588 110.216 337.354 110.309 337.079 110.309ZM347.843 111.836L344.455 121H343.023L339.634 111.836H341.161L343.691 119.139H343.786L346.316 111.836H347.843ZM353.215 121.191C352.332 121.191 351.571 120.996 350.931 120.606C350.294 120.213 349.803 119.664 349.457 118.96C349.115 118.252 348.944 117.428 348.944 116.49C348.944 115.551 349.115 114.724 349.457 114.008C349.803 113.288 350.284 112.727 350.901 112.326C351.521 111.92 352.245 111.717 353.072 111.717C353.55 111.717 354.021 111.797 354.486 111.956C354.952 112.115 355.375 112.373 355.757 112.731C356.139 113.085 356.443 113.555 356.67 114.139C356.896 114.724 357.01 115.444 357.01 116.299V116.895H349.946V115.678H355.578C355.578 115.161 355.475 114.7 355.268 114.294C355.065 113.889 354.775 113.568 354.397 113.334C354.023 113.099 353.581 112.982 353.072 112.982C352.511 112.982 352.026 113.121 351.617 113.399C351.211 113.674 350.899 114.032 350.68 114.473C350.461 114.915 350.352 115.388 350.352 115.893V116.705C350.352 117.397 350.471 117.983 350.71 118.464C350.952 118.942 351.288 119.306 351.718 119.556C352.148 119.803 352.647 119.926 353.215 119.926C353.585 119.926 353.919 119.874 354.218 119.771C354.52 119.664 354.781 119.505 354.999 119.294C355.218 119.079 355.387 118.813 355.506 118.494L356.867 118.876C356.723 119.338 356.483 119.743 356.145 120.093C355.807 120.439 355.389 120.71 354.892 120.905C354.395 121.095 353.836 121.191 353.215 121.191Z" fill="black"/>
<path opacity="0.5" d="M196.25 73.4204C195.076 74.175 193.902 74.9295 192.417 76.7855C190.932 78.6414 189.172 81.5759 188.37 83.0666C187.567 84.5573 187.777 84.5154 189.625 83.4248C191.472 82.3342 194.952 80.1963 197.017 79.032C199.082 77.8678 199.627 77.742 199.97 77.6982C200.314 77.6544 200.44 77.6963 200.504 77.9065C200.678 78.4714 200.066 80.35 199.22 82.7407C198.891 83.6695 198.709 83.9996 198.979 84.0885C199.249 84.1775 199.962 84.0098 202.32 82.8335C204.679 81.6572 208.661 79.4773 211.299 78.1028C213.938 76.7283 215.112 76.2253 215.695 76.1128C216.279 76.0004 216.237 76.2939 216.048 76.7804C215.859 77.2669 215.523 77.9377 214.868 78.9749C214.214 80.0121 213.249 81.3955 212.501 82.6112C211.165 84.7827 210.648 86.121 210.647 86.4812C210.646 86.6176 210.981 86.5479 214.087 84.8075C217.192 83.0672 223.145 79.6297 226.191 77.9847C229.236 76.3396 229.194 76.5911 228.502 77.8945C227.81 79.1978 226.468 81.5454 225.756 82.8805C225.044 84.2156 225.002 84.4671 225.044 84.6176C225.111 84.8634 226.095 84.2245 229.628 81.9722C232.341 80.2424 237.185 77.7497 239.647 76.4946C242.108 75.2395 242.108 75.4072 241.626 77.359C241.144 79.3109 240.18 83.0418 239.725 85.0476C239.271 87.0535 239.354 87.2211 239.691 87.2027C240.028 87.1843 240.615 86.9747 243.935 85.2528C247.256 83.5309 253.292 80.303 256.004 80.0864C258.715 79.8698 257.919 82.7623 257.488 84.5039C257.056 86.2455 257.014 86.7486 257.286 86.84C257.558 86.9315 258.145 86.5961 259.118 85.9413C260.091 85.2865 261.433 84.3223 264.744 82.4841C268.055 80.646 273.295 77.9631 276.036 76.6858C278.777 75.4085 278.861 75.6181 278.737 76.5854C278.612 77.5528 278.277 79.2715 278.062 80.7438C277.848 82.2161 277.764 83.3899 277.804 83.9526C277.845 84.5154 278.013 84.4315 279.944 82.8792C281.875 81.3269 285.564 78.3086 287.925 76.5441C290.287 74.7797 291.209 74.3604 291.747 74.1026C292.285 73.8447 292.411 73.7609 292.433 74.5561C292.456 75.3513 292.372 77.0281 292.141 78.4788C291.909 79.9295 291.531 81.1033 291.316 82.0852C291.101 83.0672 291.059 83.8218 291.939 83.414C292.818 83.0062 294.621 81.4133 296.199 80.1944C297.778 78.9755 299.077 78.179 300.271 77.5801C301.464 76.9811 302.512 76.6038 303.052 76.9335C304.315 77.7046 303.466 80.2712 303.276 81.8566C303.211 82.5616 303.211 83.0647 303.274 83.3657C303.337 83.6668 303.462 83.7506 303.592 83.837" stroke="#D92A4D" stroke-width="2" stroke-linecap="round"/>
</svg>
