<svg width="500" height="250" viewBox="0 0 500 250" fill="none" xmlns="http://www.w3.org/2000/svg">
<rect width="500" height="250" fill="white"/>
<rect x="134" y="82" width="19" height="34" fill="#8D8BC1"/>
<rect x="116" y="126" width="27" height="13" fill="#8D8BC1"/>
<rect x="115" y="143" width="45" height="13" fill="#A3BE6F"/>
<rect x="164" y="143" width="34" height="13" fill="#E7B964"/>
<rect x="213" y="127" width="26" height="13" fill="#6FBEA3"/>
<rect x="243" y="143" width="26" height="13" fill="#BE6FA5"/>
<rect x="273" y="143" width="19" height="13" fill="#E0D67A"/>
<rect x="317" y="127" width="39" height="13" fill="#679F58"/>
<rect x="344" y="143" width="41" height="13" fill="#D7875D"/>
<rect x="388" y="143" width="27" height="13" fill="#8CC6D5"/>
<rect x="153" y="82" width="20" height="34" fill="#A3BE6F"/>
<rect x="173" y="82" width="22" height="34" fill="#E7B964"/>
<rect x="222" y="82" width="22" height="34" fill="#6FBEA3"/>
<rect x="244" y="82" width="21" height="34" fill="#BE6FA5"/>
<rect x="265" y="82" width="20" height="34" fill="#E0D67A"/>
<rect x="313" y="82" width="20" height="34" fill="#679F58"/>
<rect x="333" y="82" width="20" height="34" fill="#D7875D"/>
<rect x="353" y="82" width="21" height="34" fill="#8CC6D5"/>
<rect x="156" y="158" width="42" height="13" fill="#EBACAC"/>
<rect x="225" y="158" width="62" height="13" fill="#EBACAC"/>
<rect opacity="0.15" x="317" y="159" width="41" height="13" fill="#EBACAC"/>
<path d="M148.12 86.5636V111H145.161V89.6659H145.018L139.052 93.6273V90.6205L145.161 86.5636H148.12ZM155.148 111V108.852L163.214 100.023C164.161 98.9886 164.94 98.0898 165.553 97.3261C166.165 96.5545 166.619 95.8307 166.913 95.1545C167.215 94.4705 167.366 93.7545 167.366 93.0068C167.366 92.1477 167.16 91.404 166.746 90.7756C166.34 90.1472 165.784 89.6619 165.076 89.3199C164.368 88.9778 163.572 88.8068 162.689 88.8068C161.751 88.8068 160.931 89.0017 160.231 89.3915C159.539 89.7733 159.002 90.3102 158.62 91.0023C158.247 91.6943 158.06 92.5057 158.06 93.4364H155.244C155.244 92.0045 155.574 90.7477 156.234 89.6659C156.894 88.5841 157.793 87.7409 158.931 87.1364C160.076 86.5318 161.361 86.2295 162.785 86.2295C164.216 86.2295 165.485 86.5318 166.591 87.1364C167.697 87.7409 168.564 88.5562 169.192 89.5824C169.82 90.6085 170.135 91.75 170.135 93.0068C170.135 93.9057 169.972 94.7847 169.645 95.6438C169.327 96.4949 168.77 97.4455 167.975 98.4955C167.187 99.5375 166.094 100.81 164.694 102.314L159.205 108.184V108.375H170.564V111H155.148ZM183.749 111.334C182.174 111.334 180.77 111.064 179.537 110.523C178.312 109.982 177.338 109.23 176.614 108.268C175.898 107.297 175.508 106.172 175.444 104.891H178.451C178.515 105.678 178.785 106.359 179.263 106.931C179.74 107.496 180.364 107.934 181.136 108.244C181.907 108.554 182.763 108.709 183.701 108.709C184.751 108.709 185.682 108.526 186.493 108.16C187.305 107.794 187.941 107.285 188.402 106.633C188.864 105.981 189.094 105.225 189.094 104.366C189.094 103.467 188.872 102.676 188.426 101.991C187.981 101.299 187.328 100.759 186.469 100.369C185.61 99.979 184.56 99.7841 183.319 99.7841H181.363V97.1591H183.319C184.29 97.1591 185.141 96.9841 185.873 96.6341C186.613 96.2841 187.189 95.7909 187.603 95.1545C188.024 94.5182 188.235 93.7705 188.235 92.9114C188.235 92.0841 188.052 91.3642 187.686 90.7517C187.32 90.1392 186.803 89.6619 186.135 89.3199C185.475 88.9778 184.695 88.8068 183.797 88.8068C182.953 88.8068 182.158 88.9619 181.41 89.2722C180.67 89.5744 180.066 90.0159 179.597 90.5966C179.127 91.1693 178.873 91.8614 178.833 92.6727H175.969C176.017 91.392 176.403 90.2705 177.127 89.308C177.851 88.3375 178.797 87.5818 179.966 87.0409C181.144 86.5 182.436 86.2295 183.844 86.2295C185.356 86.2295 186.652 86.5358 187.734 87.1483C188.816 87.7528 189.647 88.5523 190.228 89.5466C190.809 90.5409 191.099 91.6148 191.099 92.7682C191.099 94.1443 190.737 95.3176 190.013 96.2881C189.297 97.2585 188.323 97.9307 187.09 98.3045V98.4955C188.633 98.75 189.838 99.4063 190.705 100.464C191.572 101.514 192.006 102.815 192.006 104.366C192.006 105.694 191.644 106.888 190.92 107.945C190.204 108.995 189.226 109.823 187.985 110.427C186.744 111.032 185.332 111.334 183.749 111.334ZM224.663 105.989V103.555L235.402 86.5636H237.168V90.3341H235.974L227.861 103.173V103.364H242.322V105.989H224.663ZM236.165 111V105.249V104.115V86.5636H238.981V111H236.165ZM254.43 111.334C253.03 111.334 251.769 111.056 250.648 110.499C249.526 109.942 248.627 109.178 247.951 108.208C247.275 107.238 246.905 106.132 246.841 104.891H249.705C249.816 105.997 250.317 106.911 251.208 107.635C252.107 108.351 253.181 108.709 254.43 108.709C255.432 108.709 256.323 108.474 257.103 108.005C257.89 107.536 258.507 106.891 258.952 106.072C259.406 105.245 259.632 104.31 259.632 103.268C259.632 102.202 259.398 101.252 258.928 100.416C258.467 99.5733 257.831 98.9091 257.019 98.4239C256.208 97.9386 255.281 97.692 254.239 97.6841C253.491 97.6761 252.724 97.7915 251.936 98.0301C251.149 98.2608 250.5 98.5591 249.991 98.925L247.223 98.5909L248.703 86.5636H261.398V89.1886H251.185L250.325 96.3955H250.469C250.97 95.9977 251.598 95.6676 252.354 95.4051C253.11 95.1426 253.897 95.0114 254.716 95.0114C256.212 95.0114 257.544 95.3693 258.713 96.0852C259.891 96.7932 260.813 97.7636 261.482 98.9966C262.158 100.23 262.496 101.638 262.496 103.22C262.496 104.78 262.146 106.172 261.446 107.397C260.754 108.614 259.799 109.576 258.582 110.284C257.365 110.984 255.981 111.334 254.43 111.334ZM275.349 111.334C274.347 111.318 273.345 111.127 272.343 110.761C271.34 110.395 270.426 109.779 269.598 108.912C268.771 108.037 268.107 106.856 267.606 105.368C267.105 103.873 266.854 101.995 266.854 99.7364C266.854 97.5727 267.057 95.6557 267.462 93.9852C267.868 92.3068 268.457 90.8949 269.228 89.7494C270 88.596 270.931 87.721 272.02 87.1244C273.118 86.5278 274.355 86.2295 275.731 86.2295C277.099 86.2295 278.316 86.504 279.382 87.0528C280.456 87.5938 281.331 88.3494 282.007 89.3199C282.684 90.2903 283.121 91.408 283.32 92.6727H280.409C280.138 91.575 279.613 90.6642 278.834 89.9403C278.054 89.2165 277.02 88.8545 275.731 88.8545C273.838 88.8545 272.347 89.6778 271.257 91.3244C270.175 92.971 269.63 95.2818 269.622 98.2568H269.813C270.259 97.5807 270.787 97.004 271.4 96.5267C272.02 96.0415 272.705 95.6676 273.452 95.4051C274.2 95.1426 274.991 95.0114 275.827 95.0114C277.227 95.0114 278.507 95.3614 279.669 96.0614C280.83 96.7534 281.761 97.7119 282.461 98.9369C283.161 100.154 283.511 101.55 283.511 103.125C283.511 104.636 283.173 106.02 282.497 107.277C281.82 108.526 280.87 109.52 279.645 110.26C278.428 110.992 276.996 111.35 275.349 111.334ZM275.349 108.709C276.352 108.709 277.251 108.459 278.046 107.957C278.849 107.456 279.482 106.784 279.943 105.941C280.412 105.098 280.647 104.159 280.647 103.125C280.647 102.115 280.42 101.196 279.967 100.369C279.522 99.5335 278.905 98.8693 278.118 98.3761C277.338 97.883 276.447 97.6364 275.445 97.6364C274.689 97.6364 273.985 97.7875 273.333 98.0898C272.681 98.3841 272.108 98.7898 271.615 99.3068C271.13 99.8239 270.748 100.416 270.469 101.085C270.191 101.745 270.052 102.441 270.052 103.173C270.052 104.143 270.278 105.05 270.732 105.893C271.193 106.736 271.822 107.416 272.617 107.934C273.42 108.451 274.331 108.709 275.349 108.709ZM317.317 111L328.246 89.3795V89.1886H315.646V86.5636H331.301V89.3318L320.419 111H317.317ZM343.083 111.334C341.445 111.334 339.997 111.044 338.74 110.463C337.491 109.874 336.517 109.067 335.817 108.041C335.117 107.007 334.771 105.83 334.779 104.509C334.771 103.475 334.974 102.52 335.387 101.645C335.801 100.763 336.366 100.027 337.082 99.4381C337.806 98.8415 338.613 98.4636 339.504 98.3045V98.1614C338.335 97.8591 337.404 97.2028 336.712 96.1926C336.02 95.1744 335.678 94.017 335.686 92.7205C335.678 91.4795 335.992 90.3699 336.628 89.3915C337.265 88.4131 338.14 87.6415 339.253 87.0767C340.375 86.5119 341.652 86.2295 343.083 86.2295C344.499 86.2295 345.764 86.5119 346.878 87.0767C347.991 87.6415 348.866 88.4131 349.503 89.3915C350.147 90.3699 350.473 91.4795 350.481 92.7205C350.473 94.017 350.119 95.1744 349.419 96.1926C348.727 97.2028 347.808 97.8591 346.663 98.1614V98.3045C347.546 98.4636 348.341 98.8415 349.049 99.4381C349.757 100.027 350.322 100.763 350.744 101.645C351.165 102.52 351.38 103.475 351.388 104.509C351.38 105.83 351.022 107.007 350.314 108.041C349.614 109.067 348.64 109.874 347.391 110.463C346.15 111.044 344.714 111.334 343.083 111.334ZM343.083 108.709C344.189 108.709 345.144 108.53 345.947 108.172C346.75 107.814 347.371 107.309 347.808 106.657C348.246 106.005 348.469 105.241 348.477 104.366C348.469 103.443 348.23 102.628 347.761 101.92C347.291 101.212 346.651 100.655 345.84 100.249C345.036 99.8438 344.117 99.6409 343.083 99.6409C342.041 99.6409 341.111 99.8438 340.291 100.249C339.48 100.655 338.84 101.212 338.37 101.92C337.909 102.628 337.682 103.443 337.69 104.366C337.682 105.241 337.893 106.005 338.323 106.657C338.76 107.309 339.385 107.814 340.196 108.172C341.007 108.53 341.97 108.709 343.083 108.709ZM343.083 97.1114C343.958 97.1114 344.734 96.9364 345.41 96.5864C346.094 96.2364 346.631 95.7472 347.021 95.1188C347.411 94.4903 347.61 93.7545 347.617 92.9114C347.61 92.0841 347.415 91.3642 347.033 90.7517C346.651 90.1312 346.122 89.654 345.446 89.3199C344.77 88.9778 343.982 88.8068 343.083 88.8068C342.169 88.8068 341.369 88.9778 340.685 89.3199C340.001 89.654 339.472 90.1312 339.098 90.7517C338.724 91.3642 338.541 92.0841 338.549 92.9114C338.541 93.7545 338.728 94.4903 339.11 95.1188C339.5 95.7472 340.037 96.2364 340.721 96.5864C341.405 96.9364 342.192 97.1114 343.083 97.1114ZM363.74 86.2295C364.743 86.2375 365.745 86.4284 366.747 86.8023C367.749 87.1761 368.664 87.7966 369.491 88.6636C370.319 89.5227 370.983 90.696 371.484 92.1835C371.985 93.671 372.236 95.5364 372.236 97.7795C372.236 99.9511 372.029 101.88 371.615 103.566C371.21 105.245 370.621 106.661 369.849 107.814C369.086 108.968 368.155 109.843 367.057 110.439C365.968 111.036 364.735 111.334 363.359 111.334C361.99 111.334 360.769 111.064 359.695 110.523C358.63 109.974 357.755 109.214 357.07 108.244C356.394 107.265 355.961 106.132 355.77 104.843H358.681C358.944 105.965 359.465 106.891 360.244 107.623C361.032 108.347 362.07 108.709 363.359 108.709C365.244 108.709 366.731 107.886 367.821 106.239C368.919 104.593 369.468 102.266 369.468 99.2591H369.277C368.831 99.9273 368.302 100.504 367.69 100.989C367.077 101.474 366.397 101.848 365.649 102.111C364.902 102.373 364.106 102.505 363.263 102.505C361.863 102.505 360.578 102.159 359.409 101.466C358.248 100.766 357.317 99.808 356.617 98.5909C355.925 97.3659 355.579 95.9659 355.579 94.3909C355.579 92.8955 355.913 91.5273 356.581 90.2864C357.257 89.0375 358.204 88.0432 359.421 87.3034C360.646 86.5636 362.086 86.2057 363.74 86.2295ZM363.74 88.8545C362.738 88.8545 361.835 89.1051 361.032 89.6063C360.236 90.0994 359.604 90.7676 359.135 91.6108C358.673 92.446 358.443 93.3727 358.443 94.3909C358.443 95.4091 358.665 96.3358 359.111 97.171C359.564 97.9983 360.181 98.6585 360.96 99.1517C361.748 99.6369 362.643 99.8795 363.645 99.8795C364.401 99.8795 365.105 99.7324 365.757 99.4381C366.409 99.1358 366.978 98.7261 367.463 98.2091C367.956 97.6841 368.342 97.0915 368.62 96.4313C368.899 95.7631 369.038 95.067 369.038 94.3432C369.038 93.3886 368.807 92.4937 368.346 91.6585C367.893 90.8233 367.264 90.1472 366.461 89.6301C365.665 89.1131 364.759 88.8545 363.74 88.8545Z" fill="black"/>
<path d="M121.618 137.153C120.957 137.153 120.376 136.995 119.876 136.68C119.38 136.365 118.992 135.925 118.712 135.358C118.435 134.792 118.297 134.13 118.297 133.373C118.297 132.609 118.435 131.942 118.712 131.373C118.992 130.803 119.38 130.361 119.876 130.046C120.376 129.731 120.957 129.574 121.618 129.574C122.28 129.574 122.859 129.731 123.356 130.046C123.855 130.361 124.243 130.803 124.52 131.373C124.8 131.942 124.94 132.609 124.94 133.373C124.94 134.13 124.8 134.792 124.52 135.358C124.243 135.925 123.855 136.365 123.356 136.68C122.859 136.995 122.28 137.153 121.618 137.153ZM121.618 136.141C122.121 136.141 122.535 136.012 122.859 135.754C123.184 135.497 123.424 135.158 123.58 134.738C123.736 134.318 123.814 133.863 123.814 133.373C123.814 132.883 123.736 132.426 123.58 132.003C123.424 131.58 123.184 131.238 122.859 130.977C122.535 130.716 122.121 130.585 121.618 130.585C121.116 130.585 120.702 130.716 120.378 130.977C120.053 131.238 119.813 131.58 119.657 132.003C119.501 132.426 119.423 132.883 119.423 133.373C119.423 133.863 119.501 134.318 119.657 134.738C119.813 135.158 120.053 135.497 120.378 135.754C120.702 136.012 121.116 136.141 121.618 136.141ZM127.786 132.59V137H126.66V129.669H127.748V130.815H127.843C128.015 130.442 128.276 130.143 128.626 129.917C128.976 129.688 129.428 129.574 129.981 129.574C130.478 129.574 130.912 129.675 131.284 129.879C131.657 130.08 131.946 130.385 132.153 130.795C132.36 131.203 132.463 131.718 132.463 132.342V137H131.337V132.418C131.337 131.842 131.187 131.394 130.888 131.072C130.589 130.748 130.179 130.585 129.657 130.585C129.297 130.585 128.976 130.663 128.693 130.819C128.413 130.975 128.192 131.203 128.029 131.502C127.867 131.801 127.786 132.164 127.786 132.59ZM137.595 137.153C136.889 137.153 136.279 136.997 135.767 136.685C135.258 136.37 134.865 135.931 134.588 135.368C134.315 134.801 134.178 134.143 134.178 133.392C134.178 132.641 134.315 131.979 134.588 131.406C134.865 130.83 135.25 130.382 135.743 130.06C136.24 129.736 136.819 129.574 137.481 129.574C137.862 129.574 138.239 129.637 138.612 129.765C138.984 129.892 139.323 130.099 139.628 130.385C139.934 130.668 140.177 131.044 140.359 131.511C140.54 131.979 140.631 132.555 140.631 133.239V133.716H134.98V132.743H139.485C139.485 132.329 139.402 131.96 139.237 131.635C139.075 131.311 138.842 131.055 138.54 130.867C138.241 130.679 137.888 130.585 137.481 130.585C137.032 130.585 136.644 130.697 136.316 130.92C135.992 131.139 135.742 131.425 135.567 131.779C135.392 132.132 135.304 132.51 135.304 132.915V133.564C135.304 134.117 135.4 134.587 135.591 134.972C135.785 135.353 136.054 135.645 136.397 135.845C136.741 136.042 137.14 136.141 137.595 136.141C137.891 136.141 138.158 136.1 138.397 136.017C138.639 135.931 138.847 135.804 139.022 135.635C139.197 135.463 139.332 135.25 139.428 134.995L140.516 135.301C140.402 135.67 140.209 135.995 139.939 136.275C139.668 136.551 139.334 136.768 138.936 136.924C138.539 137.076 138.092 137.153 137.595 137.153ZM147.25 132.59V137H146.124V127.225H147.25V130.815H147.346C147.518 130.436 147.775 130.135 148.119 129.913C148.466 129.687 148.927 129.574 149.503 129.574C150.003 129.574 150.44 129.674 150.816 129.874C151.191 130.072 151.482 130.375 151.689 130.786C151.899 131.193 152.004 131.712 152.004 132.342V137H150.878V132.418C150.878 131.836 150.727 131.386 150.424 131.068C150.125 130.746 149.71 130.585 149.179 130.585C148.809 130.585 148.479 130.663 148.186 130.819C147.896 130.975 147.667 131.203 147.499 131.502C147.333 131.801 147.25 132.164 147.25 132.59ZM158.685 134.003V129.669H159.811V137H158.685V135.759H158.608C158.436 136.131 158.169 136.448 157.806 136.709C157.444 136.967 156.986 137.095 156.432 137.095C155.974 137.095 155.566 136.995 155.21 136.795C154.854 136.591 154.574 136.286 154.37 135.878C154.166 135.468 154.065 134.951 154.065 134.327V129.669H155.191V134.251C155.191 134.785 155.341 135.212 155.64 135.53C155.942 135.848 156.327 136.007 156.795 136.007C157.075 136.007 157.359 135.936 157.649 135.793C157.942 135.649 158.187 135.43 158.384 135.134C158.584 134.838 158.685 134.461 158.685 134.003ZM163 132.59V137H161.874V129.669H162.962V130.815H163.058C163.229 130.442 163.49 130.143 163.84 129.917C164.19 129.688 164.642 129.574 165.196 129.574C165.692 129.574 166.127 129.675 166.499 129.879C166.871 130.08 167.161 130.385 167.367 130.795C167.574 131.203 167.678 131.718 167.678 132.342V137H166.551V132.418C166.551 131.842 166.402 131.394 166.103 131.072C165.804 130.748 165.393 130.585 164.871 130.585C164.512 130.585 164.19 130.663 163.907 130.819C163.627 130.975 163.406 131.203 163.244 131.502C163.082 131.801 163 132.164 163 132.59ZM172.504 137.153C171.893 137.153 171.354 136.998 170.886 136.69C170.418 136.378 170.053 135.939 169.788 135.373C169.524 134.803 169.392 134.13 169.392 133.354C169.392 132.584 169.524 131.915 169.788 131.349C170.053 130.783 170.42 130.345 170.891 130.037C171.362 129.728 171.906 129.574 172.523 129.574C173 129.574 173.378 129.653 173.654 129.812C173.934 129.968 174.148 130.146 174.294 130.347C174.443 130.544 174.56 130.706 174.642 130.834H174.738V127.225H175.864V137H174.776V135.874H174.642C174.56 136.007 174.442 136.176 174.289 136.38C174.136 136.58 173.918 136.76 173.635 136.919C173.352 137.075 172.975 137.153 172.504 137.153ZM172.657 136.141C173.109 136.141 173.49 136.023 173.802 135.788C174.114 135.549 174.351 135.22 174.513 134.8C174.676 134.377 174.757 133.888 174.757 133.335C174.757 132.787 174.677 132.308 174.518 131.898C174.359 131.484 174.124 131.163 173.812 130.934C173.5 130.702 173.115 130.585 172.657 130.585C172.18 130.585 171.782 130.708 171.464 130.953C171.149 131.195 170.912 131.524 170.753 131.941C170.597 132.355 170.519 132.819 170.519 133.335C170.519 133.856 170.598 134.33 170.757 134.757C170.92 135.18 171.158 135.517 171.473 135.769C171.791 136.017 172.186 136.141 172.657 136.141ZM178.083 137V129.669H179.172V130.776H179.248C179.382 130.414 179.623 130.119 179.973 129.893C180.323 129.667 180.718 129.555 181.157 129.555C181.24 129.555 181.343 129.556 181.467 129.559C181.591 129.562 181.685 129.567 181.749 129.574V130.719C181.711 130.71 181.623 130.695 181.486 130.676C181.353 130.654 181.211 130.643 181.062 130.643C180.705 130.643 180.387 130.718 180.107 130.867C179.83 131.013 179.611 131.217 179.448 131.478C179.289 131.736 179.21 132.03 179.21 132.361V137H178.083ZM185.935 137.153C185.228 137.153 184.619 136.997 184.107 136.685C183.597 136.37 183.205 135.931 182.928 135.368C182.654 134.801 182.517 134.143 182.517 133.392C182.517 132.641 182.654 131.979 182.928 131.406C183.205 130.83 183.59 130.382 184.083 130.06C184.579 129.736 185.158 129.574 185.82 129.574C186.202 129.574 186.579 129.637 186.951 129.765C187.323 129.892 187.662 130.099 187.968 130.385C188.273 130.668 188.517 131.044 188.698 131.511C188.879 131.979 188.97 132.555 188.97 133.239V133.716H183.319V132.743H187.825C187.825 132.329 187.742 131.96 187.576 131.635C187.414 131.311 187.182 131.055 186.88 130.867C186.58 130.679 186.227 130.585 185.82 130.585C185.371 130.585 184.983 130.697 184.655 130.92C184.331 131.139 184.081 131.425 183.906 131.779C183.731 132.132 183.644 132.51 183.644 132.915V133.564C183.644 134.117 183.739 134.587 183.93 134.972C184.124 135.353 184.393 135.645 184.737 135.845C185.08 136.042 185.48 136.141 185.935 136.141C186.23 136.141 186.498 136.1 186.736 136.017C186.978 135.931 187.187 135.804 187.362 135.635C187.537 135.463 187.672 135.25 187.767 134.995L188.855 135.301C188.741 135.67 188.548 135.995 188.278 136.275C188.007 136.551 187.673 136.768 187.276 136.924C186.878 137.076 186.431 137.153 185.935 137.153ZM193.452 137.153C192.841 137.153 192.301 136.998 191.834 136.69C191.366 136.378 191 135.939 190.736 135.373C190.472 134.803 190.34 134.13 190.34 133.354C190.34 132.584 190.472 131.915 190.736 131.349C191 130.783 191.367 130.345 191.838 130.037C192.309 129.728 192.853 129.574 193.471 129.574C193.948 129.574 194.325 129.653 194.602 129.812C194.882 129.968 195.095 130.146 195.241 130.347C195.391 130.544 195.507 130.706 195.59 130.834H195.685V127.225H196.812V137H195.723V135.874H195.59C195.507 136.007 195.389 136.176 195.237 136.38C195.084 136.58 194.866 136.76 194.583 136.919C194.3 137.075 193.922 137.153 193.452 137.153ZM193.604 136.141C194.056 136.141 194.438 136.023 194.75 135.788C195.062 135.549 195.299 135.22 195.461 134.8C195.623 134.377 195.704 133.888 195.704 133.335C195.704 132.787 195.625 132.308 195.466 131.898C195.307 131.484 195.071 131.163 194.759 130.934C194.447 130.702 194.062 130.585 193.604 130.585C193.127 130.585 192.729 130.708 192.411 130.953C192.096 131.195 191.859 131.524 191.7 131.941C191.544 132.355 191.466 132.819 191.466 133.335C191.466 133.856 191.546 134.33 191.705 134.757C191.867 135.18 192.106 135.517 192.421 135.769C192.739 136.017 193.133 136.141 193.604 136.141ZM92.8413 153.172C92.3768 153.172 91.9552 153.084 91.5765 152.909C91.1979 152.731 90.8972 152.475 90.6745 152.141C90.4518 151.804 90.3404 151.396 90.3404 150.919C90.3404 150.499 90.4231 150.159 90.5886 149.898C90.754 149.634 90.9752 149.427 91.252 149.277C91.5288 149.128 91.8343 149.016 92.1684 148.943C92.5056 148.867 92.8445 148.806 93.1849 148.762C93.6304 148.705 93.9915 148.662 94.2684 148.633C94.5484 148.601 94.752 148.549 94.8793 148.475C95.0097 148.402 95.0749 148.275 95.0749 148.094V148.055C95.0749 147.585 94.9461 147.219 94.6884 146.958C94.4338 146.697 94.0472 146.566 93.5286 146.566C92.9909 146.566 92.5693 146.684 92.2638 146.92C91.9584 147.155 91.7436 147.406 91.6195 147.674L90.5504 147.292C90.7413 146.846 90.9959 146.5 91.314 146.251C91.6354 146 91.9854 145.825 92.364 145.726C92.7459 145.625 93.1213 145.574 93.4904 145.574C93.7259 145.574 93.9963 145.602 94.3018 145.66C94.6104 145.714 94.9079 145.827 95.1943 145.998C95.4838 146.17 95.724 146.43 95.9149 146.776C96.1059 147.123 96.2013 147.588 96.2013 148.17V153H95.0749V152.007H95.0177C94.9413 152.166 94.814 152.337 94.6359 152.518C94.4577 152.699 94.2206 152.854 93.9247 152.981C93.6288 153.108 93.2677 153.172 92.8413 153.172ZM93.0131 152.16C93.4586 152.16 93.834 152.073 94.1395 151.898C94.4481 151.723 94.6804 151.497 94.8363 151.22C94.9954 150.943 95.0749 150.652 95.0749 150.346V149.315C95.0272 149.373 94.9222 149.425 94.7599 149.473C94.6009 149.517 94.4163 149.557 94.2063 149.592C93.9995 149.624 93.7974 149.653 93.6002 149.678C93.4061 149.7 93.2486 149.72 93.1277 149.735C92.8349 149.774 92.5613 149.836 92.3068 149.922C92.0554 150.004 91.8518 150.13 91.6959 150.299C91.5431 150.464 91.4668 150.69 91.4668 150.976C91.4668 151.368 91.6115 151.664 91.9011 151.864C92.1938 152.061 92.5645 152.16 93.0131 152.16ZM99.3835 148.59V153H98.2572V145.669H99.3453V146.815H99.4408C99.6126 146.442 99.8735 146.143 100.224 145.917C100.574 145.688 101.025 145.574 101.579 145.574C102.075 145.574 102.51 145.675 102.882 145.879C103.254 146.08 103.544 146.385 103.751 146.795C103.957 147.203 104.061 147.718 104.061 148.342V153H102.934V148.418C102.934 147.842 102.785 147.394 102.486 147.072C102.187 146.748 101.776 146.585 101.254 146.585C100.895 146.585 100.574 146.663 100.29 146.819C100.01 146.975 99.7892 147.203 99.6269 147.502C99.4647 147.801 99.3835 148.164 99.3835 148.59ZM108.887 153.153C108.276 153.153 107.737 152.998 107.269 152.69C106.802 152.378 106.436 151.939 106.172 151.373C105.907 150.803 105.775 150.13 105.775 149.354C105.775 148.584 105.907 147.915 106.172 147.349C106.436 146.783 106.803 146.345 107.274 146.037C107.745 145.728 108.289 145.574 108.906 145.574C109.384 145.574 109.761 145.653 110.037 145.812C110.317 145.968 110.531 146.146 110.677 146.347C110.827 146.544 110.943 146.706 111.025 146.834H111.121V143.225H112.247V153H111.159V151.874H111.025C110.943 152.007 110.825 152.176 110.672 152.38C110.519 152.58 110.302 152.76 110.018 152.919C109.735 153.075 109.358 153.153 108.887 153.153ZM109.04 152.141C109.492 152.141 109.874 152.023 110.185 151.788C110.497 151.549 110.734 151.22 110.897 150.8C111.059 150.377 111.14 149.888 111.14 149.335C111.14 148.787 111.06 148.308 110.901 147.898C110.742 147.484 110.507 147.163 110.195 146.934C109.883 146.702 109.498 146.585 109.04 146.585C108.563 146.585 108.165 146.708 107.847 146.953C107.532 147.195 107.295 147.524 107.136 147.941C106.98 148.355 106.902 148.819 106.902 149.335C106.902 149.856 106.981 150.33 107.14 150.757C107.303 151.18 107.541 151.517 107.856 151.769C108.174 152.017 108.569 152.141 109.04 152.141ZM121.435 145.669V146.624H117.636V145.669H121.435ZM118.743 143.913H119.869V150.9C119.869 151.218 119.915 151.457 120.008 151.616C120.103 151.772 120.224 151.877 120.37 151.931C120.52 151.982 120.677 152.007 120.843 152.007C120.967 152.007 121.069 152.001 121.148 151.988C121.228 151.972 121.292 151.96 121.339 151.95L121.568 152.962C121.492 152.99 121.385 153.019 121.249 153.048C121.112 153.08 120.938 153.095 120.728 153.095C120.41 153.095 120.098 153.027 119.793 152.89C119.491 152.753 119.239 152.545 119.039 152.265C118.842 151.985 118.743 151.632 118.743 151.205V143.913ZM124.79 153L122.556 145.669H123.74L125.324 151.282H125.401L126.966 145.669H128.169L129.715 151.263H129.792L131.376 145.669H132.56L130.326 153H129.219L127.615 147.368H127.501L125.897 153H124.79ZM136.873 153.153C136.167 153.153 135.558 152.997 135.045 152.685C134.536 152.37 134.143 151.931 133.866 151.368C133.593 150.801 133.456 150.143 133.456 149.392C133.456 148.641 133.593 147.979 133.866 147.406C134.143 146.83 134.528 146.382 135.021 146.06C135.518 145.736 136.097 145.574 136.759 145.574C137.141 145.574 137.518 145.637 137.89 145.765C138.262 145.892 138.601 146.099 138.906 146.385C139.212 146.668 139.455 147.044 139.637 147.511C139.818 147.979 139.909 148.555 139.909 149.239V149.716H134.258V148.743H138.763C138.763 148.329 138.681 147.96 138.515 147.635C138.353 147.311 138.121 147.055 137.818 146.867C137.519 146.679 137.166 146.585 136.759 146.585C136.31 146.585 135.922 146.697 135.594 146.92C135.27 147.139 135.02 147.425 134.845 147.779C134.67 148.132 134.582 148.51 134.582 148.915V149.564C134.582 150.117 134.678 150.587 134.869 150.972C135.063 151.353 135.332 151.645 135.675 151.845C136.019 152.042 136.418 152.141 136.873 152.141C137.169 152.141 137.436 152.1 137.675 152.017C137.917 151.931 138.125 151.804 138.3 151.635C138.475 151.463 138.611 151.25 138.706 150.995L139.794 151.301C139.68 151.67 139.487 151.995 139.217 152.275C138.946 152.551 138.612 152.768 138.214 152.924C137.817 153.076 137.37 153.153 136.873 153.153ZM142.749 148.59V153H141.622V145.669H142.71V146.815H142.806C142.978 146.442 143.239 146.143 143.589 145.917C143.939 145.688 144.39 145.574 144.944 145.574C145.44 145.574 145.875 145.675 146.247 145.879C146.619 146.08 146.909 146.385 147.116 146.795C147.322 147.203 147.426 147.718 147.426 148.342V153H146.299V148.418C146.299 147.842 146.15 147.394 145.851 147.072C145.552 146.748 145.141 146.585 144.619 146.585C144.26 146.585 143.939 146.663 143.655 146.819C143.375 146.975 143.154 147.203 142.992 147.502C142.83 147.801 142.749 148.164 142.749 148.59ZM152.672 145.669V146.624H148.873V145.669H152.672ZM149.98 143.913H151.107V150.9C151.107 151.218 151.153 151.457 151.245 151.616C151.341 151.772 151.462 151.877 151.608 151.931C151.757 151.982 151.915 152.007 152.08 152.007C152.204 152.007 152.306 152.001 152.386 151.988C152.465 151.972 152.529 151.96 152.577 151.95L152.806 152.962C152.729 152.99 152.623 153.019 152.486 153.048C152.349 153.08 152.176 153.095 151.966 153.095C151.648 153.095 151.336 153.027 151.03 152.89C150.728 152.753 150.477 152.545 150.276 152.265C150.079 151.985 149.98 151.632 149.98 151.205V143.913ZM155.092 155.749C154.901 155.749 154.731 155.733 154.581 155.701C154.432 155.673 154.328 155.644 154.271 155.615L154.557 154.623C154.831 154.693 155.073 154.718 155.283 154.699C155.493 154.68 155.679 154.586 155.841 154.417C156.007 154.252 156.158 153.983 156.295 153.611L156.505 153.038L153.794 145.669H155.016L157.039 151.511H157.116L159.139 145.669H160.361L157.249 154.069C157.109 154.448 156.936 154.761 156.729 155.009C156.522 155.261 156.282 155.447 156.008 155.568C155.738 155.689 155.432 155.749 155.092 155.749ZM168.816 145.669V146.624H165.017V145.669H168.816ZM166.124 143.913H167.251V150.9C167.251 151.218 167.297 151.457 167.389 151.616C167.484 151.772 167.605 151.877 167.752 151.931C167.901 151.982 168.059 152.007 168.224 152.007C168.348 152.007 168.45 152.001 168.53 151.988C168.609 151.972 168.673 151.96 168.721 151.95L168.95 152.962C168.873 152.99 168.767 153.019 168.63 153.048C168.493 153.08 168.32 153.095 168.11 153.095C167.791 153.095 167.48 153.027 167.174 152.89C166.872 152.753 166.621 152.545 166.42 152.265C166.223 151.985 166.124 151.632 166.124 151.205V143.913ZM171.794 148.59V153H170.668V143.225H171.794V146.815H171.89C172.061 146.436 172.319 146.135 172.663 145.913C173.01 145.687 173.471 145.574 174.047 145.574C174.546 145.574 174.984 145.674 175.359 145.874C175.735 146.072 176.026 146.375 176.233 146.786C176.443 147.193 176.548 147.712 176.548 148.342V153H175.421V148.418C175.421 147.836 175.27 147.386 174.968 147.068C174.669 146.746 174.254 146.585 173.722 146.585C173.353 146.585 173.022 146.663 172.73 146.819C172.44 146.975 172.211 147.203 172.042 147.502C171.877 147.801 171.794 148.164 171.794 148.59ZM178.608 153V145.669H179.697V146.776H179.773C179.907 146.414 180.148 146.119 180.498 145.893C180.848 145.667 181.243 145.555 181.682 145.555C181.765 145.555 181.868 145.556 181.992 145.559C182.116 145.562 182.21 145.567 182.274 145.574V146.719C182.236 146.71 182.148 146.695 182.011 146.676C181.878 146.654 181.736 146.643 181.587 146.643C181.23 146.643 180.912 146.718 180.632 146.867C180.355 147.013 180.136 147.217 179.973 147.478C179.814 147.736 179.735 148.03 179.735 148.361V153H178.608ZM186.46 153.153C185.753 153.153 185.144 152.997 184.632 152.685C184.123 152.37 183.73 151.931 183.453 151.368C183.179 150.801 183.042 150.143 183.042 149.392C183.042 148.641 183.179 147.979 183.453 147.406C183.73 146.83 184.115 146.382 184.608 146.06C185.104 145.736 185.683 145.574 186.345 145.574C186.727 145.574 187.104 145.637 187.476 145.765C187.848 145.892 188.187 146.099 188.493 146.385C188.798 146.668 189.042 147.044 189.223 147.511C189.404 147.979 189.495 148.555 189.495 149.239V149.716H183.844V148.743H188.35C188.35 148.329 188.267 147.96 188.101 147.635C187.939 147.311 187.707 147.055 187.405 146.867C187.105 146.679 186.752 146.585 186.345 146.585C185.896 146.585 185.508 146.697 185.18 146.92C184.856 147.139 184.606 147.425 184.431 147.779C184.256 148.132 184.169 148.51 184.169 148.915V149.564C184.169 150.117 184.264 150.587 184.455 150.972C184.649 151.353 184.918 151.645 185.262 151.845C185.605 152.042 186.005 152.141 186.46 152.141C186.755 152.141 187.023 152.1 187.261 152.017C187.503 151.931 187.712 151.804 187.887 151.635C188.062 151.463 188.197 151.25 188.292 150.995L189.38 151.301C189.266 151.67 189.073 151.995 188.803 152.275C188.533 152.551 188.198 152.768 187.801 152.924C187.403 153.076 186.956 153.153 186.46 153.153ZM194.282 153.153C193.576 153.153 192.966 152.997 192.454 152.685C191.945 152.37 191.552 151.931 191.275 151.368C191.002 150.801 190.865 150.143 190.865 149.392C190.865 148.641 191.002 147.979 191.275 147.406C191.552 146.83 191.937 146.382 192.43 146.06C192.927 145.736 193.506 145.574 194.168 145.574C194.549 145.574 194.926 145.637 195.299 145.765C195.671 145.892 196.01 146.099 196.315 146.385C196.621 146.668 196.864 147.044 197.045 147.511C197.227 147.979 197.318 148.555 197.318 149.239V149.716H191.667V148.743H196.172C196.172 148.329 196.089 147.96 195.924 147.635C195.762 147.311 195.529 147.055 195.227 146.867C194.928 146.679 194.575 146.585 194.168 146.585C193.719 146.585 193.331 146.697 193.003 146.92C192.678 147.139 192.429 147.425 192.254 147.779C192.079 148.132 191.991 148.51 191.991 148.915V149.564C191.991 150.117 192.087 150.587 192.278 150.972C192.472 151.353 192.74 151.645 193.084 151.845C193.428 152.042 193.827 152.141 194.282 152.141C194.578 152.141 194.845 152.1 195.084 152.017C195.326 151.931 195.534 151.804 195.709 151.635C195.884 151.463 196.019 151.25 196.115 150.995L197.203 151.301C197.088 151.67 196.896 151.995 196.625 152.275C196.355 152.551 196.021 152.768 195.623 152.924C195.225 153.076 194.778 153.153 194.282 153.153ZM158.711 169V161.669H159.799V162.815H159.895C160.047 162.423 160.294 162.119 160.634 161.903C160.975 161.683 161.384 161.574 161.861 161.574C162.345 161.574 162.747 161.683 163.068 161.903C163.393 162.119 163.646 162.423 163.827 162.815H163.904C164.091 162.436 164.373 162.135 164.748 161.913C165.124 161.687 165.574 161.574 166.099 161.574C166.755 161.574 167.291 161.779 167.707 162.189C168.124 162.597 168.333 163.231 168.333 164.094V169H167.206V164.094C167.206 163.553 167.058 163.166 166.763 162.934C166.467 162.702 166.118 162.585 165.717 162.585C165.202 162.585 164.803 162.741 164.519 163.053C164.236 163.362 164.095 163.753 164.095 164.227V169H162.949V163.979C162.949 163.562 162.814 163.227 162.543 162.972C162.273 162.714 161.925 162.585 161.498 162.585C161.205 162.585 160.932 162.663 160.677 162.819C160.426 162.975 160.222 163.192 160.066 163.468C159.914 163.742 159.837 164.059 159.837 164.418V169H158.711ZM170.392 169V161.669H171.519V169H170.392ZM170.965 160.447C170.745 160.447 170.556 160.373 170.397 160.223C170.241 160.073 170.163 159.894 170.163 159.684C170.163 159.474 170.241 159.294 170.397 159.144C170.556 158.995 170.745 158.92 170.965 158.92C171.184 158.92 171.372 158.995 171.528 159.144C171.687 159.294 171.767 159.474 171.767 159.684C171.767 159.894 171.687 160.073 171.528 160.223C171.372 160.373 171.184 160.447 170.965 160.447ZM174.708 159.225V169H173.582V159.225H174.708ZM177.897 159.225V169H176.771V159.225H177.897ZM179.96 169V161.669H181.087V169H179.96ZM180.533 160.447C180.313 160.447 180.124 160.373 179.965 160.223C179.809 160.073 179.731 159.894 179.731 159.684C179.731 159.474 179.809 159.294 179.965 159.144C180.124 158.995 180.313 158.92 180.533 158.92C180.753 158.92 180.94 158.995 181.096 159.144C181.255 159.294 181.335 159.474 181.335 159.684C181.335 159.894 181.255 160.073 181.096 160.223C180.94 160.373 180.753 160.447 180.533 160.447ZM186.128 169.153C185.466 169.153 184.885 168.995 184.386 168.68C183.889 168.365 183.501 167.925 183.221 167.358C182.944 166.792 182.806 166.13 182.806 165.373C182.806 164.609 182.944 163.942 183.221 163.373C183.501 162.803 183.889 162.361 184.386 162.046C184.885 161.731 185.466 161.574 186.128 161.574C186.79 161.574 187.369 161.731 187.865 162.046C188.365 162.361 188.753 162.803 189.03 163.373C189.31 163.942 189.45 164.609 189.45 165.373C189.45 166.13 189.31 166.792 189.03 167.358C188.753 167.925 188.365 168.365 187.865 168.68C187.369 168.995 186.79 169.153 186.128 169.153ZM186.128 168.141C186.631 168.141 187.044 168.012 187.369 167.754C187.693 167.497 187.934 167.158 188.089 166.738C188.245 166.318 188.323 165.863 188.323 165.373C188.323 164.883 188.245 164.426 188.089 164.003C187.934 163.58 187.693 163.238 187.369 162.977C187.044 162.716 186.631 162.585 186.128 162.585C185.625 162.585 185.211 162.716 184.887 162.977C184.562 163.238 184.322 163.58 184.166 164.003C184.01 164.426 183.932 164.883 183.932 165.373C183.932 165.863 184.01 166.318 184.166 166.738C184.322 167.158 184.562 167.497 184.887 167.754C185.211 168.012 185.625 168.141 186.128 168.141ZM192.295 164.59V169H191.169V161.669H192.257V162.815H192.353C192.524 162.442 192.785 162.143 193.135 161.917C193.485 161.688 193.937 161.574 194.491 161.574C194.987 161.574 195.422 161.675 195.794 161.879C196.166 162.08 196.456 162.385 196.662 162.795C196.869 163.203 196.973 163.718 196.973 164.342V169H195.846V164.418C195.846 163.842 195.697 163.394 195.398 163.072C195.099 162.748 194.688 162.585 194.166 162.585C193.807 162.585 193.485 162.663 193.202 162.819C192.922 162.975 192.701 163.203 192.539 163.502C192.377 163.801 192.295 164.164 192.295 164.59Z" fill="black"/>
<path d="M217.377 129.669V130.624H213.425V129.669H217.377ZM214.609 137V128.657C214.609 128.237 214.707 127.887 214.904 127.607C215.102 127.327 215.358 127.117 215.673 126.977C215.988 126.837 216.32 126.767 216.67 126.767C216.947 126.767 217.173 126.79 217.348 126.834C217.523 126.879 217.654 126.92 217.739 126.958L217.415 127.932C217.358 127.913 217.278 127.889 217.176 127.86C217.078 127.832 216.947 127.817 216.785 127.817C216.413 127.817 216.144 127.911 215.978 128.099C215.816 128.287 215.735 128.562 215.735 128.925V137H214.609ZM221.632 137.153C220.97 137.153 220.389 136.995 219.89 136.68C219.393 136.365 219.005 135.925 218.725 135.358C218.448 134.792 218.31 134.13 218.31 133.373C218.31 132.609 218.448 131.942 218.725 131.373C219.005 130.803 219.393 130.361 219.89 130.046C220.389 129.731 220.97 129.574 221.632 129.574C222.293 129.574 222.873 129.731 223.369 130.046C223.868 130.361 224.257 130.803 224.533 131.373C224.813 131.942 224.953 132.609 224.953 133.373C224.953 134.13 224.813 134.792 224.533 135.358C224.257 135.925 223.868 136.365 223.369 136.68C222.873 136.995 222.293 137.153 221.632 137.153ZM221.632 136.141C222.134 136.141 222.548 136.012 222.873 135.754C223.197 135.497 223.437 135.158 223.593 134.738C223.749 134.318 223.827 133.863 223.827 133.373C223.827 132.883 223.749 132.426 223.593 132.003C223.437 131.58 223.197 131.238 222.873 130.977C222.548 130.716 222.134 130.585 221.632 130.585C221.129 130.585 220.715 130.716 220.391 130.977C220.066 131.238 219.826 131.58 219.67 132.003C219.514 132.426 219.436 132.883 219.436 133.373C219.436 133.863 219.514 134.318 219.67 134.738C219.826 135.158 220.066 135.497 220.391 135.754C220.715 136.012 221.129 136.141 221.632 136.141ZM231.293 134.003V129.669H232.419V137H231.293V135.759H231.216C231.045 136.131 230.777 136.448 230.415 136.709C230.052 136.967 229.594 137.095 229.04 137.095C228.582 137.095 228.175 136.995 227.818 136.795C227.462 136.591 227.182 136.286 226.978 135.878C226.775 135.468 226.673 134.951 226.673 134.327V129.669H227.799V134.251C227.799 134.785 227.949 135.212 228.248 135.53C228.55 135.848 228.935 136.007 229.403 136.007C229.683 136.007 229.968 135.936 230.257 135.793C230.55 135.649 230.795 135.43 230.992 135.134C231.193 134.838 231.293 134.461 231.293 134.003ZM234.482 137V129.669H235.57V130.776H235.647C235.78 130.414 236.022 130.119 236.372 129.893C236.722 129.667 237.117 129.555 237.556 129.555C237.639 129.555 237.742 129.556 237.866 129.559C237.99 129.562 238.084 129.567 238.148 129.574V130.719C238.109 130.71 238.022 130.695 237.885 130.676C237.751 130.654 237.61 130.643 237.46 130.643C237.104 130.643 236.786 130.718 236.506 130.867C236.229 131.013 236.009 131.217 235.847 131.478C235.688 131.736 235.609 132.03 235.609 132.361V137H234.482ZM244.389 132.59V137H243.263V127.225H244.389V130.815H244.485C244.656 130.436 244.914 130.135 245.258 129.913C245.605 129.687 246.066 129.574 246.642 129.574C247.141 129.574 247.579 129.674 247.954 129.874C248.33 130.072 248.621 130.375 248.828 130.786C249.038 131.193 249.143 131.712 249.143 132.342V137H248.016V132.418C248.016 131.836 247.865 131.386 247.563 131.068C247.264 130.746 246.849 130.585 246.317 130.585C245.948 130.585 245.617 130.663 245.325 130.819C245.035 130.975 244.806 131.203 244.637 131.502C244.472 131.801 244.389 132.164 244.389 132.59ZM255.823 134.003V129.669H256.95V137H255.823V135.759H255.747C255.575 136.131 255.308 136.448 254.945 136.709C254.583 136.967 254.124 137.095 253.571 137.095C253.113 137.095 252.705 136.995 252.349 136.795C251.993 136.591 251.713 136.286 251.509 135.878C251.305 135.468 251.203 134.951 251.203 134.327V129.669H252.33V134.251C252.33 134.785 252.479 135.212 252.778 135.53C253.081 135.848 253.466 136.007 253.933 136.007C254.213 136.007 254.498 135.936 254.788 135.793C255.08 135.649 255.325 135.43 255.523 135.134C255.723 134.838 255.823 134.461 255.823 134.003ZM260.139 132.59V137H259.013V129.669H260.101V130.815H260.196C260.368 130.442 260.629 130.143 260.979 129.917C261.329 129.688 261.781 129.574 262.335 129.574C262.831 129.574 263.265 129.675 263.638 129.879C264.01 130.08 264.299 130.385 264.506 130.795C264.713 131.203 264.816 131.718 264.816 132.342V137H263.69V132.418C263.69 131.842 263.541 131.394 263.241 131.072C262.942 130.748 262.532 130.585 262.01 130.585C261.651 130.585 261.329 130.663 261.046 130.819C260.766 130.975 260.545 131.203 260.383 131.502C260.22 131.801 260.139 132.164 260.139 132.59ZM269.643 137.153C269.032 137.153 268.493 136.998 268.025 136.69C267.557 136.378 267.191 135.939 266.927 135.373C266.663 134.803 266.531 134.13 266.531 133.354C266.531 132.584 266.663 131.915 266.927 131.349C267.191 130.783 267.559 130.345 268.03 130.037C268.501 129.728 269.045 129.574 269.662 129.574C270.139 129.574 270.516 129.653 270.793 129.812C271.073 129.968 271.286 130.146 271.433 130.347C271.582 130.544 271.698 130.706 271.781 130.834H271.876V127.225H273.003V137H271.915V135.874H271.781C271.698 136.007 271.581 136.176 271.428 136.38C271.275 136.58 271.057 136.76 270.774 136.919C270.491 137.075 270.114 137.153 269.643 137.153ZM269.796 136.141C270.247 136.141 270.629 136.023 270.941 135.788C271.253 135.549 271.49 135.22 271.652 134.8C271.814 134.377 271.896 133.888 271.896 133.335C271.896 132.787 271.816 132.308 271.657 131.898C271.498 131.484 271.262 131.163 270.951 130.934C270.639 130.702 270.254 130.585 269.796 130.585C269.318 130.585 268.921 130.708 268.602 130.953C268.287 131.195 268.05 131.524 267.891 131.941C267.735 132.355 267.657 132.819 267.657 133.335C267.657 133.856 267.737 134.33 267.896 134.757C268.058 135.18 268.297 135.517 268.612 135.769C268.93 136.017 269.325 136.141 269.796 136.141ZM275.222 137V129.669H276.31V130.776H276.387C276.52 130.414 276.762 130.119 277.112 129.893C277.462 129.667 277.857 129.555 278.296 129.555C278.379 129.555 278.482 129.556 278.606 129.559C278.73 129.562 278.824 129.567 278.888 129.574V130.719C278.849 130.71 278.762 130.695 278.625 130.676C278.491 130.654 278.35 130.643 278.2 130.643C277.844 130.643 277.526 130.718 277.246 130.867C276.969 131.013 276.749 131.217 276.587 131.478C276.428 131.736 276.349 132.03 276.349 132.361V137H275.222ZM283.073 137.153C282.367 137.153 281.758 136.997 281.245 136.685C280.736 136.37 280.343 135.931 280.066 135.368C279.793 134.801 279.656 134.143 279.656 133.392C279.656 132.641 279.793 131.979 280.066 131.406C280.343 130.83 280.728 130.382 281.221 130.06C281.718 129.736 282.297 129.574 282.959 129.574C283.341 129.574 283.718 129.637 284.09 129.765C284.462 129.892 284.801 130.099 285.106 130.385C285.412 130.668 285.655 131.044 285.837 131.511C286.018 131.979 286.109 132.555 286.109 133.239V133.716H280.458V132.743H284.963C284.963 132.329 284.881 131.96 284.715 131.635C284.553 131.311 284.321 131.055 284.018 130.867C283.719 130.679 283.366 130.585 282.959 130.585C282.51 130.585 282.122 130.697 281.794 130.92C281.47 131.139 281.22 131.425 281.045 131.779C280.87 132.132 280.782 132.51 280.782 132.915V133.564C280.782 134.117 280.878 134.587 281.069 134.972C281.263 135.353 281.532 135.645 281.875 135.845C282.219 136.042 282.618 136.141 283.073 136.141C283.369 136.141 283.636 136.1 283.875 136.017C284.117 135.931 284.325 135.804 284.5 135.635C284.675 135.463 284.811 135.25 284.906 134.995L285.994 135.301C285.88 135.67 285.687 135.995 285.417 136.275C285.146 136.551 284.812 136.768 284.414 136.924C284.017 137.076 283.57 137.153 283.073 137.153ZM290.59 137.153C289.979 137.153 289.44 136.998 288.972 136.69C288.505 136.378 288.139 135.939 287.875 135.373C287.611 134.803 287.479 134.13 287.479 133.354C287.479 132.584 287.611 131.915 287.875 131.349C288.139 130.783 288.506 130.345 288.977 130.037C289.448 129.728 289.992 129.574 290.609 129.574C291.087 129.574 291.464 129.653 291.741 129.812C292.021 129.968 292.234 130.146 292.38 130.347C292.53 130.544 292.646 130.706 292.729 130.834H292.824V127.225H293.95V137H292.862V135.874H292.729C292.646 136.007 292.528 136.176 292.375 136.38C292.223 136.58 292.005 136.76 291.721 136.919C291.438 137.075 291.061 137.153 290.59 137.153ZM290.743 136.141C291.195 136.141 291.577 136.023 291.889 135.788C292.2 135.549 292.437 135.22 292.6 134.8C292.762 134.377 292.843 133.888 292.843 133.335C292.843 132.787 292.764 132.308 292.604 131.898C292.445 131.484 292.21 131.163 291.898 130.934C291.586 130.702 291.201 130.585 290.743 130.585C290.266 130.585 289.868 130.708 289.55 130.953C289.235 131.195 288.998 131.524 288.839 131.941C288.683 132.355 288.605 132.819 288.605 133.335C288.605 133.856 288.684 134.33 288.844 134.757C289.006 135.18 289.244 135.517 289.559 135.769C289.878 136.017 290.272 136.141 290.743 136.141ZM220.273 153.172C219.808 153.172 219.386 153.084 219.008 152.909C218.629 152.731 218.328 152.475 218.106 152.141C217.883 151.804 217.772 151.396 217.772 150.919C217.772 150.499 217.854 150.159 218.02 149.898C218.185 149.634 218.406 149.427 218.683 149.277C218.96 149.128 219.266 149.016 219.6 148.943C219.937 148.867 220.276 148.806 220.616 148.762C221.062 148.705 221.423 148.662 221.7 148.633C221.98 148.601 222.183 148.549 222.311 148.475C222.441 148.402 222.506 148.275 222.506 148.094V148.055C222.506 147.585 222.377 147.219 222.12 146.958C221.865 146.697 221.478 146.566 220.96 146.566C220.422 146.566 220.001 146.684 219.695 146.92C219.39 147.155 219.175 147.406 219.051 147.674L217.982 147.292C218.173 146.846 218.427 146.5 218.745 146.251C219.067 146 219.417 145.825 219.795 145.726C220.177 145.625 220.553 145.574 220.922 145.574C221.157 145.574 221.428 145.602 221.733 145.66C222.042 145.714 222.339 145.827 222.626 145.998C222.915 146.17 223.155 146.43 223.346 146.776C223.537 147.123 223.633 147.588 223.633 148.17V153H222.506V152.007H222.449C222.373 152.166 222.245 152.337 222.067 152.518C221.889 152.699 221.652 152.854 221.356 152.981C221.06 153.108 220.699 153.172 220.273 153.172ZM220.444 152.16C220.89 152.16 221.265 152.073 221.571 151.898C221.879 151.723 222.112 151.497 222.268 151.22C222.427 150.943 222.506 150.652 222.506 150.346V149.315C222.458 149.373 222.353 149.425 222.191 149.473C222.032 149.517 221.848 149.557 221.638 149.592C221.431 149.624 221.229 149.653 221.031 149.678C220.837 149.7 220.68 149.72 220.559 149.735C220.266 149.774 219.993 149.836 219.738 149.922C219.487 150.004 219.283 150.13 219.127 150.299C218.974 150.464 218.898 150.69 218.898 150.976C218.898 151.368 219.043 151.664 219.332 151.864C219.625 152.061 219.996 152.16 220.444 152.16ZM226.815 148.59V153H225.688V145.669H226.777V146.815H226.872C227.044 146.442 227.305 146.143 227.655 145.917C228.005 145.688 228.457 145.574 229.01 145.574C229.507 145.574 229.941 145.675 230.313 145.879C230.685 146.08 230.975 146.385 231.182 146.795C231.389 147.203 231.492 147.718 231.492 148.342V153H230.366V148.418C230.366 147.842 230.216 147.394 229.917 147.072C229.618 146.748 229.208 146.585 228.686 146.585C228.326 146.585 228.005 146.663 227.722 146.819C227.442 146.975 227.22 147.203 227.058 147.502C226.896 147.801 226.815 148.164 226.815 148.59ZM236.318 153.153C235.708 153.153 235.168 152.998 234.701 152.69C234.233 152.378 233.867 151.939 233.603 151.373C233.339 150.803 233.207 150.13 233.207 149.354C233.207 148.584 233.339 147.915 233.603 147.349C233.867 146.783 234.234 146.345 234.705 146.037C235.176 145.728 235.72 145.574 236.338 145.574C236.815 145.574 237.192 145.653 237.469 145.812C237.749 145.968 237.962 146.146 238.108 146.347C238.258 146.544 238.374 146.706 238.457 146.834H238.552V143.225H239.678V153H238.59V151.874H238.457C238.374 152.007 238.256 152.176 238.103 152.38C237.951 152.58 237.733 152.76 237.45 152.919C237.166 153.075 236.789 153.153 236.318 153.153ZM236.471 152.141C236.923 152.141 237.305 152.023 237.617 151.788C237.928 151.549 238.166 151.22 238.328 150.8C238.49 150.377 238.571 149.888 238.571 149.335C238.571 148.787 238.492 148.308 238.333 147.898C238.173 147.484 237.938 147.163 237.626 146.934C237.314 146.702 236.929 146.585 236.471 146.585C235.994 146.585 235.596 146.708 235.278 146.953C234.963 147.195 234.726 147.524 234.567 147.941C234.411 148.355 234.333 148.819 234.333 149.335C234.333 149.856 234.413 150.33 234.572 150.757C234.734 151.18 234.973 151.517 235.288 151.769C235.606 152.017 236 152.141 236.471 152.141ZM248.942 145.669V146.624H244.991V145.669H248.942ZM246.174 153V144.657C246.174 144.237 246.273 143.887 246.47 143.607C246.667 143.327 246.923 143.117 247.238 142.977C247.553 142.837 247.886 142.767 248.236 142.767C248.513 142.767 248.739 142.79 248.914 142.834C249.089 142.879 249.219 142.92 249.305 142.958L248.981 143.932C248.923 143.913 248.844 143.889 248.742 143.86C248.643 143.832 248.513 143.817 248.351 143.817C247.978 143.817 247.709 143.911 247.544 144.099C247.382 144.287 247.301 144.562 247.301 144.925V153H246.174ZM250.521 153V145.669H251.647V153H250.521ZM251.094 144.447C250.874 144.447 250.685 144.373 250.526 144.223C250.37 144.073 250.292 143.894 250.292 143.684C250.292 143.474 250.37 143.294 250.526 143.144C250.685 142.995 250.874 142.92 251.094 142.92C251.313 142.92 251.501 142.995 251.657 143.144C251.816 143.294 251.895 143.474 251.895 143.684C251.895 143.894 251.816 144.073 251.657 144.223C251.501 144.373 251.313 144.447 251.094 144.447ZM256.975 145.669V146.624H253.023V145.669H256.975ZM254.207 153V144.657C254.207 144.237 254.305 143.887 254.503 143.607C254.7 143.327 254.956 143.117 255.271 142.977C255.586 142.837 255.918 142.767 256.268 142.767C256.545 142.767 256.771 142.79 256.946 142.834C257.121 142.879 257.252 142.92 257.338 142.958L257.013 143.932C256.956 143.913 256.876 143.889 256.774 143.86C256.676 143.832 256.545 143.817 256.383 143.817C256.011 143.817 255.742 143.911 255.576 144.099C255.414 144.287 255.333 144.562 255.333 144.925V153H254.207ZM261.742 145.669V146.624H257.943V145.669H261.742ZM259.05 143.913H260.176V150.9C260.176 151.218 260.222 151.457 260.315 151.616C260.41 151.772 260.531 151.877 260.677 151.931C260.827 151.982 260.984 152.007 261.15 152.007C261.274 152.007 261.376 152.001 261.455 151.988C261.535 151.972 261.598 151.96 261.646 151.95L261.875 152.962C261.799 152.99 261.692 153.019 261.555 153.048C261.419 153.08 261.245 153.095 261.035 153.095C260.717 153.095 260.405 153.027 260.1 152.89C259.798 152.753 259.546 152.545 259.346 152.265C259.148 151.985 259.05 151.632 259.05 151.205V143.913ZM264.161 155.749C263.97 155.749 263.8 155.733 263.651 155.701C263.501 155.673 263.398 155.644 263.34 155.615L263.627 154.623C263.9 154.693 264.142 154.718 264.352 154.699C264.562 154.68 264.748 154.586 264.911 154.417C265.076 154.252 265.227 153.983 265.364 153.611L265.574 153.038L262.863 145.669H264.085L266.109 151.511H266.185L268.209 145.669H269.43L266.319 154.069C266.179 154.448 266.005 154.761 265.798 155.009C265.592 155.261 265.351 155.447 265.078 155.568C264.807 155.689 264.502 155.749 264.161 155.749ZM279.89 147.311L278.878 147.597C278.814 147.429 278.721 147.265 278.596 147.106C278.476 146.943 278.31 146.81 278.1 146.705C277.89 146.6 277.621 146.547 277.294 146.547C276.845 146.547 276.471 146.651 276.172 146.858C275.876 147.061 275.728 147.32 275.728 147.635C275.728 147.915 275.83 148.137 276.034 148.299C276.237 148.461 276.555 148.596 276.988 148.705L278.076 148.972C278.732 149.131 279.22 149.374 279.541 149.702C279.863 150.027 280.024 150.445 280.024 150.957C280.024 151.377 279.903 151.753 279.661 152.084C279.422 152.415 279.088 152.675 278.659 152.866C278.229 153.057 277.729 153.153 277.16 153.153C276.412 153.153 275.793 152.99 275.303 152.666C274.813 152.341 274.503 151.867 274.373 151.244L275.442 150.976C275.544 151.371 275.736 151.667 276.019 151.864C276.306 152.061 276.679 152.16 277.141 152.16C277.666 152.16 278.083 152.049 278.391 151.826C278.703 151.6 278.859 151.33 278.859 151.015C278.859 150.76 278.77 150.547 278.592 150.375C278.414 150.2 278.14 150.07 277.771 149.984L276.549 149.697C275.878 149.538 275.384 149.292 275.069 148.958C274.758 148.62 274.602 148.199 274.602 147.693C274.602 147.279 274.718 146.913 274.95 146.595C275.186 146.277 275.505 146.027 275.909 145.846C276.317 145.664 276.778 145.574 277.294 145.574C278.019 145.574 278.589 145.733 279.002 146.051C279.419 146.369 279.715 146.789 279.89 147.311ZM281.719 153V145.669H282.845V153H281.719ZM282.292 144.447C282.072 144.447 281.883 144.373 281.724 144.223C281.568 144.073 281.49 143.894 281.49 143.684C281.49 143.474 281.568 143.294 281.724 143.144C281.883 142.995 282.072 142.92 282.292 142.92C282.511 142.92 282.699 142.995 282.855 143.144C283.014 143.294 283.094 143.474 283.094 143.684C283.094 143.894 283.014 144.073 282.855 144.223C282.699 144.373 282.511 144.447 282.292 144.447ZM285.748 145.669L287.505 148.666L289.261 145.669H290.559L288.192 149.335L290.559 153H289.261L287.505 150.155L285.748 153H284.45L286.779 149.335L284.45 145.669H285.748ZM230.412 161.669V162.624H226.613V161.669H230.412ZM227.72 159.913H228.847V166.9C228.847 167.218 228.893 167.457 228.985 167.616C229.081 167.772 229.202 167.877 229.348 167.931C229.497 167.982 229.655 168.007 229.82 168.007C229.944 168.007 230.046 168.001 230.126 167.988C230.205 167.972 230.269 167.96 230.317 167.95L230.546 168.962C230.469 168.99 230.363 169.019 230.226 169.048C230.089 169.08 229.916 169.095 229.706 169.095C229.388 169.095 229.076 169.027 228.77 168.89C228.468 168.753 228.217 168.545 228.016 168.265C227.819 167.985 227.72 167.632 227.72 167.205V159.913ZM233.39 164.59V169H232.264V159.225H233.39V162.815H233.486C233.658 162.436 233.915 162.135 234.259 161.913C234.606 161.687 235.067 161.574 235.643 161.574C236.143 161.574 236.58 161.674 236.956 161.874C237.331 162.072 237.622 162.375 237.829 162.786C238.039 163.193 238.144 163.712 238.144 164.342V169H237.018V164.418C237.018 163.836 236.867 163.386 236.564 163.068C236.265 162.746 235.85 162.585 235.319 162.585C234.949 162.585 234.619 162.663 234.326 162.819C234.036 162.975 233.807 163.203 233.639 163.502C233.473 163.801 233.39 164.164 233.39 164.59ZM243.183 169.153C242.521 169.153 241.94 168.995 241.441 168.68C240.944 168.365 240.556 167.925 240.276 167.358C239.999 166.792 239.861 166.13 239.861 165.373C239.861 164.609 239.999 163.942 240.276 163.373C240.556 162.803 240.944 162.361 241.441 162.046C241.94 161.731 242.521 161.574 243.183 161.574C243.845 161.574 244.424 161.731 244.92 162.046C245.42 162.361 245.808 162.803 246.085 163.373C246.365 163.942 246.505 164.609 246.505 165.373C246.505 166.13 246.365 166.792 246.085 167.358C245.808 167.925 245.42 168.365 244.92 168.68C244.424 168.995 243.845 169.153 243.183 169.153ZM243.183 168.141C243.686 168.141 244.099 168.012 244.424 167.754C244.748 167.497 244.989 167.158 245.144 166.738C245.3 166.318 245.378 165.863 245.378 165.373C245.378 164.883 245.3 164.426 245.144 164.003C244.989 163.58 244.748 163.238 244.424 162.977C244.099 162.716 243.686 162.585 243.183 162.585C242.68 162.585 242.266 162.716 241.942 162.977C241.617 163.238 241.377 163.58 241.221 164.003C241.065 164.426 240.987 164.883 240.987 165.373C240.987 165.863 241.065 166.318 241.221 166.738C241.377 167.158 241.617 167.497 241.942 167.754C242.266 168.012 242.68 168.141 243.183 168.141ZM252.844 166.003V161.669H253.97V169H252.844V167.759H252.768C252.596 168.131 252.329 168.448 251.966 168.709C251.603 168.967 251.145 169.095 250.591 169.095C250.133 169.095 249.726 168.995 249.369 168.795C249.013 168.591 248.733 168.286 248.529 167.878C248.326 167.468 248.224 166.951 248.224 166.327V161.669H249.35V166.251C249.35 166.785 249.5 167.212 249.799 167.53C250.101 167.848 250.486 168.007 250.954 168.007C251.234 168.007 251.519 167.936 251.808 167.793C252.101 167.649 252.346 167.43 252.543 167.134C252.744 166.838 252.844 166.461 252.844 166.003ZM261.226 163.311L260.214 163.597C260.151 163.429 260.057 163.265 259.933 163.106C259.812 162.943 259.646 162.81 259.436 162.705C259.226 162.6 258.958 162.547 258.63 162.547C258.181 162.547 257.807 162.651 257.508 162.858C257.212 163.061 257.064 163.32 257.064 163.635C257.064 163.915 257.166 164.137 257.37 164.299C257.573 164.461 257.892 164.596 258.324 164.705L259.413 164.972C260.068 165.131 260.556 165.374 260.878 165.702C261.199 166.027 261.36 166.445 261.36 166.957C261.36 167.377 261.239 167.753 260.997 168.084C260.758 168.415 260.424 168.675 259.995 168.866C259.565 169.057 259.066 169.153 258.496 169.153C257.748 169.153 257.13 168.99 256.64 168.666C256.15 168.341 255.839 167.867 255.709 167.244L256.778 166.976C256.88 167.371 257.072 167.667 257.355 167.864C257.642 168.061 258.016 168.16 258.477 168.16C259.002 168.16 259.419 168.049 259.728 167.826C260.039 167.6 260.195 167.33 260.195 167.015C260.195 166.76 260.106 166.547 259.928 166.375C259.75 166.2 259.476 166.07 259.107 165.984L257.885 165.697C257.214 165.538 256.721 165.292 256.406 164.958C256.094 164.62 255.938 164.199 255.938 163.693C255.938 163.279 256.054 162.913 256.286 162.595C256.522 162.277 256.842 162.027 257.246 161.846C257.653 161.664 258.114 161.574 258.63 161.574C259.355 161.574 259.925 161.733 260.338 162.051C260.755 162.369 261.051 162.789 261.226 163.311ZM265.213 169.172C264.748 169.172 264.326 169.084 263.948 168.909C263.569 168.731 263.268 168.475 263.046 168.141C262.823 167.804 262.712 167.396 262.712 166.919C262.712 166.499 262.794 166.159 262.96 165.898C263.125 165.634 263.346 165.427 263.623 165.277C263.9 165.128 264.206 165.016 264.54 164.943C264.877 164.867 265.216 164.806 265.556 164.762C266.002 164.705 266.363 164.662 266.64 164.633C266.92 164.601 267.123 164.549 267.251 164.475C267.381 164.402 267.446 164.275 267.446 164.094V164.055C267.446 163.585 267.317 163.219 267.06 162.958C266.805 162.697 266.418 162.566 265.9 162.566C265.362 162.566 264.941 162.684 264.635 162.92C264.33 163.155 264.115 163.406 263.991 163.674L262.922 163.292C263.113 162.846 263.367 162.5 263.685 162.251C264.007 162 264.357 161.825 264.735 161.726C265.117 161.625 265.493 161.574 265.862 161.574C266.097 161.574 266.368 161.602 266.673 161.66C266.982 161.714 267.279 161.827 267.566 161.998C267.855 162.17 268.095 162.43 268.286 162.776C268.477 163.123 268.573 163.588 268.573 164.17V169H267.446V168.007H267.389C267.313 168.166 267.185 168.337 267.007 168.518C266.829 168.699 266.592 168.854 266.296 168.981C266 169.108 265.639 169.172 265.213 169.172ZM265.384 168.16C265.83 168.16 266.205 168.073 266.511 167.898C266.819 167.723 267.052 167.497 267.208 167.22C267.367 166.943 267.446 166.652 267.446 166.346V165.315C267.398 165.373 267.293 165.425 267.131 165.473C266.972 165.517 266.788 165.557 266.578 165.592C266.371 165.624 266.169 165.653 265.971 165.678C265.777 165.7 265.62 165.72 265.499 165.735C265.206 165.774 264.933 165.836 264.678 165.922C264.427 166.004 264.223 166.13 264.067 166.299C263.914 166.464 263.838 166.69 263.838 166.976C263.838 167.368 263.983 167.664 264.272 167.864C264.565 168.061 264.936 168.16 265.384 168.16ZM271.755 164.59V169H270.628V161.669H271.717V162.815H271.812C271.984 162.442 272.245 162.143 272.595 161.917C272.945 161.688 273.397 161.574 273.95 161.574C274.447 161.574 274.881 161.675 275.253 161.879C275.625 162.08 275.915 162.385 276.122 162.795C276.329 163.203 276.432 163.718 276.432 164.342V169H275.306V164.418C275.306 163.842 275.156 163.394 274.857 163.072C274.558 162.748 274.147 162.585 273.626 162.585C273.266 162.585 272.945 162.663 272.662 162.819C272.382 162.975 272.16 163.203 271.998 163.502C271.836 163.801 271.755 164.164 271.755 164.59ZM281.258 169.153C280.648 169.153 280.108 168.998 279.641 168.69C279.173 168.378 278.807 167.939 278.543 167.373C278.279 166.803 278.147 166.13 278.147 165.354C278.147 164.584 278.279 163.915 278.543 163.349C278.807 162.783 279.174 162.345 279.645 162.037C280.116 161.728 280.66 161.574 281.278 161.574C281.755 161.574 282.132 161.653 282.409 161.812C282.689 161.968 282.902 162.146 283.048 162.347C283.198 162.544 283.314 162.706 283.397 162.834H283.492V159.225H284.618V169H283.53V167.874H283.397C283.314 168.007 283.196 168.176 283.043 168.38C282.891 168.58 282.673 168.76 282.39 168.919C282.106 169.075 281.729 169.153 281.258 169.153ZM281.411 168.141C281.863 168.141 282.245 168.023 282.557 167.788C282.868 167.549 283.106 167.22 283.268 166.8C283.43 166.377 283.511 165.888 283.511 165.335C283.511 164.787 283.432 164.308 283.273 163.898C283.113 163.484 282.878 163.163 282.566 162.934C282.254 162.702 281.869 162.585 281.411 162.585C280.934 162.585 280.536 162.708 280.218 162.953C279.903 163.195 279.666 163.524 279.507 163.941C279.351 164.355 279.273 164.819 279.273 165.335C279.273 165.856 279.353 166.33 279.512 166.757C279.674 167.18 279.913 167.517 280.228 167.769C280.546 168.017 280.94 168.141 281.411 168.141Z" fill="black"/>
<path d="M323.224 131.311L322.212 131.597C322.148 131.429 322.054 131.265 321.93 131.106C321.809 130.943 321.644 130.81 321.434 130.705C321.224 130.6 320.955 130.547 320.627 130.547C320.179 130.547 319.805 130.651 319.506 130.858C319.21 131.061 319.062 131.32 319.062 131.635C319.062 131.915 319.164 132.137 319.367 132.299C319.571 132.461 319.889 132.596 320.322 132.705L321.41 132.972C322.065 133.131 322.554 133.374 322.875 133.702C323.197 134.027 323.357 134.445 323.357 134.957C323.357 135.377 323.236 135.753 322.995 136.084C322.756 136.415 322.422 136.675 321.992 136.866C321.563 137.057 321.063 137.153 320.494 137.153C319.746 137.153 319.127 136.99 318.637 136.666C318.147 136.341 317.837 135.867 317.706 135.244L318.775 134.976C318.877 135.371 319.07 135.667 319.353 135.864C319.639 136.061 320.013 136.16 320.475 136.16C321 136.16 321.416 136.049 321.725 135.826C322.037 135.6 322.193 135.33 322.193 135.015C322.193 134.76 322.104 134.547 321.925 134.375C321.747 134.2 321.474 134.07 321.105 133.984L319.883 133.697C319.211 133.538 318.718 133.292 318.403 132.958C318.091 132.62 317.935 132.199 317.935 131.693C317.935 131.279 318.052 130.913 318.284 130.595C318.519 130.277 318.839 130.027 319.243 129.846C319.65 129.664 320.112 129.574 320.627 129.574C321.353 129.574 321.922 129.733 322.336 130.051C322.753 130.369 323.049 130.789 323.224 131.311ZM328.126 137.153C327.42 137.153 326.811 136.997 326.298 136.685C325.789 136.37 325.396 135.931 325.12 135.368C324.846 134.801 324.709 134.143 324.709 133.392C324.709 132.641 324.846 131.979 325.12 131.406C325.396 130.83 325.781 130.382 326.275 130.06C326.771 129.736 327.35 129.574 328.012 129.574C328.394 129.574 328.771 129.637 329.143 129.765C329.515 129.892 329.854 130.099 330.16 130.385C330.465 130.668 330.708 131.044 330.89 131.511C331.071 131.979 331.162 132.555 331.162 133.239V133.716H325.511V132.743H330.016C330.016 132.329 329.934 131.96 329.768 131.635C329.606 131.311 329.374 131.055 329.071 130.867C328.772 130.679 328.419 130.585 328.012 130.585C327.563 130.585 327.175 130.697 326.847 130.92C326.523 131.139 326.273 131.425 326.098 131.779C325.923 132.132 325.836 132.51 325.836 132.915V133.564C325.836 134.117 325.931 134.587 326.122 134.972C326.316 135.353 326.585 135.645 326.928 135.845C327.272 136.042 327.671 136.141 328.126 136.141C328.422 136.141 328.69 136.1 328.928 136.017C329.17 135.931 329.378 135.804 329.553 135.635C329.728 135.463 329.864 135.25 329.959 134.995L331.047 135.301C330.933 135.67 330.74 135.995 330.47 136.275C330.199 136.551 329.865 136.768 329.468 136.924C329.07 137.076 328.623 137.153 328.126 137.153ZM338.647 129.669L335.936 137H334.79L332.079 129.669H333.301L335.325 135.511H335.401L337.425 129.669H338.647ZM342.945 137.153C342.238 137.153 341.629 136.997 341.117 136.685C340.608 136.37 340.215 135.931 339.938 135.368C339.664 134.801 339.527 134.143 339.527 133.392C339.527 132.641 339.664 131.979 339.938 131.406C340.215 130.83 340.6 130.382 341.093 130.06C341.589 129.736 342.168 129.574 342.83 129.574C343.212 129.574 343.589 129.637 343.961 129.765C344.333 129.892 344.672 130.099 344.978 130.385C345.283 130.668 345.527 131.044 345.708 131.511C345.889 131.979 345.98 132.555 345.98 133.239V133.716H340.329V132.743H344.835C344.835 132.329 344.752 131.96 344.586 131.635C344.424 131.311 344.192 131.055 343.89 130.867C343.59 130.679 343.237 130.585 342.83 130.585C342.381 130.585 341.993 130.697 341.665 130.92C341.341 131.139 341.091 131.425 340.916 131.779C340.741 132.132 340.654 132.51 340.654 132.915V133.564C340.654 134.117 340.749 134.587 340.94 134.972C341.134 135.353 341.403 135.645 341.747 135.845C342.09 136.042 342.49 136.141 342.945 136.141C343.24 136.141 343.508 136.1 343.746 136.017C343.988 135.931 344.197 135.804 344.372 135.635C344.547 135.463 344.682 135.25 344.777 134.995L345.865 135.301C345.751 135.67 345.558 135.995 345.288 136.275C345.018 136.551 344.683 136.768 344.286 136.924C343.888 137.076 343.441 137.153 342.945 137.153ZM348.82 132.59V137H347.693V129.669H348.782V130.815H348.877C349.049 130.442 349.31 130.143 349.66 129.917C350.01 129.688 350.462 129.574 351.015 129.574C351.512 129.574 351.946 129.675 352.318 129.879C352.69 130.08 352.98 130.385 353.187 130.795C353.394 131.203 353.497 131.718 353.497 132.342V137H352.371V132.418C352.371 131.842 352.221 131.394 351.922 131.072C351.623 130.748 351.212 130.585 350.691 130.585C350.331 130.585 350.01 130.663 349.727 130.819C349.447 130.975 349.225 131.203 349.063 131.502C348.901 131.801 348.82 132.164 348.82 132.59ZM360.462 132.59V137H359.335V127.225H360.462V130.815H360.557C360.729 130.436 360.987 130.135 361.33 129.913C361.677 129.687 362.138 129.574 362.714 129.574C363.214 129.574 363.651 129.674 364.027 129.874C364.402 130.072 364.693 130.375 364.9 130.786C365.11 131.193 365.215 131.712 365.215 132.342V137H364.089V132.418C364.089 131.836 363.938 131.386 363.636 131.068C363.336 130.746 362.921 130.585 362.39 130.585C362.021 130.585 361.69 130.663 361.397 130.819C361.108 130.975 360.878 131.203 360.71 131.502C360.544 131.801 360.462 132.164 360.462 132.59ZM371.896 134.003V129.669H373.022V137H371.896V135.759H371.82C371.648 136.131 371.38 136.448 371.018 136.709C370.655 136.967 370.197 137.095 369.643 137.095C369.185 137.095 368.778 136.995 368.421 136.795C368.065 136.591 367.785 136.286 367.581 135.878C367.378 135.468 367.276 134.951 367.276 134.327V129.669H368.402V134.251C368.402 134.785 368.552 135.212 368.851 135.53C369.153 135.848 369.538 136.007 370.006 136.007C370.286 136.007 370.571 135.936 370.86 135.793C371.153 135.649 371.398 135.43 371.595 135.134C371.796 134.838 371.896 134.461 371.896 134.003ZM376.212 132.59V137H375.085V129.669H376.173V130.815H376.269C376.441 130.442 376.702 130.143 377.052 129.917C377.402 129.688 377.853 129.574 378.407 129.574C378.903 129.574 379.338 129.675 379.71 129.879C380.082 130.08 380.372 130.385 380.579 130.795C380.786 131.203 380.889 131.718 380.889 132.342V137H379.763V132.418C379.763 131.842 379.613 131.394 379.314 131.072C379.015 130.748 378.604 130.585 378.083 130.585C377.723 130.585 377.402 130.663 377.118 130.819C376.838 130.975 376.617 131.203 376.455 131.502C376.293 131.801 376.212 132.164 376.212 132.59ZM385.715 137.153C385.104 137.153 384.565 136.998 384.097 136.69C383.63 136.378 383.264 135.939 383 135.373C382.736 134.803 382.604 134.13 382.604 133.354C382.604 132.584 382.736 131.915 383 131.349C383.264 130.783 383.631 130.345 384.102 130.037C384.573 129.728 385.117 129.574 385.734 129.574C386.212 129.574 386.589 129.653 386.866 129.812C387.146 129.968 387.359 130.146 387.505 130.347C387.655 130.544 387.771 130.706 387.854 130.834H387.949V127.225H389.075V137H387.987V135.874H387.854C387.771 136.007 387.653 136.176 387.5 136.38C387.348 136.58 387.13 136.76 386.846 136.919C386.563 137.075 386.186 137.153 385.715 137.153ZM385.868 136.141C386.32 136.141 386.702 136.023 387.014 135.788C387.325 135.549 387.562 135.22 387.725 134.8C387.887 134.377 387.968 133.888 387.968 133.335C387.968 132.787 387.889 132.308 387.729 131.898C387.57 131.484 387.335 131.163 387.023 130.934C386.711 130.702 386.326 130.585 385.868 130.585C385.391 130.585 384.993 130.708 384.675 130.953C384.36 131.195 384.123 131.524 383.964 131.941C383.808 132.355 383.73 132.819 383.73 133.335C383.73 133.856 383.809 134.33 383.969 134.757C384.131 135.18 384.369 135.517 384.684 135.769C385.003 136.017 385.397 136.141 385.868 136.141ZM391.295 137V129.669H392.383V130.776H392.459C392.593 130.414 392.835 130.119 393.185 129.893C393.535 129.667 393.929 129.555 394.368 129.555C394.451 129.555 394.554 129.556 394.679 129.559C394.803 129.562 394.896 129.567 394.96 129.574V130.719C394.922 130.71 394.834 130.695 394.698 130.676C394.564 130.654 394.422 130.643 394.273 130.643C393.916 130.643 393.598 130.718 393.318 130.867C393.041 131.013 392.822 131.217 392.66 131.478C392.501 131.736 392.421 132.03 392.421 132.361V137H391.295ZM399.146 137.153C398.439 137.153 397.83 136.997 397.318 136.685C396.809 136.37 396.416 135.931 396.139 135.368C395.865 134.801 395.729 134.143 395.729 133.392C395.729 132.641 395.865 131.979 396.139 131.406C396.416 130.83 396.801 130.382 397.294 130.06C397.79 129.736 398.369 129.574 399.031 129.574C399.413 129.574 399.79 129.637 400.162 129.765C400.535 129.892 400.874 130.099 401.179 130.385C401.484 130.668 401.728 131.044 401.909 131.511C402.091 131.979 402.181 132.555 402.181 133.239V133.716H396.53V132.743H401.036C401.036 132.329 400.953 131.96 400.788 131.635C400.625 131.311 400.393 131.055 400.091 130.867C399.792 130.679 399.439 130.585 399.031 130.585C398.583 130.585 398.194 130.697 397.867 130.92C397.542 131.139 397.292 131.425 397.117 131.779C396.942 132.132 396.855 132.51 396.855 132.915V133.564C396.855 134.117 396.95 134.587 397.141 134.972C397.335 135.353 397.604 135.645 397.948 135.845C398.291 136.042 398.691 136.141 399.146 136.141C399.442 136.141 399.709 136.1 399.948 136.017C400.189 135.931 400.398 135.804 400.573 135.635C400.748 135.463 400.883 135.25 400.979 134.995L402.067 135.301C401.952 135.67 401.76 135.995 401.489 136.275C401.219 136.551 400.885 136.768 400.487 136.924C400.089 137.076 399.642 137.153 399.146 137.153ZM406.663 137.153C406.052 137.153 405.513 136.998 405.045 136.69C404.577 136.378 404.211 135.939 403.947 135.373C403.683 134.803 403.551 134.13 403.551 133.354C403.551 132.584 403.683 131.915 403.947 131.349C404.211 130.783 404.579 130.345 405.05 130.037C405.521 129.728 406.065 129.574 406.682 129.574C407.159 129.574 407.536 129.653 407.813 129.812C408.093 129.968 408.306 130.146 408.453 130.347C408.602 130.544 408.718 130.706 408.801 130.834H408.896V127.225H410.023V137H408.935V135.874H408.801C408.718 136.007 408.601 136.176 408.448 136.38C408.295 136.58 408.077 136.76 407.794 136.919C407.511 137.075 407.134 137.153 406.663 137.153ZM406.816 136.141C407.267 136.141 407.649 136.023 407.961 135.788C408.273 135.549 408.51 135.22 408.672 134.8C408.834 134.377 408.916 133.888 408.916 133.335C408.916 132.787 408.836 132.308 408.677 131.898C408.518 131.484 408.282 131.163 407.971 130.934C407.659 130.702 407.274 130.585 406.816 130.585C406.338 130.585 405.941 130.708 405.622 130.953C405.307 131.195 405.07 131.524 404.911 131.941C404.755 132.355 404.677 132.819 404.677 133.335C404.677 133.856 404.757 134.33 404.916 134.757C405.078 135.18 405.317 135.517 405.632 135.769C405.95 136.017 406.345 136.141 406.816 136.141ZM320.188 153.172C319.724 153.172 319.302 153.084 318.923 152.909C318.545 152.731 318.244 152.475 318.021 152.141C317.799 151.804 317.687 151.396 317.687 150.919C317.687 150.499 317.77 150.159 317.935 149.898C318.101 149.634 318.322 149.427 318.599 149.277C318.876 149.128 319.181 149.016 319.515 148.943C319.852 148.867 320.191 148.806 320.532 148.762C320.977 148.705 321.338 148.662 321.615 148.633C321.895 148.601 322.099 148.549 322.226 148.475C322.357 148.402 322.422 148.275 322.422 148.094V148.055C322.422 147.585 322.293 147.219 322.035 146.958C321.781 146.697 321.394 146.566 320.875 146.566C320.338 146.566 319.916 146.684 319.611 146.92C319.305 147.155 319.09 147.406 318.966 147.674L317.897 147.292C318.088 146.846 318.343 146.5 318.661 146.251C318.982 146 319.332 145.825 319.711 145.726C320.093 145.625 320.468 145.574 320.837 145.574C321.073 145.574 321.343 145.602 321.649 145.66C321.957 145.714 322.255 145.827 322.541 145.998C322.831 146.17 323.071 146.43 323.262 146.776C323.453 147.123 323.548 147.588 323.548 148.17V153H322.422V152.007H322.365C322.288 152.166 322.161 152.337 321.983 152.518C321.805 152.699 321.567 152.854 321.272 152.981C320.976 153.108 320.615 153.172 320.188 153.172ZM320.36 152.16C320.805 152.16 321.181 152.073 321.486 151.898C321.795 151.723 322.027 151.497 322.183 151.22C322.342 150.943 322.422 150.652 322.422 150.346V149.315C322.374 149.373 322.269 149.425 322.107 149.473C321.948 149.517 321.763 149.557 321.553 149.592C321.346 149.624 321.144 149.653 320.947 149.678C320.753 149.7 320.595 149.72 320.475 149.735C320.182 149.774 319.908 149.836 319.654 149.922C319.402 150.004 319.199 150.13 319.043 150.299C318.89 150.464 318.814 150.69 318.814 150.976C318.814 151.368 318.958 151.664 319.248 151.864C319.541 152.061 319.911 152.16 320.36 152.16ZM326.73 148.59V153H325.604V145.669H326.692V146.815H326.788C326.959 146.442 327.22 146.143 327.57 145.917C327.92 145.688 328.372 145.574 328.926 145.574C329.422 145.574 329.857 145.675 330.229 145.879C330.601 146.08 330.891 146.385 331.097 146.795C331.304 147.203 331.408 147.718 331.408 148.342V153H330.281V148.418C330.281 147.842 330.132 147.394 329.833 147.072C329.534 146.748 329.123 146.585 328.601 146.585C328.242 146.585 327.92 146.663 327.637 146.819C327.357 146.975 327.136 147.203 326.974 147.502C326.812 147.801 326.73 148.164 326.73 148.59ZM336.234 153.153C335.623 153.153 335.084 152.998 334.616 152.69C334.148 152.378 333.782 151.939 333.518 151.373C333.254 150.803 333.122 150.13 333.122 149.354C333.122 148.584 333.254 147.915 333.518 147.349C333.782 146.783 334.15 146.345 334.621 146.037C335.092 145.728 335.636 145.574 336.253 145.574C336.73 145.574 337.107 145.653 337.384 145.812C337.664 145.968 337.877 146.146 338.024 146.347C338.173 146.544 338.29 146.706 338.372 146.834H338.468V143.225H339.594V153H338.506V151.874H338.372C338.29 152.007 338.172 152.176 338.019 152.38C337.866 152.58 337.648 152.76 337.365 152.919C337.082 153.075 336.705 153.153 336.234 153.153ZM336.387 152.141C336.839 152.141 337.22 152.023 337.532 151.788C337.844 151.549 338.081 151.22 338.243 150.8C338.406 150.377 338.487 149.888 338.487 149.335C338.487 148.787 338.407 148.308 338.248 147.898C338.089 147.484 337.854 147.163 337.542 146.934C337.23 146.702 336.845 146.585 336.387 146.585C335.91 146.585 335.512 146.708 335.194 146.953C334.879 147.195 334.642 147.524 334.482 147.941C334.327 148.355 334.249 148.819 334.249 149.335C334.249 149.856 334.328 150.33 334.487 150.757C334.65 151.18 334.888 151.517 335.203 151.769C335.521 152.017 335.916 152.141 336.387 152.141ZM348.667 153.153C347.961 153.153 347.351 152.997 346.839 152.685C346.33 152.37 345.937 151.931 345.66 151.368C345.387 150.801 345.25 150.143 345.25 149.392C345.25 148.641 345.387 147.979 345.66 147.406C345.937 146.83 346.322 146.382 346.815 146.06C347.312 145.736 347.891 145.574 348.552 145.574C348.934 145.574 349.311 145.637 349.684 145.765C350.056 145.892 350.395 146.099 350.7 146.385C351.006 146.668 351.249 147.044 351.43 147.511C351.612 147.979 351.702 148.555 351.702 149.239V149.716H346.052V148.743H350.557C350.557 148.329 350.474 147.96 350.309 147.635C350.147 147.311 349.914 147.055 349.612 146.867C349.313 146.679 348.96 146.585 348.552 146.585C348.104 146.585 347.716 146.697 347.388 146.92C347.063 147.139 346.814 147.425 346.639 147.779C346.464 148.132 346.376 148.51 346.376 148.915V149.564C346.376 150.117 346.472 150.587 346.662 150.972C346.857 151.353 347.125 151.645 347.469 151.845C347.813 152.042 348.212 152.141 348.667 152.141C348.963 152.141 349.23 152.1 349.469 152.017C349.711 151.931 349.919 151.804 350.094 151.635C350.269 151.463 350.404 151.25 350.5 150.995L351.588 151.301C351.473 151.67 351.281 151.995 351.01 152.275C350.74 152.551 350.406 152.768 350.008 152.924C349.61 153.076 349.163 153.153 348.667 153.153ZM353.416 153V145.669H354.542V153H353.416ZM353.989 144.447C353.769 144.447 353.58 144.373 353.421 144.223C353.265 144.073 353.187 143.894 353.187 143.684C353.187 143.474 353.265 143.294 353.421 143.144C353.58 142.995 353.769 142.92 353.989 142.92C354.208 142.92 354.396 142.995 354.552 143.144C354.711 143.294 354.79 143.474 354.79 143.684C354.79 143.894 354.711 144.073 354.552 144.223C354.396 144.373 354.208 144.447 353.989 144.447ZM359.564 155.902C359.02 155.902 358.553 155.832 358.161 155.692C357.77 155.555 357.444 155.374 357.183 155.148C356.925 154.925 356.72 154.686 356.567 154.432L357.464 153.802C357.566 153.935 357.695 154.088 357.851 154.26C358.007 154.435 358.22 154.586 358.491 154.713C358.764 154.844 359.122 154.909 359.564 154.909C360.156 154.909 360.645 154.766 361.03 154.48C361.415 154.193 361.607 153.745 361.607 153.134V151.645H361.512C361.429 151.778 361.311 151.944 361.158 152.141C361.009 152.335 360.793 152.508 360.509 152.661C360.229 152.811 359.851 152.885 359.373 152.885C358.782 152.885 358.25 152.745 357.779 152.465C357.312 152.185 356.941 151.778 356.667 151.244C356.397 150.709 356.262 150.06 356.262 149.296C356.262 148.545 356.394 147.892 356.658 147.335C356.922 146.775 357.289 146.342 357.76 146.037C358.231 145.728 358.775 145.574 359.393 145.574C359.87 145.574 360.248 145.653 360.528 145.812C360.812 145.968 361.028 146.146 361.178 146.347C361.33 146.544 361.448 146.706 361.531 146.834H361.645V145.669H362.733V153.21C362.733 153.84 362.59 154.352 362.304 154.747C362.021 155.145 361.639 155.436 361.158 155.62C360.681 155.808 360.15 155.902 359.564 155.902ZM359.526 151.874C359.978 151.874 360.36 151.77 360.672 151.563C360.983 151.357 361.221 151.059 361.383 150.671C361.545 150.283 361.626 149.818 361.626 149.277C361.626 148.749 361.547 148.283 361.388 147.879C361.228 147.475 360.993 147.158 360.681 146.929C360.369 146.7 359.984 146.585 359.526 146.585C359.049 146.585 358.651 146.706 358.333 146.948C358.018 147.19 357.781 147.515 357.622 147.922C357.466 148.329 357.388 148.781 357.388 149.277C357.388 149.786 357.468 150.237 357.627 150.628C357.789 151.016 358.028 151.322 358.343 151.544C358.661 151.764 359.055 151.874 359.526 151.874ZM365.922 148.59V153H364.795V143.225H365.922V146.815H366.017C366.189 146.436 366.447 146.135 366.79 145.913C367.137 145.687 367.598 145.574 368.174 145.574C368.674 145.574 369.111 145.674 369.487 145.874C369.862 146.072 370.153 146.375 370.36 146.786C370.57 147.193 370.675 147.712 370.675 148.342V153H369.549V148.418C369.549 147.836 369.398 147.386 369.096 147.068C368.796 146.746 368.381 146.585 367.85 146.585C367.481 146.585 367.15 146.663 366.857 146.819C366.568 146.975 366.338 147.203 366.17 147.502C366.004 147.801 365.922 148.164 365.922 148.59ZM375.924 145.669V146.624H372.125V145.669H375.924ZM373.232 143.913H374.359V150.9C374.359 151.218 374.405 151.457 374.497 151.616C374.592 151.772 374.713 151.877 374.86 151.931C375.009 151.982 375.167 152.007 375.332 152.007C375.456 152.007 375.558 152.001 375.638 151.988C375.717 151.972 375.781 151.96 375.829 151.95L376.058 152.962C375.981 152.99 375.875 153.019 375.738 153.048C375.601 153.08 375.428 153.095 375.218 153.095C374.9 153.095 374.588 153.027 374.282 152.89C373.98 152.753 373.729 152.545 373.528 152.265C373.331 151.985 373.232 151.632 373.232 151.205V143.913ZM378.344 155.749C378.153 155.749 377.983 155.733 377.833 155.701C377.684 155.673 377.58 155.644 377.523 155.615L377.809 154.623C378.083 154.693 378.325 154.718 378.535 154.699C378.745 154.68 378.931 154.586 379.093 154.417C379.259 154.252 379.41 153.983 379.547 153.611L379.757 153.038L377.046 145.669H378.267L380.291 151.511H380.367L382.391 145.669H383.613L380.501 154.069C380.361 154.448 380.188 154.761 379.981 155.009C379.774 155.261 379.534 155.447 379.26 155.568C378.99 155.689 378.684 155.749 378.344 155.749ZM390.006 148.59V153H388.88V145.669H389.968V146.815H390.063C390.235 146.442 390.496 146.143 390.846 145.917C391.196 145.688 391.648 145.574 392.201 145.574C392.698 145.574 393.132 145.675 393.504 145.879C393.877 146.08 394.166 146.385 394.373 146.795C394.58 147.203 394.683 147.718 394.683 148.342V153H393.557V148.418C393.557 147.842 393.407 147.394 393.108 147.072C392.809 146.748 392.399 146.585 391.877 146.585C391.517 146.585 391.196 146.663 390.913 146.819C390.633 146.975 390.412 147.203 390.249 147.502C390.087 147.801 390.006 148.164 390.006 148.59ZM396.742 153V145.669H397.868V153H396.742ZM397.314 144.447C397.095 144.447 396.905 144.373 396.746 144.223C396.59 144.073 396.512 143.894 396.512 143.684C396.512 143.474 396.59 143.294 396.746 143.144C396.905 142.995 397.095 142.92 397.314 142.92C397.534 142.92 397.722 142.995 397.877 143.144C398.037 143.294 398.116 143.474 398.116 143.684C398.116 143.894 398.037 144.073 397.877 144.223C397.722 144.373 397.534 144.447 397.314 144.447ZM401.057 148.59V153H399.931V145.669H401.019V146.815H401.115C401.286 146.442 401.547 146.143 401.897 145.917C402.247 145.688 402.699 145.574 403.253 145.574C403.749 145.574 404.183 145.675 404.556 145.879C404.928 146.08 405.217 146.385 405.424 146.795C405.631 147.203 405.735 147.718 405.735 148.342V153H404.608V148.418C404.608 147.842 404.459 147.394 404.16 147.072C403.86 146.748 403.45 146.585 402.928 146.585C402.569 146.585 402.247 146.663 401.964 146.819C401.684 146.975 401.463 147.203 401.301 147.502C401.138 147.801 401.057 148.164 401.057 148.59ZM410.866 153.153C410.16 153.153 409.551 152.997 409.038 152.685C408.529 152.37 408.136 151.931 407.86 151.368C407.586 150.801 407.449 150.143 407.449 149.392C407.449 148.641 407.586 147.979 407.86 147.406C408.136 146.83 408.521 146.382 409.015 146.06C409.511 145.736 410.09 145.574 410.752 145.574C411.134 145.574 411.511 145.637 411.883 145.765C412.255 145.892 412.594 146.099 412.9 146.385C413.205 146.668 413.448 147.044 413.63 147.511C413.811 147.979 413.902 148.555 413.902 149.239V149.716H408.251V148.743H412.756C412.756 148.329 412.674 147.96 412.508 147.635C412.346 147.311 412.114 147.055 411.811 146.867C411.512 146.679 411.159 146.585 410.752 146.585C410.303 146.585 409.915 146.697 409.587 146.92C409.263 147.139 409.013 147.425 408.838 147.779C408.663 148.132 408.576 148.51 408.576 148.915V149.564C408.576 150.117 408.671 150.587 408.862 150.972C409.056 151.353 409.325 151.645 409.668 151.845C410.012 152.042 410.411 152.141 410.866 152.141C411.162 152.141 411.43 152.1 411.668 152.017C411.91 151.931 412.118 151.804 412.293 151.635C412.468 151.463 412.604 151.25 412.699 150.995L413.787 151.301C413.673 151.67 413.48 151.995 413.21 152.275C412.939 152.551 412.605 152.768 412.208 152.924C411.81 153.076 411.363 153.153 410.866 153.153Z" fill="black"/>
</svg>
